<svg width="10" height="5" viewBox="0 0 10 5" fill="none" xmlns="http://www.w3.org/2000/svg">
<path opacity="0.5" d="M6.73326 0.313994C7.84188 0.454325 8.66917 1.40496 8.65385 2.52231C8.65299 2.58377 8.64745 2.65634 8.63733 2.80106C8.62717 2.94629 8.62256 3.01926 8.61483 3.08037C8.4745 4.18898 7.52295 5.01523 6.40559 4.9999C6.34413 4.99904 6.27152 4.99448 6.12678 4.98436L2.19774 4.70962C2.05301 4.6995 1.98047 4.6939 1.91948 4.6862C0.810877 4.54587 -0.0154306 3.5953 -0.000118403 2.47795C0.000726324 2.41636 0.00533278 2.34342 0.0154907 2.19816C0.025613 2.0534 0.0312028 1.98089 0.0389048 1.9199C0.179236 0.811283 1.1298 -0.0150289 2.24715 0.000294609C2.30862 0.00115588 2.38121 0.00571252 2.52597 0.0158349L6.455 0.29058C6.59976 0.300702 6.67227 0.306293 6.73326 0.313994ZM2.00787 2.58771L2.53542 2.6246C2.63487 2.4648 2.814 2.37308 3.03655 2.38864C3.32348 2.40874 3.51261 2.62428 3.49145 2.92684C3.46974 3.23721 3.25015 3.42822 2.95343 3.40747C2.69188 3.38917 2.50142 3.22053 2.48681 2.98022L1.94253 2.94216C1.92493 3.44701 2.31462 3.84743 2.92562 3.89016C3.56006 3.93451 4.01209 3.55759 4.05386 2.96023C4.09385 2.38826 3.7298 2.0059 3.24372 1.97191C2.95137 1.95156 2.73736 2.04222 2.60784 2.2113L2.5724 2.20882L2.69718 1.45697L3.99931 1.54802L4.03317 1.06378L2.27436 0.940796L2.00787 2.58771ZM5.71631 1.10928C5.02331 1.06082 4.55935 1.57331 4.49407 2.50639C4.42868 3.44147 4.81229 4.02209 5.50921 4.07082C6.20591 4.11933 6.66598 3.5958 6.73108 2.66479C6.79643 1.72993 6.4071 1.1578 5.71631 1.10928ZM5.68258 1.59155C6.00442 1.61433 6.18016 1.95765 6.13379 2.62105C6.08713 3.28841 5.86664 3.61289 5.5428 3.59052C5.22069 3.568 5.04481 3.2158 5.0915 2.54816C5.13779 1.88645 5.36244 1.56917 5.68258 1.59155ZM9.04509 2.1323C9.31662 2.26964 9.47933 2.55589 9.4581 2.85944C9.43686 3.16297 9.23591 3.42381 8.94791 3.52202L9.04509 2.1323Z" fill="white"/>
</svg>
