<svg width="9" height="9" viewBox="0 0 9 9" fill="none" xmlns="http://www.w3.org/2000/svg">
<g clip-path="url(#clip0_0_1467)">
<path d="M4.35375 1.21909C4.29235 1.18414 4.22146 1.16949 4.15124 1.17724C4.08101 1.18499 4.01503 1.21474 3.96273 1.26225C3.38781 1.77861 1.65169 3.51312 1.85668 5.46352C1.97248 6.56529 2.73319 7.44455 3.72322 7.77036C3.53756 7.55974 3.42192 7.29665 3.39228 7.01746C3.27164 5.92512 4.35374 4.55164 4.4015 4.50992C4.42799 4.48638 4.46118 4.47173 4.49642 4.46803C4.53165 4.46432 4.56717 4.47175 4.59797 4.48927C4.65336 4.52015 5.96324 5.36605 6.1069 6.73283C6.13735 7.0226 6.07218 7.30013 5.93999 7.53736C6.8403 7.01287 7.40162 5.99501 7.28596 4.8946C7.07693 2.90585 5.0243 1.59632 4.35375 1.21909Z" fill="#FF3E38"/>
</g>
<defs>
<clipPath id="clip0_0_1467">
<rect width="8.01791" height="8.01791" fill="white" transform="translate(0 0.855718) scale(1.02128) rotate(-6)"/>
</clipPath>
</defs>
</svg>
