<svg width="11" height="8" viewBox="0 0 11 8" fill="none" xmlns="http://www.w3.org/2000/svg">
<path d="M4.31398 3.47047C4.67104 3.47073 4.96043 3.80329 4.96063 4.21358V7.18799C4.96063 7.59848 4.67116 7.93182 4.31398 7.93209H3.66634C3.30901 7.93201 3.01969 7.5986 3.01969 7.18799V4.21358C3.01988 3.80317 3.30914 3.47055 3.66634 3.47047H4.31398ZM7.33366 1.73524C7.69098 1.73524 7.98121 2.06778 7.9813 2.47835V7.18799C7.98116 7.59851 7.69095 7.9311 7.33366 7.9311H6.68701C6.32972 7.9311 6.03951 7.59851 6.03937 7.18799V2.47835C6.03946 2.06778 6.32969 1.73524 6.68701 1.73524H7.33366ZM10.3533 0C10.7105 7.4501e-05 10.9998 0.332705 11 0.74311V7.18799C10.9998 7.59844 10.7106 7.93103 10.3533 7.9311H9.70571C9.34862 7.93084 9.05921 7.59833 9.05906 7.18799V0.74311C9.05926 0.332821 9.34865 0.000262157 9.70571 0H10.3533ZM1.29429 4.95571C1.65151 4.9558 1.9408 5.28837 1.94094 5.69882V7.18602C1.94094 7.59662 1.6516 7.93002 1.29429 7.93012H0.646654C0.289451 7.92988 0 7.59653 0 7.18602V5.69882C0.000143138 5.28846 0.289539 4.95595 0.646654 4.95571H1.29429Z" fill="white"/>
</svg>
