<svg width="7" height="5" viewBox="0 0 7 5" fill="none" xmlns="http://www.w3.org/2000/svg">
<path d="M2.78951 1.62466C3.00903 1.64001 3.17456 1.83043 3.15921 2.04994L3.04803 3.63991C3.03254 3.85929 2.84216 4.02495 2.62274 4.00961L2.22525 3.98182C2.00596 3.96633 1.84036 3.77584 1.85555 3.55653L1.96673 1.96656C1.98207 1.74714 2.17262 1.58167 2.39202 1.59686L2.78951 1.62466ZM0.879687 2.28898C1.09917 2.30437 1.26473 2.49478 1.24938 2.71427L1.19379 3.50925C1.17828 3.72858 0.987881 3.89425 0.768506 3.87895L0.371013 3.85116C0.151606 3.83581 -0.0138459 3.64525 0.00131641 3.42587L0.0569072 2.63088C0.0722572 2.41137 0.262678 2.24584 0.482195 2.26119L0.879687 2.28898ZM4.70971 0.826246C4.92914 0.84159 5.09461 1.03213 5.07941 1.25153L4.90339 3.76866C4.88804 3.98817 4.69762 4.1537 4.4781 4.13835L4.08061 4.11056C3.86116 4.09514 3.69557 3.90474 3.71091 3.68527L3.88693 1.16815C3.90241 0.948806 4.09285 0.783185 4.31222 0.798451L4.70971 0.826246ZM6.62884 0.0287607C6.84836 0.0441108 7.01389 0.234532 6.99854 0.454049L6.75769 3.89832C6.74234 4.11784 6.55192 4.28337 6.33241 4.26802L5.93491 4.24022C5.71563 4.22463 5.55087 4.03436 5.56621 3.815L5.80706 0.370732C5.8224 0.151374 6.01204 -0.0141121 6.23135 0.000965344L6.62884 0.0287607Z" fill="white"/>
</svg>
