<svg width="58" height="58" viewBox="0 0 58 58" fill="none" xmlns="http://www.w3.org/2000/svg">
<path d="M0 28C0 14.8007 0 8.20101 4.1005 4.1005C8.20101 0 14.8007 0 28 0H30C43.1993 0 49.799 0 53.8995 4.1005C58 8.20101 58 14.8007 58 28V30C58 43.1993 58 49.799 53.8995 53.8995C49.799 58 43.1993 58 30 58H28C14.8007 58 8.20101 58 4.1005 53.8995C0 49.799 0 43.1993 0 30V28Z" fill="url(#paint0_linear_2158_10597)"/>
<path d="M28.6697 32.391C29.8474 31.4009 30.6922 30.0726 31.0894 28.5862C31.4866 27.0998 31.4171 25.5272 30.8902 24.0816C30.3634 22.6361 29.4047 21.3875 28.1441 20.5053C26.8836 19.6231 25.3822 19.1499 23.8437 19.1499C22.3051 19.1499 20.8037 19.6231 19.5432 20.5053C18.2827 21.3875 17.324 22.6361 16.7971 24.0816C16.2702 25.5272 16.2007 27.0998 16.5979 28.5862C16.9952 30.0726 17.8399 31.4009 19.0177 32.391C17.1784 33.2225 15.5845 34.514 14.3897 36.141C14.2804 36.2899 14.2015 36.4589 14.1576 36.6383C14.1136 36.8176 14.1055 37.0039 14.1335 37.1865C14.1615 37.3691 14.2253 37.5443 14.321 37.7022C14.4168 37.8602 14.5427 37.9977 14.6917 38.107C14.8406 38.2162 15.0096 38.2951 15.189 38.339C15.3684 38.383 15.5547 38.3912 15.7372 38.3631C15.9198 38.3351 16.095 38.2714 16.253 38.1756C16.4109 38.0798 16.5484 37.9539 16.6577 37.805C17.4848 36.6755 18.5665 35.757 19.815 35.1238C21.0636 34.4906 22.4438 34.1607 23.8437 34.1607C25.2436 34.1607 26.6238 34.4906 27.8723 35.1238C29.1208 35.757 30.2025 36.6755 31.0297 37.805C31.1367 37.9595 31.2736 38.091 31.4324 38.1918C31.5911 38.2925 31.7684 38.3604 31.9538 38.3915C32.1392 38.4226 32.329 38.4162 32.5119 38.3727C32.6947 38.3292 32.8671 38.2495 33.0186 38.1383C33.1702 38.0271 33.298 37.8866 33.3944 37.7252C33.4907 37.5638 33.5538 37.3847 33.5798 37.1985C33.6058 37.0123 33.5943 36.8228 33.5458 36.6412C33.4973 36.4595 33.413 36.2894 33.2977 36.141C32.1025 34.5144 30.5087 33.223 28.6697 32.391ZM19.1557 26.656C19.1557 25.4128 19.6495 24.2205 20.5286 23.3414C21.4077 22.4623 22.6 21.9685 23.8432 21.9685C25.0864 21.9685 26.2787 22.4623 27.1577 23.3414C28.0368 24.2205 28.5307 25.4128 28.5307 26.656C28.5307 27.8992 28.0368 29.0914 27.1577 29.9705C26.2787 30.8496 25.0864 31.3435 23.8432 31.3435C22.6 31.3435 21.4077 30.8496 20.5286 29.9705C19.6495 29.0914 19.1557 27.8992 19.1557 26.656ZM43.3097 38.102C43.1607 38.2114 42.9917 38.2904 42.8123 38.3344C42.6329 38.3785 42.4465 38.3868 42.2638 38.3589C42.0812 38.3309 41.9058 38.2673 41.7478 38.1715C41.5897 38.0758 41.4521 37.9499 41.3427 37.801C40.5136 36.6735 39.4315 35.7564 38.1834 35.1233C36.9354 34.4902 35.5561 34.1589 34.1567 34.156C33.7838 34.156 33.4261 34.0078 33.1625 33.7442C32.8988 33.4805 32.7507 33.1229 32.7507 32.75C32.7507 32.3771 32.8988 32.0194 33.1625 31.7558C33.4261 31.4921 33.7838 31.344 34.1567 31.344C34.8466 31.3429 35.5278 31.1895 36.1516 30.8947C36.7754 30.6 37.3265 30.1711 37.7654 29.6388C38.2044 29.1065 38.5204 28.4838 38.6909 27.8153C38.8614 27.1467 38.8822 26.4488 38.7518 25.7713C38.6214 25.0938 38.3431 24.4534 37.9366 23.8959C37.5302 23.3383 37.0057 22.8774 36.4005 22.546C35.7954 22.2146 35.1245 22.0209 34.4359 21.9787C33.7472 21.9365 33.0577 22.0469 32.4167 22.302C32.0704 22.4405 31.6833 22.4359 31.3405 22.289C30.9977 22.1422 30.7272 21.8652 30.5887 21.519C30.4501 21.1727 30.4547 20.7856 30.6016 20.4428C30.7484 20.1 31.0254 19.8295 31.3717 19.691C33.0265 19.029 34.8631 18.978 36.5521 19.5471C38.2412 20.1163 39.6723 21.2684 40.5891 22.7969C41.5058 24.3254 41.8483 26.1305 41.555 27.8885C41.2617 29.6466 40.3519 31.2428 38.9887 32.391C40.8279 33.2225 42.4219 34.514 43.6167 36.141C43.835 36.4419 43.9253 36.817 43.8678 37.1843C43.8103 37.5517 43.6096 37.8822 43.3097 38.102Z" fill="white"/>
<defs>
<linearGradient id="paint0_linear_2158_10597" x1="0" y1="29" x2="58" y2="29" gradientUnits="userSpaceOnUse">
<stop stop-color="#EF9F22"/>
<stop offset="1" stop-color="#DE127B"/>
</linearGradient>
</defs>
</svg>
