<svg width="58" height="58" viewBox="0 0 58 58" fill="none" xmlns="http://www.w3.org/2000/svg">
<path d="M0 28C0 14.8007 0 8.20101 4.1005 4.1005C8.20101 0 14.8007 0 28 0H30C43.1993 0 49.799 0 53.8995 4.1005C58 8.20101 58 14.8007 58 28V30C58 43.1993 58 49.799 53.8995 53.8995C49.799 58 43.1993 58 30 58H28C14.8007 58 8.20101 58 4.1005 53.8995C0 49.799 0 43.1993 0 30V28Z" fill="url(#paint0_linear_2158_10608)"/>
<path d="M28.9998 16.3442C26.4966 16.3442 24.0497 17.0865 21.9685 18.4772C19.8872 19.8678 18.265 21.8444 17.3071 24.157C16.3492 26.4696 16.0986 29.0143 16.5869 31.4693C17.0753 33.9243 18.2806 36.1794 20.0506 37.9494C21.8206 39.7194 24.0757 40.9247 26.5307 41.4131C28.9857 41.9014 31.5304 41.6508 33.843 40.6929C36.1556 39.735 38.1322 38.1128 39.5228 36.0315C40.9135 33.9503 41.6558 31.5034 41.6558 29.0002C41.6521 25.6448 40.3175 22.4278 37.9448 20.0552C35.5721 17.6825 32.3552 16.3479 28.9998 16.3442ZM38.8438 29.0002C38.844 30.0765 38.667 31.1455 38.3198 32.1642L33.5698 29.2342C33.2916 29.0622 32.98 28.9514 32.6558 28.9092L29.9818 28.5482C29.5684 28.4948 29.1484 28.5518 28.7642 28.7134C28.3801 28.875 28.0456 29.1354 27.7948 29.4682H27.3178L27.0008 28.8132C26.8463 28.492 26.6203 28.2104 26.3399 27.9902C26.0596 27.7701 25.7325 27.6171 25.3838 27.5432L25.0688 27.4772L25.5388 26.6572H27.2248C27.6208 26.6572 28.0098 26.5562 28.3568 26.3642L29.7918 25.5722C29.949 25.4843 30.096 25.379 30.2298 25.2582L33.3848 22.4072C33.6337 22.1819 33.8314 21.9058 33.9644 21.5975C34.0974 21.2892 34.1627 20.9559 34.1558 20.6202C35.5876 21.5006 36.7702 22.733 37.5908 24.1999C38.4114 25.6668 38.8428 27.3194 38.8438 29.0002ZM30.4948 19.2732L31.2218 20.5742L28.3848 23.1412L27.1038 23.8442H25.2658C24.853 23.8448 24.4478 23.9541 24.0907 24.1611C23.7337 24.3681 23.4374 24.6654 23.2318 25.0232L22.7058 25.9432L21.9308 23.8772L23.0928 21.1322C24.1404 20.3447 25.3349 19.7746 26.606 19.4553C27.8772 19.1361 29.1993 19.0742 30.4948 19.2732ZM19.1558 29.0002C19.1558 27.9332 19.3298 26.8732 19.6718 25.8632L20.5788 28.2832C20.7157 28.6513 20.9434 28.9788 21.2408 29.2352C21.5382 29.4917 21.8956 29.6689 22.2798 29.7502L24.5698 30.2422L24.9198 30.9572C25.0739 31.2727 25.2965 31.5497 25.5714 31.7681C25.8464 31.9864 26.1666 32.1406 26.5088 32.2192L25.9228 33.5222C25.7361 33.941 25.6764 34.4054 25.751 34.8577C25.8257 35.3101 26.0314 35.7307 26.3428 36.0672L26.3668 36.0922L28.4948 38.2842L28.3908 38.8222C25.8917 38.6647 23.5462 37.5618 21.831 35.7374C20.1157 33.9131 19.1592 31.5043 19.1558 29.0002ZM31.3028 38.5702C31.3695 38.2099 31.3513 37.839 31.2496 37.4869C31.1479 37.1349 30.9654 36.8114 30.7168 36.5422L30.6918 36.5162L28.6158 34.3782L29.9478 31.3882L32.1748 31.6882L37.0298 34.6732C35.6545 36.6217 33.62 38.0061 31.3028 38.5702Z" fill="white"/>
<defs>
<linearGradient id="paint0_linear_2158_10608" x1="0" y1="29" x2="58" y2="29" gradientUnits="userSpaceOnUse">
<stop stop-color="#EF9F22"/>
<stop offset="1" stop-color="#DE127B"/>
</linearGradient>
</defs>
</svg>
