<svg width="58" height="58" viewBox="0 0 58 58" fill="none" xmlns="http://www.w3.org/2000/svg">
<path d="M0 28C0 14.8007 0 8.20101 4.1005 4.1005C8.20101 0 14.8007 0 28 0H30C43.1993 0 49.799 0 53.8995 4.1005C58 8.20101 58 14.8007 58 28V30C58 43.1993 58 49.799 53.8995 53.8995C49.799 58 43.1993 58 30 58H28C14.8007 58 8.20101 58 4.1005 53.8995C0 49.799 0 43.1993 0 30V28Z" fill="url(#paint0_linear_2158_10628)"/>
<g clip-path="url(#clip0_2158_10628)">
<path d="M37.4305 28.6852L31.5845 26.5312L29.4255 20.6802C29.2605 20.2323 28.962 19.8458 28.5704 19.5728C28.1788 19.2997 27.7129 19.1534 27.2355 19.1534C26.7582 19.1534 26.2923 19.2997 25.9007 19.5728C25.5091 19.8458 25.2106 20.2323 25.0455 20.6802L22.8915 26.5302L17.0405 28.6852C16.5926 28.8503 16.2061 29.1488 15.9331 29.5404C15.6601 29.932 15.5137 30.3979 15.5137 30.8752C15.5137 31.3526 15.6601 31.8185 15.9331 32.2101C16.2061 32.6017 16.5926 32.9002 17.0405 33.0652L22.8865 35.2192L25.0455 41.0702C25.2106 41.5182 25.5091 41.9047 25.9007 42.1777C26.2923 42.4507 26.7582 42.5971 27.2355 42.5971C27.7129 42.5971 28.1788 42.4507 28.5704 42.1777C28.962 41.9047 29.2605 41.5182 29.4255 41.0702L31.5795 35.2242L37.4305 33.0652C37.8785 32.9002 38.265 32.6017 38.538 32.2101C38.811 31.8185 38.9574 31.3526 38.9574 30.8752C38.9574 30.3979 38.811 29.932 38.538 29.5404C38.265 29.1488 37.8785 28.8503 37.4305 28.6852ZM30.4005 32.6572C30.0834 32.7737 29.7954 32.9577 29.5564 33.1965C29.3174 33.4353 29.1332 33.7232 29.0165 34.0402L27.2365 38.8772L25.4535 34.0392C25.337 33.7225 25.1531 33.4349 24.9145 33.1963C24.6758 32.9577 24.3882 32.7738 24.0715 32.6572L19.2345 30.8752L24.0715 29.0932C24.3882 28.9767 24.6758 28.7928 24.9145 28.5541C25.1531 28.3155 25.337 28.0279 25.4535 27.7112L27.2355 22.8732L29.0175 27.7112C29.1341 28.0282 29.3182 28.316 29.557 28.5548C29.7958 28.7936 30.0836 28.9777 30.4005 29.0942L35.2375 30.8752L30.4005 32.6572ZM30.5165 18.6872C30.5165 18.5025 30.5529 18.3196 30.6237 18.149C30.6944 17.9783 30.798 17.8233 30.9287 17.6927C31.0594 17.5621 31.2145 17.4586 31.3852 17.388C31.5559 17.3174 31.7388 17.2811 31.9235 17.2812H33.3295V15.8752C33.3295 15.5023 33.4777 15.1447 33.7414 14.881C34.005 14.6174 34.3626 14.4692 34.7355 14.4692C35.1084 14.4692 35.4661 14.6174 35.7297 14.881C35.9934 15.1447 36.1415 15.5023 36.1415 15.8752V17.2812H37.5485C37.9216 17.2812 38.2793 17.4294 38.5431 17.6932C38.8069 17.957 38.955 18.3147 38.955 18.6877C38.955 19.0608 38.8069 19.4185 38.5431 19.6823C38.2793 19.9461 37.9216 20.0942 37.5485 20.0942H36.1415V21.5002C36.1415 21.8731 35.9934 22.2308 35.7297 22.4944C35.4661 22.7581 35.1084 22.9062 34.7355 22.9062C34.3626 22.9062 34.005 22.7581 33.7414 22.4944C33.4777 22.2308 33.3295 21.8731 33.3295 21.5002V20.0942H31.9235C31.7387 20.0944 31.5557 20.0581 31.385 19.9874C31.2142 19.9167 31.059 19.8131 30.9284 19.6824C30.7977 19.5518 30.694 19.3966 30.6234 19.2258C30.5527 19.0551 30.5164 18.872 30.5165 18.6872ZM43.6415 24.3122C43.6417 24.497 43.6054 24.6799 43.5348 24.8506C43.4642 25.0213 43.3607 25.1764 43.2301 25.3071C43.0995 25.4377 42.9445 25.5414 42.7738 25.6121C42.6032 25.6828 42.4203 25.7192 42.2355 25.7192H41.7665V26.1882C41.7665 26.5611 41.6184 26.9188 41.3547 27.1824C41.0911 27.4461 40.7334 27.5942 40.3605 27.5942C39.9876 27.5942 39.63 27.4461 39.3664 27.1824C39.1027 26.9188 38.9545 26.5611 38.9545 26.1882V25.7182H38.4855C38.1126 25.7182 37.755 25.5701 37.4914 25.3064C37.2277 25.0428 37.0795 24.6851 37.0795 24.3122C37.0795 23.9393 37.2277 23.5817 37.4914 23.318C37.755 23.0544 38.1126 22.9062 38.4855 22.9062H38.9545V22.4372C38.9545 22.0643 39.1027 21.7067 39.3664 21.443C39.63 21.1794 39.9876 21.0312 40.3605 21.0312C40.7334 21.0312 41.0911 21.1794 41.3547 21.443C41.6184 21.7067 41.7665 22.0643 41.7665 22.4372V22.9072H42.2365C42.6091 22.9075 42.9663 23.0556 43.2297 23.319C43.4932 23.5825 43.6413 23.9397 43.6415 24.3122Z" fill="white"/>
</g>
<defs>
<linearGradient id="paint0_linear_2158_10628" x1="0" y1="29" x2="58" y2="29" gradientUnits="userSpaceOnUse">
<stop stop-color="#EF9F22"/>
<stop offset="1" stop-color="#DE127B"/>
</linearGradient>
<clipPath id="clip0_2158_10628">
<rect width="30" height="30" fill="white" transform="translate(14 14)"/>
</clipPath>
</defs>
</svg>
