<svg width="42" height="42" viewBox="0 0 42 42" fill="none" xmlns="http://www.w3.org/2000/svg">
<g clip-path="url(#clip0_2158_10488)">
<path d="M11.8985 11.6996C12.4171 10.4778 13.3999 9.51203 14.6306 9.01479C15.8613 8.51756 17.2391 8.52958 18.4609 9.04822L31.3603 14.5237C32.5821 15.0423 33.5479 16.0251 34.0451 17.2558C34.5424 18.4865 34.5303 19.8643 34.0117 21.0861L30.1007 30.2999C29.582 31.5218 28.5993 32.4875 27.3686 32.9848C26.1379 33.482 24.7601 33.47 23.5382 32.9513L10.6389 27.4759C9.41703 26.9572 8.45127 25.9745 7.95404 24.7438C7.45681 23.5131 7.46883 22.1353 7.98747 20.9134L11.8985 11.6996ZM19.9407 15.8092L16.5302 23.8437C16.3347 24.3044 16.7199 24.8007 17.2141 24.7277L24.7778 23.6061C24.9612 23.5791 25.1345 23.5054 25.2812 23.3921C25.4278 23.2788 25.5429 23.1296 25.6153 22.959C25.6877 22.7884 25.7151 22.6021 25.6947 22.4179C25.6744 22.2337 25.607 22.0578 25.499 21.9071L21.049 15.6882C20.9827 15.596 20.893 15.5232 20.7893 15.477C20.6855 15.4309 20.5714 15.4132 20.4585 15.4257C20.3457 15.4382 20.2382 15.4805 20.1471 15.5482C20.0559 15.6159 19.9852 15.7048 19.9407 15.8092Z" fill="white"/>
</g>
<defs>
<clipPath id="clip0_2158_10488">
<rect width="32" height="32" fill="white" transform="translate(12.5149) scale(1.00095) rotate(23)"/>
</clipPath>
</defs>
</svg>
