<svg width="45" height="45" viewBox="0 0 45 45" fill="none" xmlns="http://www.w3.org/2000/svg">
<g filter="url(#filter0_i_0_413)">
<rect width="45" height="45" rx="22.1128" fill="white" fill-opacity="0.04"/>
<rect width="45" height="45" rx="22.1128" fill="white" fill-opacity="0.01"/>
<rect x="0.425246" y="0.425246" width="44.1496" height="44.1496" rx="21.6876" stroke="url(#paint0_linear_0_413)" stroke-opacity="0.5" stroke-width="0.850493"/>
<path d="M24.4462 22.5C24.4462 23.0164 24.241 23.5117 23.8759 23.8769C23.5107 24.242 23.0154 24.4472 22.499 24.4472C21.9826 24.4472 21.4874 24.242 21.1222 23.8769C20.7571 23.5117 20.5519 23.0164 20.5519 22.5C20.5519 21.9836 20.7571 21.4884 21.1222 21.1232C21.4874 20.7581 21.9826 20.5529 22.499 20.5529C23.0154 20.5529 23.5107 20.7581 23.8759 21.1232C24.241 21.4884 24.4462 21.9836 24.4462 22.5Z" stroke="black" stroke-width="0.850493" stroke-linecap="round" stroke-linejoin="round"/>
<path d="M16.0089 22.5002C17.0474 19.8411 19.4722 17.957 22.4993 17.957C25.5264 17.957 27.9512 19.8411 28.9897 22.5002C27.9512 25.1594 25.5264 27.0435 22.4993 27.0435C19.4722 27.0435 17.0474 25.1594 16.0089 22.5002Z" stroke="black" stroke-width="0.850493" stroke-linecap="round" stroke-linejoin="round"/>
</g>
<defs>
<filter id="filter0_i_0_413" x="0" y="0" width="45" height="45" filterUnits="userSpaceOnUse" color-interpolation-filters="sRGB">
<feFlood flood-opacity="0" result="BackgroundImageFix"/>
<feBlend mode="normal" in="SourceGraphic" in2="BackgroundImageFix" result="shape"/>
<feColorMatrix in="SourceAlpha" type="matrix" values="0 0 0 0 0 0 0 0 0 0 0 0 0 0 0 0 0 0 127 0" result="hardAlpha"/>
<feOffset/>
<feGaussianBlur stdDeviation="1.70099"/>
<feComposite in2="hardAlpha" operator="arithmetic" k2="-1" k3="1"/>
<feColorMatrix type="matrix" values="0 0 0 0 0 0 0 0 0 0 0 0 0 0 0 0 0 0 0.25 0"/>
<feBlend mode="normal" in2="shape" result="effect1_innerShadow_0_413"/>
</filter>
<linearGradient id="paint0_linear_0_413" x1="22.5" y1="0" x2="22.5" y2="45.0001" gradientUnits="userSpaceOnUse">
<stop stop-color="white" stop-opacity="0.4"/>
<stop offset="1" stop-color="white" stop-opacity="0.32"/>
</linearGradient>
</defs>
</svg>
