<svg width="61" height="66" viewBox="0 0 61 66" fill="none" xmlns="http://www.w3.org/2000/svg">
<path d="M32.2232 3.79155C34.2331 4.87186 35.6847 6.62852 36.4827 8.76372C37.2839 11.7933 37.2312 14.6936 36.7149 17.7203C36.6837 17.9034 36.9232 18.009 37.0349 17.8606C39.5781 14.5867 42.172 12.083 46.3999 11.5179C48.927 11.2543 50.9774 11.8877 53.0421 13.3925C55.1143 15.2399 55.9625 17.5031 56.2183 20.1981C56.2392 22.6241 55.3019 24.8629 53.6649 26.6329C51.4843 28.7023 48.8965 30.0756 46.0644 30.9876C45.941 31.0273 45.9583 31.2116 46.0871 31.2259C50.0135 31.714 53.7465 32.7337 56.4582 35.778C58.0081 37.8775 58.6232 40.0325 58.312 42.6672C57.6919 45.442 56.3246 47.5985 53.9338 49.1618C51.6444 50.3678 48.8191 50.5431 46.3612 49.8061C43.8778 48.8217 41.6968 47.442 39.6999 45.6671C39.5722 45.5635 39.3943 45.7094 39.4709 45.8549C39.5062 45.9218 39.5416 45.9891 39.5773 46.0568C41.1137 49.195 41.9746 53.1503 40.8446 56.5585C40.114 58.6374 38.8063 60.4233 36.8864 61.5341C34.0821 62.8136 31.7754 63.0616 28.8549 62.0136C26.7155 61.0768 25.2456 59.4915 24.2155 57.405C23.0107 54.1776 23.2144 50.7579 23.7509 47.4264C23.7731 47.2888 23.5895 47.2175 23.5139 47.3345C21.4481 50.3694 18.7001 53.0941 14.9989 53.8664C12.1809 54.2574 10.2378 53.9716 7.86987 52.3882C6.19241 51.0977 4.84897 49.3357 4.46647 47.2144C4.11329 44.3811 4.25511 42.4139 5.88036 39.996C7.95559 37.3302 10.5858 35.8582 13.6467 34.7128C13.8581 34.6336 13.8316 34.3207 13.6092 34.2821C9.87884 33.6038 6.04436 32.5948 3.71376 29.3431C3.48765 28.9947 3.2703 28.6404 3.0623 28.2809C2.88934 27.9979 2.88934 27.9979 2.71289 27.7092C1.82788 25.761 1.74665 23.1038 2.45008 21.0942C4.67731 16.4776 10.597 14.3768 15.3466 16.3044C16.3675 16.7187 17.393 17.2839 18.4717 18.0092C18.9628 18.3789 19.4432 18.7574 19.9152 19.1473C20.2334 19.4101 20.657 19.179 20.4777 18.8071C19.0892 15.5083 18.5005 11.4481 19.8484 8.06328C22.1304 3.20408 27.4389 1.68371 32.2232 3.79155Z" fill="#4D0138"/>
<path d="M24.3593 29.3465C24.0561 26.4615 26.149 23.877 29.034 23.5738C31.919 23.2705 34.5036 25.3635 34.8068 28.2485C35.11 31.1335 33.0171 33.718 30.1321 34.0213C27.2471 34.3245 24.6625 32.2315 24.3593 29.3465Z" fill="white"/>
<path d="M23.1796 42.0455C22.732 37.7867 25.8216 33.9714 30.0804 33.5238C34.3392 33.0761 38.1545 36.1657 38.6021 40.4245C38.6454 40.8366 38.3464 41.2059 37.9343 41.2492L24.0043 42.7133C23.5922 42.7566 23.2229 42.4576 23.1796 42.0455Z" fill="white"/>
</svg>
