<svg width="59" height="64" viewBox="0 0 59 64" fill="none" xmlns="http://www.w3.org/2000/svg">
<path d="M36.0208 3.40878C37.8374 4.8158 38.9872 6.8018 39.4249 9.05513C39.7172 12.1973 39.1828 15.0692 38.167 17.9895C38.1055 18.1661 38.3258 18.3108 38.4615 18.1821C41.5315 15.353 44.524 13.2975 48.8171 13.4389C51.3708 13.5971 53.3019 14.5671 55.1026 16.4048C56.8536 18.5841 57.3199 20.9728 57.126 23.692C56.7436 26.105 55.4406 28.1729 53.5205 29.6588C51.0107 31.3517 48.2123 32.2855 45.2479 32.7207C45.1187 32.7396 45.1052 32.9255 45.2308 32.9611C49.0493 34.0985 52.5876 35.7317 54.7749 39.206C55.9653 41.5489 56.218 43.7914 55.471 46.3566C54.394 49.0095 52.6776 50.9241 50.0431 52.0793C47.5688 52.8967 44.7336 52.6012 42.4149 51.4607C40.112 50.0702 38.175 48.3374 36.4867 46.2426C36.3771 46.1185 36.1762 46.2339 36.2281 46.3911C36.252 46.4634 36.276 46.5361 36.3001 46.6094C37.3046 49.9816 37.5023 54.0531 35.8134 57.2504C34.7423 59.1937 33.1466 60.7501 31.0552 61.5343C28.0572 62.339 25.725 62.2019 22.9984 60.6757C21.0293 59.3896 19.8328 57.5708 19.1566 55.3273C18.4964 51.9216 19.267 48.5589 20.3536 45.3391C20.3985 45.2062 20.2281 45.1049 20.1335 45.2085C17.5773 47.8795 14.3952 50.1289 10.5907 50.2808C7.72679 50.2008 5.84437 49.594 3.75574 47.6277C2.30416 46.0672 1.2627 44.0939 1.23537 41.9234C1.3555 39.0506 1.82332 37.1203 3.8394 34.9891C6.34362 32.6862 9.20067 31.6614 12.4311 31.0325C12.6543 30.989 12.6799 30.6738 12.4654 30.5985C8.87316 29.3048 5.23242 27.6653 3.4581 24.0483C3.29143 23.6647 3.13443 23.2767 2.98761 22.8851C2.86285 22.5753 2.86285 22.5753 2.73557 22.2593C2.18039 20.1771 2.54135 17.5245 3.57402 15.6454C6.55344 11.4303 12.7821 10.3277 17.179 13.0316C18.1242 13.6129 19.0487 14.3446 19.9996 15.2443C20.4259 15.6931 20.8401 16.1488 21.2441 16.6145C21.5165 16.9285 21.9756 16.7693 21.8593 16.3702C21.0286 12.863 21.1187 8.7325 23.02 5.59473C26.0941 1.14781 31.6193 0.520069 36.0208 3.40878Z" fill="#020070"/>
<path d="M36.2977 27.9854C37.8251 28.0788 38.9875 29.3927 38.894 30.92L38.3405 39.9706C38.2471 41.498 36.9332 42.6604 35.4059 42.567L21.3271 41.7059C19.7998 41.6125 18.6374 40.2986 18.7308 38.7713L19.4074 27.7094L19.416 27.632C19.4781 27.2543 19.8174 26.9774 20.2077 27.0013L36.2977 27.9854ZM34.4202 33.9269C33.7259 33.8844 33.1288 34.4128 33.0863 35.107C33.0439 35.8013 33.5722 36.3985 34.2665 36.441C34.9607 36.4834 35.5579 35.9551 35.6004 35.2608C35.6428 34.5665 35.1145 33.9694 34.4202 33.9269Z" fill="white"/>
<path d="M31.4138 21.6303C32.5099 21.6974 33.3442 22.6404 33.2772 23.7365L33.1064 26.5284L20.6696 25.7678C20.7362 25.7332 20.8041 25.7003 20.8746 25.6719L30.5486 21.7706L30.7581 21.6996C30.9707 21.6403 31.1924 21.6168 31.4138 21.6303Z" fill="white"/>
</svg>
