<svg width="23" height="23" viewBox="0 0 23 23" fill="none" xmlns="http://www.w3.org/2000/svg">
<rect y="2.18771" width="20.9271" height="20.9271" rx="10.3691" transform="rotate(-6 0 2.18771)" fill="white"/>
<path d="M12.912 8.18747C14.0523 8.06778 15.1361 9.00357 15.2749 10.3242C15.3362 10.9082 15.1559 11.5377 14.8257 12.1688C14.4965 12.798 14.029 13.4086 13.546 13.9462C13.0638 14.4829 12.5717 14.9401 12.2001 15.2639C12.0146 15.4255 11.8596 15.5539 11.7513 15.641C11.7347 15.6543 11.7189 15.6662 11.7046 15.6776C11.6883 15.6694 11.6701 15.6602 11.6512 15.6505C11.527 15.5873 11.3486 15.4942 11.1336 15.374C10.7025 15.1328 10.1261 14.7852 9.54262 14.3591C8.95801 13.9321 8.37304 13.4309 7.92017 12.8847C7.46596 12.3369 7.16009 11.7615 7.09926 11.1835C6.96046 9.86286 7.82599 8.72219 8.96628 8.60218C9.6975 8.52533 10.3906 8.85885 10.8318 9.46635L11.089 9.82081L11.2669 9.42062C11.5721 8.73467 12.1808 8.26432 12.912 8.18747Z" fill="white" stroke="black" stroke-width="0.501119"/>
</svg>
