<svg width="61" height="66" viewBox="0 0 61 66" fill="none" xmlns="http://www.w3.org/2000/svg">
<path d="M32.2232 3.79155C34.2331 4.87186 35.6847 6.62852 36.4827 8.76372C37.2839 11.7933 37.2312 14.6936 36.7149 17.7203C36.6837 17.9034 36.9232 18.009 37.0349 17.8606C39.5781 14.5867 42.172 12.083 46.3999 11.5179C48.927 11.2543 50.9774 11.8877 53.0421 13.3925C55.1143 15.2399 55.9625 17.5031 56.2183 20.1981C56.2392 22.6241 55.3019 24.8629 53.6649 26.6329C51.4843 28.7023 48.8965 30.0756 46.0644 30.9876C45.941 31.0273 45.9583 31.2116 46.0871 31.2259C50.0135 31.714 53.7465 32.7337 56.4582 35.778C58.0081 37.8775 58.6232 40.0325 58.312 42.6672C57.6919 45.442 56.3246 47.5985 53.9338 49.1618C51.6444 50.3678 48.8191 50.5431 46.3612 49.8061C43.8778 48.8217 41.6968 47.442 39.6999 45.6671C39.5722 45.5635 39.3943 45.7094 39.4709 45.8549C39.5062 45.9218 39.5416 45.9891 39.5773 46.0568C41.1137 49.195 41.9746 53.1503 40.8446 56.5585C40.114 58.6374 38.8063 60.4233 36.8864 61.5341C34.0821 62.8136 31.7754 63.0616 28.8549 62.0136C26.7155 61.0768 25.2456 59.4915 24.2155 57.405C23.0107 54.1776 23.2144 50.7579 23.7509 47.4264C23.7731 47.2888 23.5895 47.2175 23.5139 47.3345C21.4481 50.3694 18.7001 53.0941 14.9989 53.8664C12.1809 54.2574 10.2378 53.9716 7.86987 52.3882C6.19241 51.0977 4.84897 49.3357 4.46647 47.2144C4.11329 44.3811 4.25511 42.4139 5.88036 39.996C7.95559 37.3302 10.5858 35.8582 13.6467 34.7128C13.8581 34.6336 13.8316 34.3207 13.6092 34.2821C9.87884 33.6038 6.04436 32.5948 3.71376 29.3431C3.48765 28.9947 3.2703 28.6404 3.0623 28.2809C2.88934 27.9979 2.88934 27.9979 2.71289 27.7092C1.82788 25.761 1.74665 23.1038 2.45008 21.0942C4.67731 16.4776 10.597 14.3768 15.3466 16.3044C16.3675 16.7187 17.393 17.2839 18.4717 18.0092C18.9628 18.3789 19.4432 18.7574 19.9152 19.1473C20.2334 19.4101 20.657 19.179 20.4777 18.8071C19.0892 15.5083 18.5005 11.4481 19.8484 8.06328C22.1304 3.20408 27.4389 1.68371 32.2232 3.79155Z" fill="#020070"/>
<g clip-path="url(#clip0_2158_10228)">
<path fill-rule="evenodd" clip-rule="evenodd" d="M34.2337 22.2029C32.8782 22.1637 31.1661 22.3436 28.9863 22.5727L28.8725 22.5847C26.6928 22.8138 24.9807 22.9937 23.6629 23.3139C22.3125 23.642 21.2662 24.1414 20.502 25.085C19.7378 26.0287 19.467 27.156 19.4268 28.5451C19.3876 29.9007 19.5675 31.6127 19.7966 33.7925L19.8086 33.9063C20.0377 36.0861 20.2176 37.7981 20.5378 39.1159C20.8659 40.4663 21.3653 41.5127 22.3089 42.2768C23.2526 43.041 24.3799 43.3118 25.769 43.352C27.1246 43.3912 28.8366 43.2113 31.0164 42.9822L31.1302 42.9702C33.3099 42.7411 35.022 42.5612 36.3398 42.241C37.6902 41.9128 38.7366 41.4136 39.5007 40.4699C40.2649 39.5262 40.5357 38.3989 40.5759 37.0099C40.6151 35.6543 40.4352 33.9422 40.2061 31.7624L40.1941 31.6486C39.965 29.4689 39.7851 27.7568 39.4649 26.439C39.1367 25.0886 38.6375 24.0423 37.6938 23.2781C36.7501 22.5139 35.6228 22.2431 34.2337 22.2029ZM25.8772 34.2169C25.8339 33.8048 25.4646 33.5058 25.0525 33.5491C24.6404 33.5924 24.3414 33.9617 24.3847 34.3738L24.803 38.3538C24.8463 38.7659 25.2155 39.0649 25.6277 39.0216C26.0398 38.9783 26.3388 38.609 26.2955 38.1969L25.8772 34.2169ZM29.4 27.0562C29.8122 27.0129 30.1814 27.3119 30.2247 27.724L31.2705 37.674C31.3138 38.0862 31.0148 38.4554 30.6027 38.4987C30.1906 38.542 29.8213 38.243 29.778 37.8309L28.7322 27.8809C28.6889 27.4688 28.9879 27.0995 29.4 27.0562ZM35.618 31.1811C35.5747 30.769 35.2055 30.47 34.7933 30.5133C34.3812 30.5566 34.0822 30.9259 34.1255 31.338L34.753 37.308C34.7963 37.7201 35.1656 38.0191 35.5777 37.9758C35.9898 37.9325 36.2888 37.5633 36.2455 37.1511L35.618 31.1811Z" fill="white"/>
</g>
<defs>
<clipPath id="clip0_2158_10228">
<rect width="24" height="24" fill="white" transform="translate(16.8069 22.0924) scale(1.00048) rotate(-6)"/>
</clipPath>
</defs>
</svg>
