<svg width="9" height="9" viewBox="0 0 9 9" fill="none" xmlns="http://www.w3.org/2000/svg">
<path fill-rule="evenodd" clip-rule="evenodd" d="M4.76347 0.732333C4.23116 0.69511 3.76945 1.09646 3.73223 1.62877C3.69501 2.16109 4.09636 2.62279 4.62867 2.66001C5.16099 2.69723 5.62269 2.29588 5.65991 1.76357C5.69713 1.23126 5.29578 0.769556 4.76347 0.732333ZM4.25796 1.66554C4.27488 1.42358 4.48475 1.24114 4.72671 1.25806C4.96867 1.27498 5.1511 1.48485 5.13418 1.72681C5.11726 1.96877 4.9074 2.1512 4.66544 2.13428C4.42347 2.11736 4.24104 1.9075 4.25796 1.66554Z" fill="#FAFAFA"/>
<path fill-rule="evenodd" clip-rule="evenodd" d="M4.5674 3.53623C4.03509 3.49901 3.57339 3.90036 3.53616 4.43267C3.49894 4.96498 3.90029 5.42668 4.43261 5.46391C4.96492 5.50113 5.42662 5.09978 5.46384 4.56747C5.50107 4.03515 5.09972 3.57345 4.5674 3.53623ZM4.06189 4.46943C4.07881 4.22747 4.28868 4.04504 4.53064 4.06196C4.7726 4.07888 4.95503 4.28874 4.93811 4.5307C4.92119 4.77266 4.71133 4.9551 4.46937 4.93818C4.22741 4.92126 4.04498 4.71139 4.06189 4.46943Z" fill="#FAFAFA"/>
<path fill-rule="evenodd" clip-rule="evenodd" d="M4.37133 6.34012C3.83902 6.3029 3.37732 6.70425 3.3401 7.23657C3.30287 7.76888 3.70422 8.23058 4.23654 8.2678C4.76885 8.30503 5.23055 7.90368 5.26777 7.37136C5.305 6.83905 4.90365 6.37735 4.37133 6.34012ZM3.86583 7.27333C3.88275 7.03137 4.09261 6.84894 4.33457 6.86585C4.57653 6.88277 4.75896 7.09264 4.74204 7.3346C4.72512 7.57656 4.51526 7.75899 4.2733 7.74207C4.03134 7.72515 3.84891 7.51529 3.86583 7.27333Z" fill="#FAFAFA"/>
</svg>
