<svg width="19" height="19" viewBox="0 0 19 19" fill="none" xmlns="http://www.w3.org/2000/svg">
<path d="M12.3033 5.7268C12.4374 5.5612 12.4119 5.31825 12.2463 5.18415C12.0807 5.05005 11.8377 5.07558 11.7036 5.24118L9.35643 8.13969L6.45792 5.79253C6.29232 5.65843 6.04937 5.68396 5.91527 5.84956C5.78117 6.01516 5.8067 6.25812 5.9723 6.39222L8.87081 8.73938L6.52365 11.6379C6.38955 11.8035 6.41508 12.0464 6.58068 12.1805C6.74628 12.3146 6.98924 12.2891 7.12334 12.1235L9.4705 9.225L12.369 11.5722C12.5346 11.7063 12.7776 11.6807 12.9117 11.5151C13.0458 11.3495 13.0202 11.1066 12.8546 10.9725L9.95612 8.62531L12.3033 5.7268Z" fill="#FAFAFA"/>
</svg>
