<svg width="10" height="10" viewBox="0 0 10 10" fill="none" xmlns="http://www.w3.org/2000/svg">
<g opacity="0.78">
<path fill-rule="evenodd" clip-rule="evenodd" d="M4.85167 3.58598C4.07082 3.66805 3.50435 4.36759 3.58642 5.14844C3.66849 5.92929 4.36803 6.49576 5.14888 6.41369C5.92973 6.33162 6.4962 5.63208 6.41413 4.85123C6.33206 4.07038 5.63252 3.50391 4.85167 3.58598ZM4.15196 5.089C4.10272 4.62049 4.4426 4.20076 4.91111 4.15152C5.37962 4.10228 5.79935 4.44216 5.84859 4.91067C5.89783 5.37918 5.55795 5.79891 5.08944 5.84815C4.62093 5.89739 4.2012 5.55751 4.15196 5.089Z" fill="#FAFAFA"/>
<path fill-rule="evenodd" clip-rule="evenodd" d="M4.65354 1.70084C3.84634 1.78568 3.15845 2.26166 2.61693 2.80907C2.07246 3.35946 1.64831 4.00983 1.36889 4.5002L1.34584 4.54058C1.17756 4.8351 1.03904 5.07755 1.07425 5.41248C1.10945 5.74741 1.29535 5.95575 1.52119 6.20886L1.55213 6.24356C1.92739 6.66512 2.47749 7.21309 3.1245 7.63826C3.768 8.06111 4.53981 8.38367 5.34701 8.29883C6.15421 8.21399 6.8421 7.73801 7.38362 7.19061C7.92809 6.64021 8.35224 5.98984 8.63166 5.49948L8.6547 5.4591C8.82299 5.16457 8.96151 4.92212 8.9263 4.58719C8.8911 4.25226 8.7052 4.04392 8.47936 3.79081L8.44842 3.75611C8.07316 3.33455 7.52306 2.78658 6.87605 2.36141C6.23255 1.93856 5.46074 1.616 4.65354 1.70084ZM1.86297 4.78172C2.12986 4.31334 2.52551 3.71006 3.0212 3.20899C3.51985 2.70492 4.09247 2.3316 4.71298 2.26638C5.33348 2.20116 5.97121 2.44727 6.56376 2.83665C7.1528 3.22372 7.66524 3.73155 8.02367 4.13421C8.29336 4.43718 8.34655 4.51146 8.36076 4.64663C8.37497 4.78181 8.33839 4.86553 8.13758 5.21795C7.87069 5.68633 7.47504 6.28961 6.97935 6.79068C6.4807 7.29475 5.90807 7.66807 5.28757 7.73329C4.66707 7.79851 4.02934 7.5524 3.43679 7.16302C2.84775 6.77595 2.33531 6.26812 1.97688 5.86546C1.70718 5.5625 1.65399 5.48821 1.63979 5.35304C1.62558 5.21786 1.66216 5.13414 1.86297 4.78172Z" fill="#FAFAFA"/>
</g>
</svg>
