<svg width="9" height="9" viewBox="0 0 9 9" fill="none" xmlns="http://www.w3.org/2000/svg">
<path fill-rule="evenodd" clip-rule="evenodd" d="M7.76855 3.2165C8.06084 2.11462 7.14887 1.06552 6.01703 1.20162L2.76741 1.59237C2.061 1.67731 1.46664 2.16597 1.24158 2.8392C0.792254 4.18333 1.97425 5.52314 3.36536 5.21761C3.40377 5.20917 3.4363 5.24659 3.4226 5.28346C2.92644 6.61851 4.0887 7.97547 5.48229 7.71758C6.18029 7.58841 6.74692 7.06784 6.92934 6.38012L7.76855 3.2165ZM6.07995 1.72487C6.84195 1.63324 7.45593 2.33954 7.25915 3.08137L6.41995 6.245C6.29016 6.73425 5.88574 7.10696 5.3864 7.19937C4.38833 7.38406 3.56545 6.4119 3.9166 5.46705C4.07561 5.03919 3.69812 4.60494 3.2523 4.70286C2.26778 4.9191 1.41961 3.96893 1.74141 3.00629C1.90241 2.52466 2.32778 2.17605 2.83032 2.11562L6.07995 1.72487Z" fill="#FAFAFA"/>
</svg>
