<svg width="15" height="15" viewBox="0 0 15 15" fill="none" xmlns="http://www.w3.org/2000/svg">
<path fill-rule="evenodd" clip-rule="evenodd" d="M12.35 4.53554C12.5062 2.697 10.7577 1.28108 8.99179 1.81613L3.92174 3.35234C2.81961 3.68628 2.00955 4.63225 1.84003 5.76862C1.50159 8.03744 3.76225 9.84087 5.89379 8.96286C5.95265 8.93862 6.01502 8.98912 6.00354 9.05174C5.5879 11.3192 7.82193 13.1556 9.97082 12.3528C11.0471 11.9507 11.804 10.9617 11.9015 9.8142L12.35 4.53554ZM9.23914 2.6325C10.428 2.27227 11.6052 3.22554 11.5 4.46333L11.0515 9.74198C10.9822 10.5583 10.4423 11.2661 9.67231 11.5537C8.13331 12.1287 6.54841 10.8103 6.84257 9.20554C6.97578 8.47884 6.25202 7.89276 5.5689 8.17414C4.06036 8.79553 2.44133 7.51936 2.68371 5.89447C2.80498 5.08152 3.38503 4.40627 4.1691 4.1687L9.23914 2.6325Z" fill="#FAFAFA"/>
</svg>
