<svg width="46" height="46" viewBox="0 0 46 46" fill="none" xmlns="http://www.w3.org/2000/svg">
<g clip-path="url(#clip0_2158_10385)">
<path d="M44.5053 21.9471L43.7651 23.0015L43.9324 23.7063C42.6351 22.1869 39.7993 23.7431 37.9491 22.927C37.3912 22.6803 37.7905 22.1377 38.0601 22.1192C38.1257 22.1139 38.7572 22.4656 39.3484 22.4751C39.8551 22.4806 42.223 22.5912 42.2777 22.0818C38.2482 18.8358 34.0231 16.3984 28.9837 15.1285C18.7191 12.5361 8.35545 15.9265 0.453538 22.751C10.7737 11.3427 29.3286 10.9103 41.0968 20.4441C41.4584 19.5803 38.795 18.2615 39.8979 17.4107L44.5029 21.9448L44.5053 21.9471Z" fill="#8D5900"/>
</g>
<defs>
<clipPath id="clip0_2158_10385">
<rect width="32" height="32" fill="white" transform="matrix(0.724318 0.713169 0.713169 -0.724318 0 23.1782)"/>
</clipPath>
</defs>
</svg>
