<svg width="19" height="19" viewBox="0 0 19 19" fill="none" xmlns="http://www.w3.org/2000/svg">
<g clip-path="url(#clip0_2158_10497)">
<path d="M8.89938 5.22216C13.5295 4.57144 16.2677 8.54505 16.2677 8.54505C16.2677 8.54505 14.7308 13.1195 10.1007 13.7702C5.47063 14.4209 2.73243 10.4473 2.73243 10.4473C2.73243 10.4473 4.26928 5.87288 8.89938 5.22216Z" stroke="white" stroke-width="1.3006" stroke-linejoin="round"/>
<path d="M11.52 9.21152C11.5651 9.48795 11.5546 9.77063 11.4891 10.0429C11.4235 10.3153 11.3042 10.5717 11.1381 10.7973C10.9721 11.0229 10.7626 11.213 10.5221 11.3565C10.2815 11.5 10.0147 11.594 9.73735 11.633C9.45997 11.672 9.1776 11.6552 8.90682 11.5835C8.63604 11.5119 8.38229 11.3868 8.16049 11.2158C7.93869 11.0447 7.7533 10.8311 7.61521 10.5874C7.47711 10.3437 7.3891 10.0749 7.35632 9.79668C7.27871 9.24441 7.42366 8.68392 7.75929 8.23853C8.09492 7.79313 8.59374 7.4993 9.14602 7.42168C9.69829 7.34407 10.2588 7.48902 10.7042 7.82465C11.1496 8.16028 11.4434 8.6591 11.521 9.21137L11.52 9.21152Z" stroke="white" stroke-width="1.3006" stroke-linejoin="round"/>
</g>
<defs>
<clipPath id="clip0_2158_10497">
<rect width="16.8" height="16.8" fill="white" transform="translate(0 2.34102) scale(1.00134) rotate(-8)"/>
</clipPath>
</defs>
</svg>
