<svg width="12" height="12" viewBox="0 0 12 12" fill="none" xmlns="http://www.w3.org/2000/svg">
<g clip-path="url(#clip0_0_2025)">
<path d="M0.105101 9.71368L0.33385 6.44241C0.413063 5.3274 0.931339 4.28934 1.77497 3.55598C2.6186 2.82263 3.71869 2.45386 4.83387 2.5306L7.09105 2.68844L7.14288 1.94726C7.15584 1.76244 7.22331 1.58561 7.33676 1.43912C7.45021 1.29264 7.60454 1.18308 7.78025 1.1243C7.95595 1.06551 8.14514 1.06014 8.3239 1.10887C8.50266 1.15759 8.66295 1.25822 8.78453 1.39803L11.3403 4.33758C11.5847 4.61887 11.7074 4.98572 11.6814 5.35748C11.6554 5.72923 11.4829 6.07544 11.2017 6.31997L8.26167 8.87522C8.12182 8.99675 7.94908 9.07409 7.76528 9.09746C7.58148 9.12083 7.39488 9.08918 7.22907 9.00652C7.06325 8.92385 6.92567 8.79388 6.83371 8.63303C6.74175 8.47219 6.69955 8.28769 6.71244 8.10286L6.76426 7.36168L4.03976 7.17117C3.29629 7.11992 2.56285 7.36573 2.00041 7.85466C1.43797 8.34358 1.09248 9.03567 1.03975 9.77904C1.03108 9.90298 0.973535 10.0184 0.879766 10.0999C0.785997 10.1814 0.663689 10.2224 0.539747 10.2137C0.415805 10.205 0.300382 10.1475 0.21887 10.0537C0.137358 9.95993 0.0964341 9.83762 0.105101 9.71368ZM7.99302 3.22112C7.98435 3.34506 7.9268 3.46048 7.83304 3.542C7.73927 3.62351 7.61696 3.66443 7.49302 3.65577L4.76852 3.46525C3.90116 3.40559 3.04555 3.69242 2.3894 4.2628C1.73325 4.83319 1.33013 5.64055 1.2685 6.50777L1.21249 7.30876C1.59066 6.9346 2.04429 6.64542 2.54311 6.46052C3.04192 6.27562 3.57444 6.19925 4.10512 6.23652L7.29694 6.45971C7.42089 6.46838 7.53631 6.52593 7.61782 6.61969C7.69933 6.71346 7.74026 6.83577 7.73159 6.95971L7.64708 8.16821L10.5866 5.61293C10.6803 5.53142 10.7379 5.41602 10.7465 5.2921C10.7552 5.16818 10.7143 5.0459 10.6328 4.95214L8.07752 2.01262L7.99302 3.22112Z" fill="#0C1A30"/>
</g>
<defs>
<clipPath id="clip0_0_2025">
<rect width="10.8452" height="10.8452" fill="white" transform="translate(0.784611) scale(1.0367) rotate(4)"/>
</clipPath>
</defs>
</svg>
