<svg width="30" height="15" viewBox="0 0 30 15" fill="none" xmlns="http://www.w3.org/2000/svg">
<mask id="mask0_2158_10200" style="mask-type:alpha" maskUnits="userSpaceOnUse" x="0" y="0" width="30" height="15">
<path d="M4.73456 6.29055e-05C3.5902 6.28055e-05 3.01802 6.27555e-05 2.37688 0.289816C1.5064 0.683207 0.579319 1.96127 0.475615 2.91086C0.399232 3.61029 0.513144 3.95906 0.740965 4.65662C1.46683 6.87912 2.70913 8.92249 4.39326 10.6066C7.2063 13.4197 11.0216 15 14.9998 15C18.978 15 22.7933 13.4197 25.6064 10.6066C27.3615 8.85145 28.6368 6.7061 29.3478 4.37443C29.5601 3.67811 29.6662 3.32995 29.5855 2.68246C29.4747 1.79381 28.6138 0.631321 27.7961 0.266143C27.2003 6.58271e-05 26.6539 6.57793e-05 25.561 6.56838e-05L14.9998 6.38029e-05L4.73456 6.29055e-05Z" fill="url(#paint0_linear_2158_10200)"/>
</mask>
<g mask="url(#mask0_2158_10200)">
<g filter="url(#filter0_i_2158_10200)">
<path d="M4.73456 6.29055e-05C3.5902 6.28055e-05 3.01802 6.27555e-05 2.37688 0.289816C1.5064 0.683207 0.579319 1.96127 0.475615 2.91086C0.399232 3.61029 0.513144 3.95906 0.740965 4.65662C1.46683 6.87912 2.70913 8.92249 4.39326 10.6066C7.2063 13.4197 11.0216 15 14.9998 15C18.978 15 22.7933 13.4197 25.6064 10.6066C27.3615 8.85145 28.6368 6.7061 29.3478 4.37443C29.5601 3.67811 29.6662 3.32995 29.5855 2.68246C29.4747 1.79381 28.6138 0.631321 27.7961 0.266143C27.2003 6.58271e-05 26.6539 6.57793e-05 25.561 6.56838e-05L14.9998 6.38029e-05L4.73456 6.29055e-05Z" fill="url(#paint1_linear_2158_10200)"/>
</g>
<g filter="url(#filter1_i_2158_10200)">
<path d="M0.502199 0.853043C-0.0654039 -0.448553 0.849231 -1.93878 2.2692 -1.93878H27.5047C27.8124 -1.93878 27.043 -1.93878 27.251 -1.90266C28.217 -1.73487 29.4678 0.405838 29.1396 1.32979C29.069 1.52871 30.1177 -0.332093 29.6982 0.412229C29.1658 1.35698 29.0855 2.95916 28.0011 2.95916H1.40082C0.614126 2.95916 0.816662 1.57415 0.502199 0.853043Z" fill="white"/>
</g>
<g filter="url(#filter2_iii_2158_10200)">
<ellipse cx="14.8982" cy="12.1428" rx="5.91834" ry="4.69386" fill="url(#paint2_radial_2158_10200)"/>
</g>
</g>
<defs>
<filter id="filter0_i_2158_10200" x="0.452031" y="0.000122568" width="29.1604" height="15.8162" filterUnits="userSpaceOnUse" color-interpolation-filters="sRGB">
<feFlood flood-opacity="0" result="BackgroundImageFix"/>
<feBlend mode="normal" in="SourceGraphic" in2="BackgroundImageFix" result="shape"/>
<feColorMatrix in="SourceAlpha" type="matrix" values="0 0 0 0 0 0 0 0 0 0 0 0 0 0 0 0 0 0 127 0" result="hardAlpha"/>
<feOffset dy="0.813008"/>
<feGaussianBlur stdDeviation="1.62602"/>
<feComposite in2="hardAlpha" operator="arithmetic" k2="-1" k3="1"/>
<feColorMatrix type="matrix" values="0 0 0 0 0 0 0 0 0 0 0 0 0 0 0 0 0 0 0.25 0"/>
<feBlend mode="normal" in2="shape" result="effect1_innerShadow_2158_10200"/>
</filter>
<filter id="filter1_i_2158_10200" x="0.331424" y="-2.55102" width="29.4663" height="5.51018" filterUnits="userSpaceOnUse" color-interpolation-filters="sRGB">
<feFlood flood-opacity="0" result="BackgroundImageFix"/>
<feBlend mode="normal" in="SourceGraphic" in2="BackgroundImageFix" result="shape"/>
<feColorMatrix in="SourceAlpha" type="matrix" values="0 0 0 0 0 0 0 0 0 0 0 0 0 0 0 0 0 0 127 0" result="hardAlpha"/>
<feOffset dy="-0.609756"/>
<feGaussianBlur stdDeviation="1.62602"/>
<feComposite in2="hardAlpha" operator="arithmetic" k2="-1" k3="1"/>
<feColorMatrix type="matrix" values="0 0 0 0 0 0 0 0 0 0 0 0 0 0 0 0 0 0 0.47 0"/>
<feBlend mode="normal" in2="shape" result="effect1_innerShadow_2158_10200"/>
</filter>
<filter id="filter2_iii_2158_10200" x="8.36758" y="5.40814" width="12.4494" height="12.2449" filterUnits="userSpaceOnUse" color-interpolation-filters="sRGB">
<feFlood flood-opacity="0" result="BackgroundImageFix"/>
<feBlend mode="normal" in="SourceGraphic" in2="BackgroundImageFix" result="shape"/>
<feColorMatrix in="SourceAlpha" type="matrix" values="0 0 0 0 0 0 0 0 0 0 0 0 0 0 0 0 0 0 127 0" result="hardAlpha"/>
<feOffset dy="0.813008"/>
<feGaussianBlur stdDeviation="1.01626"/>
<feComposite in2="hardAlpha" operator="arithmetic" k2="-1" k3="1"/>
<feColorMatrix type="matrix" values="0 0 0 0 0 0 0 0 0 0 0 0 0 0 0 0 0 0 0.25 0"/>
<feBlend mode="normal" in2="shape" result="effect1_innerShadow_2158_10200"/>
<feColorMatrix in="SourceAlpha" type="matrix" values="0 0 0 0 0 0 0 0 0 0 0 0 0 0 0 0 0 0 127 0" result="hardAlpha"/>
<feOffset dx="-0.609756" dy="0.813008"/>
<feGaussianBlur stdDeviation="0.406504"/>
<feComposite in2="hardAlpha" operator="arithmetic" k2="-1" k3="1"/>
<feColorMatrix type="matrix" values="0 0 0 0 1 0 0 0 0 1 0 0 0 0 1 0 0 0 0.29 0"/>
<feBlend mode="normal" in2="effect1_innerShadow_2158_10200" result="effect2_innerShadow_2158_10200"/>
<feColorMatrix in="SourceAlpha" type="matrix" values="0 0 0 0 0 0 0 0 0 0 0 0 0 0 0 0 0 0 127 0" result="hardAlpha"/>
<feOffset dy="-2.03252"/>
<feGaussianBlur stdDeviation="1.01626"/>
<feComposite in2="hardAlpha" operator="arithmetic" k2="-1" k3="1"/>
<feColorMatrix type="matrix" values="0 0 0 0 0.828932 0 0 0 0 0.0596354 0 0 0 0 0.954167 0 0 0 0.6 0"/>
<feBlend mode="normal" in2="effect2_innerShadow_2158_10200" result="effect3_innerShadow_2158_10200"/>
</filter>
<linearGradient id="paint0_linear_2158_10200" x1="14.9998" y1="15" x2="11.9386" y2="-2.55094" gradientUnits="userSpaceOnUse">
<stop stop-color="#FB39A2"/>
<stop offset="1" stop-color="#C520FF"/>
</linearGradient>
<linearGradient id="paint1_linear_2158_10200" x1="14.9998" y1="15" x2="5.81619" y2="-4.38767" gradientUnits="userSpaceOnUse">
<stop stop-color="#3A2EC0"/>
<stop offset="1" stop-color="#FF20C1"/>
</linearGradient>
<radialGradient id="paint2_radial_2158_10200" cx="0" cy="0" r="1" gradientTransform="matrix(0.14435 8.12839 -10.2488 0.114484 14.7904 8.73865)" gradientUnits="userSpaceOnUse">
<stop stop-color="#FC4141"/>
<stop offset="1" stop-color="#FF0F0F"/>
</radialGradient>
</defs>
</svg>
