<svg width="31" height="31" viewBox="0 0 31 31" fill="none" xmlns="http://www.w3.org/2000/svg">
<g clip-path="url(#clip0_2158_10502)">
<path d="M17.5775 3.65979L13.1676 4.27957C11.1699 4.56033 9.58665 4.78284 8.37239 5.12441C7.12139 5.47577 6.14062 5.98316 5.44224 6.91397C4.74273 7.84494 4.5271 8.93195 4.53595 10.2357C4.54423 11.5026 4.76753 13.0915 5.04941 15.0971L5.9786 21.7086C6.21861 23.4164 7.46615 24.7332 9.03258 25.139C8.81187 24.1191 8.60894 22.6751 8.43991 21.4724L7.64251 15.7986C7.43862 14.3479 7.26275 13.0965 7.25568 12.0766C7.24862 10.9828 7.428 9.90893 8.14195 8.95746C8.8559 8.00599 9.83513 7.53692 10.8838 7.24171C11.8616 6.96801 13.1074 6.79293 14.5536 6.58968L18.0304 6.10106C19.4754 5.89797 20.7189 5.72321 21.7354 5.71662C21.3293 4.99565 20.7154 4.41378 19.9737 4.04688C19.232 3.67998 18.397 3.54509 17.5775 3.65979Z" fill="white"/>
<path d="M9.28816 15.6764C8.85428 12.5892 8.63735 11.0456 9.45836 9.95206C10.2782 8.85866 11.815 8.64268 14.8909 8.21039L18.1525 7.75201C21.2272 7.31988 22.7651 7.10374 23.8558 7.92863C24.9464 8.75352 25.1622 10.2973 25.5961 13.3845L26.3633 18.8431C26.7971 21.9303 27.0141 23.4739 26.1942 24.5673C25.3732 25.6608 23.8352 25.877 20.7605 26.3091L17.4989 26.7675C14.4242 27.1996 12.8863 27.4157 11.7968 26.5907C10.7061 25.7658 10.4892 24.2222 10.0553 21.135L9.28816 15.6764Z" fill="white"/>
</g>
<defs>
<clipPath id="clip0_2158_10502">
<rect width="27" height="27" fill="white" transform="translate(0 3.82003) scale(1.01656) rotate(-8)"/>
</clipPath>
</defs>
</svg>
