<svg width="15" height="15" viewBox="0 0 15 15" fill="none" xmlns="http://www.w3.org/2000/svg">
<path d="M5.1329 9.46422L11.9196 8.7509C12.0321 8.73908 12.1353 8.68305 12.2065 8.59514C12.2777 8.50723 12.311 8.39465 12.2992 8.28215L11.7197 2.76793C11.7078 2.65543 11.6518 2.55224 11.5639 2.48105C11.476 2.40987 11.3634 2.37652 11.2509 2.38834L5.31251 3.01249C5.20001 3.02432 5.09682 3.08034 5.02563 3.16825C4.95445 3.25616 4.9211 3.36875 4.93292 3.48124L4.9775 3.90542" stroke="#FFD390" stroke-width="0.841574" stroke-linecap="round" stroke-linejoin="round"/>
<path d="M6.27218 8.0579L5.13342 9.46416L6.53968 10.6029" stroke="#FFD390" stroke-width="1.1221" stroke-linecap="round" stroke-linejoin="round"/>
<path d="M9.86664 5.53574L3.07991 6.24905C2.96741 6.26088 2.86422 6.31691 2.79303 6.40481C2.72184 6.49272 2.68849 6.60531 2.70032 6.71781L3.27988 12.232C3.29171 12.3445 3.34774 12.4477 3.43565 12.5189C3.52355 12.5901 3.63614 12.6234 3.74864 12.6116L9.68703 11.9875C9.79952 11.9756 9.90272 11.9196 9.9739 11.8317C10.0451 11.7438 10.0784 11.6312 10.0666 11.5187L10.022 11.0945" stroke="#E93893" stroke-width="0.841574" stroke-linecap="round" stroke-linejoin="round"/>
<path d="M8.72764 6.94213L9.8664 5.53587L8.46014 4.39711" stroke="#E93893" stroke-width="1.1221" stroke-linecap="round" stroke-linejoin="round"/>
</svg>
