<svg width="15" height="15" viewBox="0 0 15 15" fill="none" xmlns="http://www.w3.org/2000/svg">
<path d="M6.27218 8.0579L5.13342 9.46416L6.53968 10.6029" stroke="#FFD390" stroke-width="0.841574" stroke-linecap="round" stroke-linejoin="round"/>
<path fill-rule="evenodd" clip-rule="evenodd" d="M7.51623 9.21663L6.8647 9.91719L4.80863 8.25221L5.24931 7.62577L7.51623 9.21663ZM11.022 2.55553L8.61339 2.89095C8.58364 2.89624 8.55502 2.91224 8.53822 2.93781L7.34082 4.64386L9.71604 6.85325L11.2875 5.16417C11.3091 5.14242 11.319 5.11324 11.3178 5.0809L11.1451 2.65516C11.1407 2.59285 11.0839 2.54687 11.022 2.55553ZM4.40912 9.99128L3.91289 10.6041C4.0996 10.6299 4.27627 10.7044 4.42556 10.8273C4.57935 10.9518 4.68682 11.1094 4.74832 11.2826L5.24455 10.6698L4.40912 9.99128ZM4.29166 10.995C3.93676 10.7076 3.41864 10.7621 3.13124 11.117C2.84385 11.4719 2.89831 11.99 3.25321 12.2774C3.60811 12.5648 4.12623 12.5104 4.41363 12.1555C4.69888 11.8008 4.6442 11.2805 4.29166 10.995ZM4.10238 7.95845C3.91783 7.80901 3.64593 7.83758 3.49648 8.02213L3.19568 8.3936C2.78949 8.8952 2.86713 9.63384 3.36895 10.0422L3.80579 9.50271C3.88051 9.41044 4.01539 9.39626 4.10767 9.47098L5.81593 10.8543C5.90821 10.929 5.92239 11.0639 5.84766 11.1562L5.41082 11.6956C5.91242 12.1018 6.65106 12.0242 7.05725 11.5226L7.35805 11.1511C7.5075 10.9666 7.47892 10.6947 7.29437 10.5452L4.10238 7.95845Z" fill="#FFBE5A"/>
<path d="M11.4875 11.412C11.8424 11.6994 12.3605 11.6449 12.6479 11.29C12.9353 10.9351 12.8808 10.417 12.5259 10.1296C12.171 9.84219 11.6529 9.89664 11.3655 10.2515C11.08 10.6041 11.1347 11.1243 11.4875 11.412Z" fill="#F372B4"/>
<path d="M8.33084 10.4385C8.18139 10.623 8.20997 10.8949 8.39452 11.0444L8.76599 11.3452C9.26758 11.7514 10.0062 11.6737 10.4146 11.1719L9.8751 10.7351C9.78282 10.6603 9.76865 10.5254 9.84337 10.4332L11.2267 8.72491C11.3014 8.63263 11.4363 8.61846 11.5286 8.69318L12.068 9.13002C12.4742 8.62842 12.3966 7.88978 11.8948 7.48145L11.5233 7.18065C11.3387 7.0312 11.0668 7.05978 10.9174 7.24433L8.33084 10.4385Z" fill="#F372B4"/>
<path d="M5.53441 3.25353C5.51267 3.232 5.48348 3.22208 5.45114 3.22331L3.02541 3.39601C2.9631 3.4004 2.91711 3.45718 2.92578 3.51905L3.26119 5.92768C3.26434 5.95765 3.28248 5.98605 3.30806 6.00284L8.62482 9.73435L10.2898 7.67828L5.53441 3.25353Z" fill="#F372B4"/>
<path d="M8.72764 6.94213L9.8664 5.53587L8.46014 4.39711" stroke="#E93893" stroke-width="0.841574" stroke-linecap="round" stroke-linejoin="round"/>
</svg>
