<svg width="1070" height="642" viewBox="0 0 1070 642" fill="none" xmlns="http://www.w3.org/2000/svg">
<path d="M1006 36C1036.17 36 1051.25 36.0005 1060.63 45.373C1070 54.7456 1070 69.8301 1070 100V578C1070 608.17 1070 623.254 1060.63 632.627C1051.25 642 1036.17 642 1006 642H64C33.8301 642 18.7456 642 9.37305 632.627C0.00046408 623.254 0 608.17 0 578V100C0 69.8301 0.000463873 54.7456 9.37305 45.373C18.7456 36.0005 33.8301 36 64 36H530V16C530 8.45753 530 4.68592 532.343 2.34277C534.686 -0.000372313 538.458 0 546 0H757C768.183 0 773.774 0.000257218 778.185 1.82715C784.065 4.263 788.737 8.93494 791.173 14.8154C793 19.2259 793 24.8174 793 36H1006Z" fill="url(#paint0_linear_2158_10346)"/>
<defs>
<linearGradient id="paint0_linear_2158_10346" x1="535" y1="0" x2="535" y2="642" gradientUnits="userSpaceOnUse">
<stop stop-color="#FFD68F"/>
<stop offset="1" stop-color="#FFB73D"/>
</linearGradient>
</defs>
</svg>
