<svg width="39" height="11" viewBox="0 0 39 11" fill="none" xmlns="http://www.w3.org/2000/svg">
<path fill-rule="evenodd" clip-rule="evenodd" d="M5.5428 1.19362C6.26337 0.391912 7.53154 -0.530789 9.10341 0.373032C10.2933 1.05734 10.7581 2.245 10.7682 3.56643L37.7988 0.725402C38.3962 0.662664 38.931 1.09655 38.9938 1.69396C39.0563 2.29121 38.6235 2.826 38.0262 2.88883L10.4203 5.79032C9.76972 7.94674 8.33406 9.92988 7.1794 10.2538C4.90141 10.8925 -1.67322 6.58626 0.398318 2.81367C1.27105 1.22462 2.83366 1.35301 3.86599 1.66315C4.44916 1.8384 5.13561 1.64639 5.5428 1.19362Z" fill="url(#paint0_linear_0_1816)"/>
<defs>
<linearGradient id="paint0_linear_0_1816" x1="0.147369" y1="5.90392" x2="39.007" y2="1.81961" gradientUnits="userSpaceOnUse">
<stop stop-color="#F3A020"/>
<stop offset="1" stop-color="#DE127B"/>
</linearGradient>
</defs>
</svg>
