<svg width="11" height="6" viewBox="0 0 11 6" fill="none" xmlns="http://www.w3.org/2000/svg">
<path opacity="0.5" d="M7.35614 0.00310234C8.6558 -0.0601199 9.7958 0.863015 10.0042 2.14742C10.0156 2.2181 10.0247 2.30234 10.0424 2.47047C10.0601 2.6391 10.0688 2.72381 10.0723 2.79546C10.1355 4.09511 9.21235 5.23511 7.92795 5.44347C7.85714 5.45495 7.77248 5.46407 7.60384 5.48179L3.04334 5.96112C2.87521 5.97879 2.79092 5.98741 2.7194 5.99091C1.41975 6.05415 0.279768 5.13098 0.0713897 3.84659C0.0599037 3.77579 0.0507879 3.69112 0.0330637 3.52249C0.0153909 3.35434 0.00677348 3.27008 0.0032781 3.19855C-0.0599615 1.89889 0.86318 0.758901 2.14759 0.550543C2.21828 0.539091 2.3025 0.53 2.47064 0.512327L7.03115 0.0329986C7.19979 0.0152745 7.2845 0.00658854 7.35614 0.00310234ZM2.3974 3.5659L3.00856 3.50166C3.09031 3.29835 3.27793 3.15694 3.53625 3.12979C3.86906 3.095 4.12861 3.30403 4.16567 3.65491C4.20353 4.01513 3.99121 4.27823 3.64692 4.31456C3.34332 4.34647 3.09124 4.19215 3.02585 3.9196L2.39362 3.98605C2.47554 4.56846 3.00287 4.94789 3.71205 4.87342C4.44855 4.79601 4.89116 4.27335 4.81832 3.57992C4.74853 2.91591 4.25363 2.55047 3.68934 2.60978C3.34975 2.64555 3.12273 2.79347 3.00842 3.01374L2.96732 3.01806L2.95925 2.1304L4.47029 1.97158L4.41115 1.40889L2.36904 1.62353L2.3974 3.5659ZM6.34968 1.12098C5.54522 1.20558 5.11772 1.88756 5.23157 2.97078C5.34574 4.05606 5.90203 4.6432 6.71095 4.55822C7.51995 4.47319 7.94173 3.7809 7.82817 2.69999C7.71407 1.61447 7.15192 1.03666 6.34968 1.12098ZM6.40849 1.68051C6.78242 1.64121 7.05361 2.00024 7.1346 2.77076C7.21597 3.54561 7.0285 3.96127 6.65236 4.0008C6.27852 4.04004 6.00642 3.67268 5.92492 2.8979C5.84418 2.12971 6.03688 1.71962 6.40849 1.68051ZM10.3749 1.62051C10.7139 1.72319 10.958 2.01916 10.995 2.3714C11.0321 2.72366 10.8548 3.06389 10.5446 3.23482L10.3749 1.62051Z" fill="white"/>
</svg>
