<svg width="16" height="9" viewBox="0 0 16 9" fill="none" xmlns="http://www.w3.org/2000/svg">
<path opacity="0.5" d="M9.88831 0C10.6731 8.71367e-10 11.066 -9.81837e-05 11.3931 0.0599534C12.8857 0.334096 14.0537 1.50213 14.3279 2.99467C14.3879 3.32183 14.3878 3.7147 14.3878 4.4995C14.3878 5.28439 14.3879 5.67715 14.3279 6.00433C14.0539 7.49702 12.8858 8.66485 11.3931 8.93905C11.066 8.9991 10.6731 9 9.88831 9H4.4995C3.7147 9 3.32183 8.9991 2.99467 8.93905C1.50204 8.66486 0.333946 7.49703 0.0599534 6.00433C-8.77811e-05 5.67715 0 5.2844 0 4.4995C6.88992e-10 3.7147 -9.8985e-05 3.32183 0.0599534 2.99467C0.334084 1.50213 1.50213 0.334084 2.99467 0.0599534C3.32183 -9.90332e-05 3.7147 6.78718e-10 4.4995 0H9.88831ZM3.35439 4.97613H4.23471C4.38137 4.65824 4.6679 4.46053 5.03908 4.46053C5.51795 4.46054 5.85644 4.84559 5.85644 5.42578C5.85644 6.02096 5.51427 6.41401 5.0191 6.41401C4.58278 6.41382 4.24785 6.11812 4.19574 5.6616H3.28644C3.31576 6.6273 4.00955 7.33819 5.02909 7.33829C6.08777 7.33829 6.79463 6.56012 6.79472 5.41479C6.79472 4.31815 6.14686 3.63636 5.33585 3.63617C4.8472 3.63617 4.50111 3.83911 4.30565 4.17975H4.2477L4.3676 2.72688H6.54091V1.7986H3.6052L3.35439 4.97613ZM9.33974 1.65971C8.18355 1.65991 7.47331 2.70068 7.47319 4.48951C7.47319 6.28237 8.17694 7.33809 9.33974 7.33829C10.5027 7.33829 11.2063 6.27905 11.2063 4.49351C11.2062 2.70061 10.4929 1.65971 9.33974 1.65971ZM9.33974 2.58499C9.87719 2.58499 10.21 3.21711 10.2101 4.48951C10.2101 5.76971 9.88051 6.41801 9.33974 6.41801C8.80241 6.41774 8.47041 5.76945 8.47041 4.48951C8.4705 3.22111 8.80573 2.58525 9.33974 2.58499ZM14.9873 3.16754C15.4542 3.39337 15.7577 3.91944 15.7577 4.5015C15.7576 5.08339 15.4541 5.60868 14.9873 5.83446V3.16754Z" fill="white"/>
</svg>
