<svg width="15" height="15" viewBox="0 0 15 15" fill="none" xmlns="http://www.w3.org/2000/svg">
<path d="M3.12531 13.1247H11.8752C12.5627 13.1247 13.1252 12.5622 13.1252 11.8747V7.49976H11.8752V11.8747H3.12531V3.1248H7.50027V1.87481H3.12531C2.43781 1.87481 1.87532 2.43731 1.87532 3.1248V11.8747C1.87532 12.5622 2.43781 13.1247 3.12531 13.1247Z" fill="black"/>
<path d="M4.37474 8.1251V10.0001C4.37474 10.3438 4.65598 10.6251 4.99973 10.6251H6.87472C7.04346 10.6251 7.19971 10.5563 7.31846 10.4438L12.9434 4.81888C13.0014 4.76106 13.0473 4.69238 13.0787 4.61677C13.11 4.54116 13.1262 4.46011 13.1262 4.37826C13.1262 4.2964 13.11 4.21535 13.0787 4.13975C13.0473 4.06414 13.0014 3.99546 12.9434 3.93764L11.0684 2.06265C11.0106 2.00471 10.9419 1.95875 10.8663 1.92738C10.7907 1.89602 10.7097 1.87988 10.6278 1.87988C10.546 1.87988 10.4649 1.89602 10.3893 1.92738C10.3137 1.95875 10.245 2.00471 10.1872 2.06265L4.55598 7.68136C4.49806 7.73976 4.45223 7.80902 4.42113 7.88516C4.39003 7.96131 4.37426 8.04285 4.37474 8.1251ZM10.6247 3.38139L11.6184 4.37513L10.9372 5.05638L9.94344 4.06264L10.6247 3.38139ZM5.62473 8.38135L9.0622 4.94388L10.0559 5.93762L6.61847 9.37509H5.62473V8.38135Z" fill="black"/>
</svg>
