<svg width="10" height="10" viewBox="0 0 10 10" fill="none" xmlns="http://www.w3.org/2000/svg">
<g clip-path="url(#clip0_0_1876)">
<path d="M8.95033 4.17206C8.93089 4.09826 8.89027 4.03176 8.83347 3.98078C8.77668 3.9298 8.7062 3.89657 8.63073 3.88518L6.42302 3.55354L5.61105 1.35978C5.58524 1.28915 5.53955 1.2275 5.47948 1.18226C5.41941 1.13703 5.34753 1.11014 5.27251 1.10486C5.1975 1.09957 5.12256 1.1161 5.05674 1.15247C4.99092 1.18883 4.93703 1.24347 4.90157 1.30978L3.79216 3.36957L1.55978 3.39074C1.48478 3.39143 1.41156 3.41372 1.3489 3.45493C1.28623 3.49614 1.23676 3.55454 1.20641 3.62313C1.17606 3.69172 1.16611 3.76761 1.17776 3.8417C1.18941 3.9158 1.22216 3.98497 1.27209 4.04094L2.80085 5.75498L2.04493 8.22689C2.022 8.30171 2.02208 8.3817 2.04517 8.45647C2.06825 8.53125 2.11328 8.59735 2.17441 8.64622C2.23554 8.69508 2.30994 8.72445 2.38796 8.7305C2.46598 8.73655 2.54402 8.71902 2.61195 8.68017L4.83115 7.41487L6.85265 8.9767C6.9159 9.02538 6.99254 9.05352 7.07227 9.05734C7.15199 9.06117 7.23097 9.04048 7.29858 8.99807C7.3662 8.95567 7.41921 8.89357 7.45048 8.82014C7.48175 8.74671 7.48979 8.66546 7.47351 8.58732L6.93554 6.04528L8.81307 4.57922C8.93603 4.48294 8.98985 4.32314 8.95033 4.17206Z" fill="#FFB13B"/>
</g>
<defs>
<clipPath id="clip0_0_1876">
<rect width="8.67612" height="8.67612" fill="white" transform="translate(0.653802) scale(1.07983) rotate(4)"/>
</clipPath>
</defs>
</svg>
