<svg width="9" height="9" viewBox="0 0 9 9" fill="none" xmlns="http://www.w3.org/2000/svg">
<g clip-path="url(#clip0_0_1139)">
<path d="M7.7745 3.18785C7.74656 3.12727 7.70151 3.0762 7.64488 3.04094C7.58826 3.00567 7.52254 2.98777 7.45586 2.98942L5.50525 3.03903L4.47339 1.274C4.44046 1.21712 4.39177 1.17098 4.33319 1.14116C4.27462 1.11135 4.20867 1.09911 4.1433 1.10595C4.07793 1.11278 4.01594 1.13839 3.9648 1.17968C3.91366 1.22097 3.87557 1.27618 3.85511 1.33864L3.21281 3.27998L1.29451 3.63701C1.23006 3.64899 1.17042 3.67928 1.12274 3.72427C1.07505 3.76926 1.04133 3.82703 1.02562 3.89068C1.00991 3.95432 1.01286 4.02115 1.03414 4.08316C1.05541 4.14517 1.09409 4.19974 1.14557 4.24034L2.72159 5.48367L2.44611 7.72609C2.43772 7.79397 2.44993 7.86281 2.48115 7.92366C2.51237 7.98452 2.56116 8.03459 2.62119 8.06737C2.68122 8.10015 2.74972 8.11413 2.8178 8.1075C2.88587 8.10087 2.95038 8.07393 3.00296 8.03018L4.72109 6.60427L6.69814 7.6418C6.75997 7.6741 6.83021 7.6867 6.89941 7.67788C6.96861 7.66907 7.03345 7.63928 7.08522 7.59252C7.13698 7.54575 7.17319 7.48426 7.18896 7.41631C7.20473 7.34835 7.19931 7.2772 7.17344 7.21242L6.32458 5.10601L7.71815 3.55914C7.80937 3.45761 7.83144 3.31188 7.7745 3.18785Z" fill="#FFB13B"/>
</g>
<defs>
<clipPath id="clip0_0_1139">
<rect width="8.01791" height="8.01791" fill="white" transform="translate(0 0.855718) scale(1.02128) rotate(-6)"/>
</clipPath>
</defs>
</svg>
