<svg width="8" height="6" viewBox="0 0 8 6" fill="none" xmlns="http://www.w3.org/2000/svg">
<path d="M2.95286 2.62625C3.20942 2.59928 3.43961 2.78569 3.46658 3.04225L3.6619 4.90062C3.68871 5.15707 3.50226 5.38631 3.24579 5.41327L2.78093 5.46212C2.52461 5.48885 2.29547 5.30337 2.26839 5.04708L2.07307 3.18871C2.04612 2.93229 2.23164 2.70227 2.488 2.67511L2.95286 2.62625ZM5.00685 1.31443C5.26341 1.28747 5.4936 1.47387 5.52057 1.73043L5.8297 4.67169C5.85667 4.92825 5.67026 5.15844 5.4137 5.18541L4.94991 5.23415C4.69336 5.26112 4.46316 5.07471 4.4362 4.81815L4.12706 1.8769C4.10009 1.62034 4.2865 1.39014 4.54306 1.36318L5.00685 1.31443ZM7.06084 0.00261388C7.3174 -0.0243516 7.54759 0.162056 7.57456 0.418615L7.99762 4.44383C8.02459 4.70039 7.83818 4.93058 7.58162 4.95755L7.11676 5.00641C6.86035 5.03316 6.63107 4.84673 6.60411 4.5903L6.18105 0.565079C6.15409 0.308643 6.33961 0.0786193 6.59598 0.0514726L7.06084 0.00261388ZM0.882544 3.78275C1.13903 3.7558 1.36907 3.94124 1.39615 4.19768L1.49387 5.1274C1.52059 5.3838 1.33418 5.6131 1.07775 5.64005L0.613965 5.6888C0.357543 5.71575 0.127527 5.53021 0.100359 5.27387L0.00264148 4.34415C-0.0241906 4.08768 0.162271 3.85846 0.418755 3.8315L0.882544 3.78275Z" fill="white"/>
</svg>
