<svg width="58" height="58" viewBox="0 0 58 58" fill="none" xmlns="http://www.w3.org/2000/svg">
<path d="M0 28C0 14.8007 0 8.20101 4.1005 4.1005C8.20101 0 14.8007 0 28 0H30C43.1993 0 49.799 0 53.8995 4.1005C58 8.20101 58 14.8007 58 28V30C58 43.1993 58 49.799 53.8995 53.8995C49.799 58 43.1993 58 30 58H28C14.8007 58 8.20101 58 4.1005 53.8995C0 49.799 0 43.1993 0 30V28Z" fill="url(#paint0_linear_2158_10639)"/>
<path d="M29.1105 16.3442C27.2907 16.3461 25.4926 16.7405 23.839 17.5004C22.1854 18.2604 20.7151 19.368 19.5284 20.7477C18.3418 22.1275 17.4666 23.7469 16.9627 25.4956C16.4587 27.2443 16.3379 29.0812 16.6083 30.8808C16.8787 32.6805 17.5341 34.4007 18.5297 35.924C19.5253 37.4474 20.8377 38.7382 22.3775 39.7082C23.9172 40.6783 25.6481 41.3049 27.452 41.5453C29.2559 41.7857 31.0905 41.6342 32.8305 41.1012C33.0505 41.0342 33.2525 40.9132 33.4165 40.7492L40.8665 33.2992C41.0295 33.1362 41.1495 32.9352 41.2165 32.7142C41.7957 30.8211 41.9229 28.8185 41.5881 26.8673C41.2533 24.916 40.4657 23.0705 39.2885 21.4787C38.1114 19.8869 36.5775 18.5933 34.8099 17.7016C33.0423 16.8099 31.0903 16.345 29.1105 16.3442ZM38.6165 31.5682L31.6795 38.5052C29.5893 39.0678 27.3718 38.9246 25.3713 38.0978C23.3707 37.2711 21.6991 35.8071 20.6157 33.9331C19.5324 32.0591 19.098 29.8798 19.38 27.7337C19.6619 25.5875 20.6445 23.5944 22.1751 22.0638C23.7057 20.5332 25.6988 19.5506 27.8449 19.2687C29.9911 18.9867 32.1703 19.4211 34.0444 20.5045C35.9184 21.5878 37.3824 23.2595 38.2091 25.26C39.0358 27.2605 39.179 29.478 38.6165 31.5682ZM23.0165 26.6562C23.0165 26.159 23.2141 25.682 23.5657 25.3304C23.9173 24.9788 24.3942 24.7812 24.8915 24.7812C25.3888 24.7812 25.8657 24.9788 26.2173 25.3304C26.569 25.682 26.7665 26.159 26.7665 26.6562C26.7665 27.1535 26.569 27.6304 26.2173 27.9821C25.8657 28.3337 25.3888 28.5312 24.8915 28.5312C24.3942 28.5312 23.9173 28.3337 23.5657 27.9821C23.2141 27.6304 23.0165 27.1535 23.0165 26.6562ZM35.2045 26.6562C35.2045 27.1535 35.007 27.6304 34.6553 27.9821C34.3037 28.3337 33.8268 28.5312 33.3295 28.5312C32.8322 28.5312 32.3553 28.3337 32.0037 27.9821C31.6521 27.6304 31.4545 27.1535 31.4545 26.6562C31.4545 26.159 31.6521 25.682 32.0037 25.3304C32.3553 24.9788 32.8322 24.7812 33.3295 24.7812C33.8268 24.7812 34.3037 24.9788 34.6553 25.3304C35.007 25.682 35.2045 26.159 35.2045 26.6562ZM35.0155 32.5162C33.7265 34.7492 31.5715 36.0312 29.1105 36.0312C26.6505 36.0312 24.4985 34.7512 23.2055 32.5162C23.1131 32.3564 23.0531 32.1798 23.029 31.9968C23.0048 31.8137 23.0169 31.6277 23.0647 31.4493C23.1124 31.2709 23.1948 31.1037 23.3072 30.9571C23.4195 30.8106 23.5596 30.6876 23.7195 30.5952C24.0424 30.4087 24.4262 30.358 24.7865 30.4544C24.9649 30.5021 25.1321 30.5845 25.2786 30.6969C25.4252 30.8092 25.5481 30.9494 25.6405 31.1092C26.0965 31.8982 27.1535 33.2192 29.1105 33.2192C31.0675 33.2192 32.1245 31.8972 32.5805 31.1092C32.6729 30.9494 32.7959 30.8092 32.9424 30.6969C33.089 30.5845 33.2562 30.5021 33.4346 30.4544C33.6129 30.4067 33.799 30.3945 33.9821 30.4187C34.1651 30.4429 34.3416 30.5029 34.5015 30.5952C34.6614 30.6876 34.8015 30.8106 34.9139 30.9571C35.0262 31.1037 35.1086 31.2709 35.1564 31.4493C35.2041 31.6277 35.2162 31.8137 35.1921 31.9968C35.1679 32.1798 35.1079 32.3564 35.0155 32.5162Z" fill="white"/>
<defs>
<linearGradient id="paint0_linear_2158_10639" x1="0" y1="29" x2="58" y2="29" gradientUnits="userSpaceOnUse">
<stop stop-color="#EF9F22"/>
<stop offset="1" stop-color="#DE127B"/>
</linearGradient>
</defs>
</svg>
