<svg width="14" height="8" viewBox="0 0 14 8" fill="none" xmlns="http://www.w3.org/2000/svg">
<g filter="url(#filter0_i_0_2063)">
<path d="M12.5903 7.15544C13.4448 7.15544 14.1542 6.4548 13.9709 5.6202C13.6799 4.29558 13.0157 3.06975 12.0417 2.09578C10.6998 0.753875 8.87979 1.43276e-07 6.98205 0C5.08431 -1.43275e-07 3.26429 0.753875 1.92239 2.09578C0.998629 3.01954 0.353529 4.16987 0.0411901 5.41615C-0.194683 6.35732 0.613173 7.15544 1.58345 7.15544C2.49309 7.15544 3.19964 6.38414 3.58629 5.56077C3.76914 5.17138 4.01929 4.8127 4.3293 4.50269C5.03285 3.79914 5.98707 3.40388 6.98205 3.40389C7.97702 3.40389 8.93125 3.79914 9.6348 4.50269C9.89448 4.76237 10.1122 5.05619 10.2835 5.37361C10.7705 6.27599 11.5649 7.15544 12.5903 7.15544Z" fill="#C4C4C4"/>
<path d="M12.5903 7.15544C13.4448 7.15544 14.1542 6.4548 13.9709 5.6202C13.6799 4.29558 13.0157 3.06975 12.0417 2.09578C10.6998 0.753875 8.87979 1.43276e-07 6.98205 0C5.08431 -1.43275e-07 3.26429 0.753875 1.92239 2.09578C0.998629 3.01954 0.353529 4.16987 0.0411901 5.41615C-0.194683 6.35732 0.613173 7.15544 1.58345 7.15544C2.49309 7.15544 3.19964 6.38414 3.58629 5.56077C3.76914 5.17138 4.01929 4.8127 4.3293 4.50269C5.03285 3.79914 5.98707 3.40388 6.98205 3.40389C7.97702 3.40389 8.93125 3.79914 9.6348 4.50269C9.89448 4.76237 10.1122 5.05619 10.2835 5.37361C10.7705 6.27599 11.5649 7.15544 12.5903 7.15544Z" fill="#221725"/>
</g>
<defs>
<filter id="filter0_i_0_2063" x="0" y="0" width="14" height="7.15546" filterUnits="userSpaceOnUse" color-interpolation-filters="sRGB">
<feFlood flood-opacity="0" result="BackgroundImageFix"/>
<feBlend mode="normal" in="SourceGraphic" in2="BackgroundImageFix" result="shape"/>
<feColorMatrix in="SourceAlpha" type="matrix" values="0 0 0 0 0 0 0 0 0 0 0 0 0 0 0 0 0 0 127 0" result="hardAlpha"/>
<feMorphology radius="5.37602" operator="dilate" in="SourceAlpha" result="effect1_innerShadow_0_2063"/>
<feOffset dx="1.86992" dy="-1.42276"/>
<feGaussianBlur stdDeviation="2.10366"/>
<feComposite in2="hardAlpha" operator="arithmetic" k2="-1" k3="1"/>
<feColorMatrix type="matrix" values="0 0 0 0 0.462111 0 0 0 0 0.203767 0 0 0 0 0.504167 0 0 0 0.35 0"/>
<feBlend mode="normal" in2="shape" result="effect1_innerShadow_0_2063"/>
</filter>
</defs>
</svg>
