<svg width="40" height="40" viewBox="0 0 40 40" fill="none" xmlns="http://www.w3.org/2000/svg">
<path d="M6.95 18.4853C6.58062 17.1971 6.73809 15.8149 7.3878 14.6428C8.0375 13.4707 9.1262 12.6047 10.4144 12.2353L24.0145 8.33555C25.3027 7.96616 26.6849 8.12364 27.857 8.77334C29.0291 9.42304 29.8951 10.5117 30.2645 11.8L33.05 21.5143C33.4194 22.8025 33.2619 24.1847 32.6122 25.3568C31.9625 26.5289 30.8738 27.3949 29.5856 27.7643L15.9855 31.664C14.6973 32.0334 13.3151 31.8759 12.143 31.2262C10.9709 30.5765 10.1049 29.4878 9.73555 28.1996L6.95 18.4853ZM15.8712 16.6L18.3002 25.0709C18.4395 25.5566 19.0571 25.7012 19.3985 25.33L24.6205 19.6442C24.7472 19.5065 24.8364 19.3385 24.8795 19.1564C24.9225 18.9743 24.9181 18.7842 24.8665 18.6043C24.8149 18.4245 24.718 18.2609 24.5849 18.1293C24.4519 17.9977 24.2873 17.9025 24.1069 17.8529L16.6639 15.8008C16.5533 15.7706 16.4367 15.7704 16.326 15.8002C16.2153 15.8299 16.1145 15.8885 16.0339 15.97C15.9533 16.0515 15.8958 16.153 15.8673 16.264C15.8388 16.3751 15.8398 16.4897 15.8712 16.6Z" fill="white"/>
</svg>
