<svg width="40" height="40" viewBox="0 0 40 40" fill="none" xmlns="http://www.w3.org/2000/svg">
<path d="M5 13.75C5 12.0924 5.65848 10.5027 6.83058 9.33058C8.00269 8.15848 9.5924 7.5 11.25 7.5H28.75C30.4076 7.5 31.9973 8.15848 33.1694 9.33058C34.3415 10.5027 35 12.0924 35 13.75V26.25C35 27.9076 34.3415 29.4973 33.1694 30.6694C31.9973 31.8415 30.4076 32.5 28.75 32.5H11.25C9.5924 32.5 8.00269 31.8415 6.83058 30.6694C5.65848 29.4973 5 27.9076 5 26.25V13.75ZM16.25 14.55V25.45C16.25 26.075 16.935 26.4575 17.4675 26.1325L25.615 21.1525C25.8126 21.032 25.9759 20.8627 26.0892 20.6608C26.2025 20.459 26.262 20.2315 26.262 20C26.262 19.7685 26.2025 19.541 26.0892 19.3392C25.9759 19.1373 25.8126 18.968 25.615 18.8475L17.465 13.87C17.3438 13.7964 17.2052 13.7564 17.0634 13.7541C16.9217 13.7517 16.7818 13.787 16.6582 13.8565C16.5346 13.9259 16.4316 14.0269 16.3599 14.1492C16.2882 14.2715 16.2503 14.4082 16.25 14.55Z" fill="white"/>
</svg>
