<svg width="45" height="45" viewBox="0 0 45 45" fill="none" xmlns="http://www.w3.org/2000/svg">
<g filter="url(#filter0_i_0_408)">
<rect width="45" height="45" rx="22.1128" fill="white" fill-opacity="0.04"/>
<rect width="45" height="45" rx="22.1128" fill="white" fill-opacity="0.01"/>
<rect x="0.425246" y="0.425246" width="44.1496" height="44.1496" rx="21.6876" stroke="url(#paint0_linear_0_408)" stroke-opacity="0.5" stroke-width="0.850493"/>
<g clip-path="url(#clip0_0_408)">
<path fill-rule="evenodd" clip-rule="evenodd" d="M19.7943 22.7273C19.3166 22.1613 18.9298 21.1047 18.9298 20.3648V19.2549C18.9298 18.5664 19.2033 17.906 19.6901 17.4192C20.177 16.9323 20.8374 16.6588 21.5259 16.6588C22.2145 16.6588 22.8748 16.9323 23.3617 17.4192C23.8485 17.906 24.1221 18.5664 24.1221 19.2549V20.3648C24.1221 21.1047 23.7326 22.1646 23.2575 22.7286L23.0232 23.0064C22.6403 23.46 22.7597 24.037 23.2952 24.2979L26.9688 26.0906C27.3679 26.2853 27.6918 26.8 27.6918 27.2478V27.6937C27.6914 27.8657 27.6228 28.0306 27.501 28.152C27.3792 28.2735 27.2141 28.3416 27.0421 28.3415H16.0091C15.8372 28.3415 15.6723 28.2733 15.5506 28.1518C15.4289 28.0304 15.3604 27.8656 15.36 27.6937V27.2478C15.36 26.8032 15.6833 26.2853 16.0831 26.0899L19.7566 24.2973C20.2895 24.0377 20.4135 23.4613 20.0292 23.0057L19.7943 22.7273ZM16.1389 27.5626H26.9129V27.2478C26.9129 27.0992 26.7604 26.8552 26.6274 26.7903L22.9538 24.9989C21.9627 24.5154 21.718 23.3465 22.4281 22.5047L22.6617 22.2269C23.02 21.8024 23.3432 20.9197 23.3432 20.3654V19.2549C23.3432 18.2521 22.5293 17.4376 21.5259 17.4376C21.0441 17.4381 20.5821 17.6297 20.2414 17.9704C19.9007 18.3111 19.7091 18.7731 19.7086 19.2549V20.3648C19.7086 20.9203 20.0305 21.7991 20.3901 22.2249L20.6237 22.5034C21.3357 23.3465 21.0878 24.5147 20.098 24.9976L16.4245 26.7903C16.2927 26.8545 16.1389 27.1011 16.1389 27.2478V27.5626ZM26.9778 21.7862V19.904H27.7567V21.7862H29.6389V22.565H27.7567V24.4472H26.9778V22.565H25.0956V21.7862H26.9778Z" fill="black"/>
</g>
</g>
<defs>
<filter id="filter0_i_0_408" x="0" y="0" width="45" height="45" filterUnits="userSpaceOnUse" color-interpolation-filters="sRGB">
<feFlood flood-opacity="0" result="BackgroundImageFix"/>
<feBlend mode="normal" in="SourceGraphic" in2="BackgroundImageFix" result="shape"/>
<feColorMatrix in="SourceAlpha" type="matrix" values="0 0 0 0 0 0 0 0 0 0 0 0 0 0 0 0 0 0 127 0" result="hardAlpha"/>
<feOffset/>
<feGaussianBlur stdDeviation="1.70099"/>
<feComposite in2="hardAlpha" operator="arithmetic" k2="-1" k3="1"/>
<feColorMatrix type="matrix" values="0 0 0 0 0 0 0 0 0 0 0 0 0 0 0 0 0 0 0.25 0"/>
<feBlend mode="normal" in2="shape" result="effect1_innerShadow_0_408"/>
</filter>
<linearGradient id="paint0_linear_0_408" x1="22.5" y1="0" x2="22.5" y2="45.0001" gradientUnits="userSpaceOnUse">
<stop stop-color="white" stop-opacity="0.4"/>
<stop offset="1" stop-color="white" stop-opacity="0.32"/>
</linearGradient>
<clipPath id="clip0_0_408">
<rect width="15.3089" height="15.3089" fill="white" transform="translate(14.7112 14.7117) scale(1.01751)"/>
</clipPath>
</defs>
</svg>
