<svg width="20" height="24" viewBox="0 0 20 24" fill="none" xmlns="http://www.w3.org/2000/svg">
<g clip-path="url(#clip0_2158_10322)">
<path d="M15.8267 17.8332H15.8346M15.8267 17.8332C15.3078 18.3478 14.3674 18.2196 13.7079 18.2196C12.8984 18.2196 12.5086 18.3779 11.9308 18.9557C11.4389 19.4477 10.7794 20.3332 10.0013 20.3332C9.22322 20.3332 8.56372 19.4477 8.07178 18.9557C7.49404 18.3779 7.10421 18.2196 6.29469 18.2196C5.6352 18.2196 4.69479 18.3478 4.17588 17.8332C3.65281 17.3145 3.78154 16.3702 3.78154 15.7064C3.78154 14.8677 3.5981 14.482 3.00079 13.8847C2.11225 12.9962 1.66799 12.5518 1.66797 11.9998C1.66798 11.4478 2.11224 11.0035 3.00076 10.115C3.53397 9.58177 3.78154 9.0534 3.78154 8.29322C3.78154 7.63371 3.65338 6.69329 4.16797 6.17437C4.68666 5.65132 5.63097 5.78005 6.2947 5.78005C7.05486 5.78005 7.58323 5.5325 8.11643 4.99931C9.00497 4.11077 9.44922 3.6665 10.0013 3.6665C10.5534 3.6665 10.9976 4.11077 11.8861 4.99931C12.4192 5.5324 12.9476 5.78005 13.7079 5.78005C14.3674 5.78005 15.3079 5.6519 15.8268 6.1665C16.3498 6.6852 16.2211 7.6295 16.2211 8.29322C16.2211 9.13199 16.4046 9.51765 17.0018 10.115C17.8904 11.0035 18.3346 11.4478 18.3346 11.9998C18.3346 12.5518 17.8904 12.9962 17.0018 13.8847C16.4045 14.482 16.2211 14.8677 16.2211 15.7064C16.2211 16.3702 16.3498 17.3145 15.8267 17.8332Z" stroke="#1E1E1E" stroke-width="1.5"/>
<path d="M7.5 12.7442L9 14.0834L12.5 9.91675" stroke="#1E1E1E" stroke-width="1.5" stroke-linecap="round"/>
</g>
<defs>
<clipPath id="clip0_2158_10322">
<rect width="20" height="20" fill="white" transform="translate(0 2)"/>
</clipPath>
</defs>
</svg>
