<svg width="15" height="8" viewBox="0 0 15 8" fill="none" xmlns="http://www.w3.org/2000/svg">
<path d="M2.551 6.92924C3.91351 6.78603 4.61086 5.63546 4.42122 3.83116C4.34981 3.15176 4.15978 2.59368 3.86461 2.17803C3.4323 1.52906 2.77328 1.22297 1.98993 1.3053C0.824188 1.42783 0.0823334 2.2978 0.197834 3.39672C0.306311 4.42881 1.12764 5.10071 2.1486 4.9934C2.77602 4.92746 3.25382 4.5807 3.45281 4.04555L3.46395 4.04438C3.46395 4.04438 3.4788 4.04282 3.48251 4.04243C3.48994 4.04165 3.51593 4.03892 3.51593 4.03892C3.64469 5.26406 3.25749 6.04421 2.47414 6.12654C2.01379 6.17493 1.63085 5.95994 1.4658 5.56814L0.511672 5.66843C0.763791 6.53152 1.57089 7.03225 2.551 6.92924ZM2.29879 4.20813C1.6825 4.27291 1.19837 3.88087 1.13399 3.2683C1.07117 2.67057 1.48353 2.16554 2.08125 2.10272C2.67897 2.0399 3.18811 2.45558 3.25171 3.06073C3.31453 3.65845 2.91136 4.14375 2.29879 4.20813Z" fill="#121926"/>
<path d="M6.28424 6.48431C6.63693 6.44724 6.85171 6.16942 6.81659 5.83529C6.78108 5.49745 6.51362 5.27407 6.16093 5.31114C5.81195 5.34782 5.59306 5.62232 5.62857 5.96016C5.66369 6.29429 5.93526 6.52099 6.28424 6.48431ZM5.99158 3.69989C6.34427 3.66282 6.55945 3.38872 6.52433 3.05459C6.48882 2.71674 6.22136 2.49336 5.86867 2.53043C5.51969 2.56711 5.3008 2.84161 5.33631 3.17945C5.37143 3.51358 5.6426 3.73657 5.99158 3.69989Z" fill="#121926"/>
<path d="M10.3452 5.97866L11.2622 5.88228L11.1572 4.88361L11.8811 4.80752L11.7961 3.99818L11.0721 4.07427L10.6991 0.525061L9.34772 0.667095C8.55086 2.19222 7.92246 3.46316 7.53309 4.40119L7.62284 5.25508L10.2402 4.97999L10.3452 5.97866ZM8.42156 4.31907C8.92977 3.1546 9.39418 2.21619 9.82691 1.40498L9.87888 1.39952L10.1723 4.19136L8.42741 4.37476L8.42156 4.31907Z" fill="#121926"/>
<path d="M14.0282 5.59156L14.986 5.49089L14.4229 0.133669L13.4688 0.233952L12.1722 1.36117L12.269 2.28189L13.5034 1.20624L13.5665 1.19961L14.0282 5.59156Z" fill="#121926"/>
</svg>
