<svg width="9" height="9" viewBox="0 0 9 9" fill="none" xmlns="http://www.w3.org/2000/svg">
<g clip-path="url(#clip0_0_1400)">
<path fill-rule="evenodd" clip-rule="evenodd" d="M5.01569 0.8756C5.06828 0.898031 5.11185 0.937429 5.13943 0.987507C5.16702 1.03758 5.17704 1.09546 5.1679 1.1519L4.75243 3.70098L7.21859 3.44178C7.26819 3.43657 7.31823 3.44596 7.36255 3.46881C7.40688 3.49165 7.44357 3.52695 7.4681 3.57037C7.49264 3.61378 7.50395 3.66342 7.50066 3.71318C7.49736 3.76294 7.47959 3.81065 7.44955 3.85045L4.28792 8.04226C4.25349 8.088 4.20472 8.12088 4.1494 8.13564C4.09408 8.15039 4.03541 8.14617 3.98278 8.12364C3.93014 8.10111 3.88658 8.06159 3.85907 8.01138C3.83155 7.96118 3.82166 7.90319 3.83099 7.8467L4.24649 5.29796L1.78032 5.55716C1.73073 5.56237 1.68069 5.55298 1.63636 5.53013C1.59204 5.50728 1.55535 5.47199 1.53082 5.42857C1.50628 5.38515 1.49497 5.33552 1.49826 5.28576C1.50156 5.236 1.51932 5.18829 1.54937 5.14849L4.711 0.956684C4.74544 0.911088 4.79415 0.878333 4.84937 0.863638C4.90459 0.848943 4.96315 0.853154 5.01569 0.8756Z" fill="#FFB13B"/>
</g>
<defs>
<clipPath id="clip0_0_1400">
<rect width="8.01791" height="8.01791" fill="white" transform="translate(0 0.855718) scale(1.02128) rotate(-6)"/>
</clipPath>
</defs>
</svg>
