<svg width="63" height="27" viewBox="0 0 63 27" fill="none" xmlns="http://www.w3.org/2000/svg">
<g clip-path="url(#clip0_0_1036)">
<path d="M11.7277 13.2587C11.6748 13.1972 11.6079 13.1495 11.5326 13.1196C11.4572 13.0896 11.3758 13.0784 11.2952 13.0869L4.47956 13.8032L3.75889 12.4823C3.66431 12.3083 3.5202 12.1664 3.34483 12.0744C3.16946 11.9824 2.97073 11.9446 2.77384 11.9657L1.61039 12.088L1.71522 13.0854L2.87867 12.9631L5.84119 18.392C5.88863 18.4789 5.96071 18.5497 6.04836 18.5957C6.136 18.6417 6.23529 18.6607 6.33371 18.6503L10.3232 18.231C10.5312 18.2091 10.7036 18.0604 10.7565 17.8587L11.8333 13.712C11.8536 13.6335 11.8546 13.5513 11.8363 13.4723C11.8179 13.3934 11.7806 13.3201 11.7277 13.2587ZM9.87281 17.2699L6.56151 17.618L5.0003 14.7569L10.6804 14.1599L9.87281 17.2699Z" fill="#121926"/>
<path d="M6.79182 20.6188C7.20494 20.5754 7.50465 20.2053 7.46123 19.7922C7.41781 19.379 7.0477 19.0793 6.63457 19.1227C6.22144 19.1662 5.92174 19.5363 5.96516 19.9494C6.00858 20.3625 6.37869 20.6622 6.79182 20.6188Z" fill="#121926"/>
<path d="M10.2833 20.2519C10.6964 20.2085 10.9961 19.8384 10.9527 19.4252C10.9093 19.0121 10.5392 18.7124 10.126 18.7558C9.71291 18.7992 9.41321 19.1693 9.45663 19.5825C9.50005 19.9956 9.87016 20.2953 10.2833 20.2519Z" fill="#121926"/>
<circle cx="11.1896" cy="12.0895" r="1.50431" transform="rotate(-6 11.1896 12.0895)" fill="#FF3E38" stroke="white" stroke-width="0.501119"/>
</g>
<rect x="19.9472" y="4.26564" width="20.7514" height="20.7514" rx="10.3691" transform="rotate(-6 19.9472 4.26564)" fill="white"/>
<g clip-path="url(#clip1_0_1036)">
<path d="M32.7508 10.2153C33.8815 10.0966 34.9562 11.0245 35.0939 12.334C35.1547 12.9131 34.9759 13.5374 34.6484 14.1632C34.322 14.7871 33.8584 15.3926 33.3795 15.9257C32.9014 16.4578 32.4134 16.9112 32.0449 17.2323C31.8609 17.3926 31.7073 17.5198 31.5998 17.6062C31.5834 17.6194 31.5677 17.6313 31.5535 17.6425C31.5373 17.6344 31.5193 17.6252 31.5006 17.6157C31.3774 17.553 31.2005 17.4607 30.9874 17.3415C30.5599 17.1023 29.9883 16.7576 29.4097 16.3351C28.83 15.9117 28.2499 15.4147 27.8009 14.8731C27.3505 14.3298 27.0472 13.7593 26.9869 13.1861C26.8492 11.8766 27.7075 10.7455 28.8382 10.6265C29.5633 10.5503 30.2506 10.881 30.688 11.4834L30.9431 11.8349L31.1195 11.4381C31.4222 10.7579 32.0257 10.2915 32.7508 10.2153Z" fill="white" stroke="black" stroke-width="0.501119"/>
</g>
<g clip-path="url(#clip2_0_1036)">
<path d="M59.2072 11.3717L59.0193 9.58342C58.8506 7.97914 57.619 6.74222 56.1001 6.49093C55.9153 6.13826 55.531 5.91647 55.1091 5.96081C54.6872 6.00515 54.3574 6.302 54.25 6.68539C52.8166 7.24747 51.869 8.71294 52.0376 10.3172L52.2256 12.1055L51.4638 13.0463C51.4222 13.0974 51.3912 13.1562 51.3725 13.2193C51.3538 13.2825 51.3477 13.3487 51.3547 13.4142L51.4595 14.4116C51.4734 14.5438 51.5393 14.6652 51.6427 14.7488C51.746 14.8325 51.8784 14.8717 52.0106 14.8578L59.9897 14.0192C60.1219 14.0053 60.2433 13.9394 60.327 13.8361C60.4106 13.7327 60.4499 13.6004 60.436 13.4681L60.3311 12.4707C60.3243 12.4052 60.3047 12.3417 60.2732 12.2838C60.2418 12.226 60.1992 12.1749 60.148 12.1335L59.2072 11.3717ZM59.3862 13.0743L52.4045 13.8081L52.3738 13.5158L53.1356 12.5751C53.1771 12.524 53.2081 12.4652 53.2269 12.402C53.2456 12.3389 53.2516 12.2726 53.2446 12.2072L53.035 10.2124C52.8905 8.83751 53.8915 7.60138 55.2664 7.45688C56.6412 7.31237 57.8774 8.31337 58.0219 9.68825L58.2315 11.683C58.2455 11.8157 58.3112 11.9368 58.4147 12.0202L59.3554 12.782L59.3862 13.0743ZM56.1574 15.9346C56.4663 15.9025 56.7575 15.775 56.9906 15.5698C57.2236 15.3646 57.387 15.0919 57.4579 14.7895L54.6473 15.0849C54.7795 15.3659 54.996 15.5987 55.2666 15.751C55.5372 15.9033 55.8486 15.9674 56.1574 15.9346Z" fill="#121926"/>
<circle cx="57.7601" cy="7.19483" r="1.50431" transform="rotate(-6 57.7601 7.19483)" fill="#FF3E38" stroke="white" stroke-width="0.501119"/>
</g>
<defs>
<clipPath id="clip0_0_1036">
<rect width="12.0269" height="12.0269" fill="white" transform="translate(0.455366 10.6967) scale(1.00063) rotate(-6)"/>
</clipPath>
<clipPath id="clip1_0_1036">
<rect width="11.8634" height="11.8634" fill="white" transform="translate(24.8526 8.00482) scale(1.00063) rotate(-6)"/>
</clipPath>
<clipPath id="clip2_0_1036">
<rect width="12.0269" height="12.0269" fill="white" transform="translate(49.0203 5.59241) scale(1.00063) rotate(-6)"/>
</clipPath>
</defs>
</svg>
