<svg width="23" height="23" viewBox="0 0 23 23" fill="none" xmlns="http://www.w3.org/2000/svg">
<rect y="2.18771" width="20.9271" height="20.9271" rx="10.3691" transform="rotate(-6 0 2.18771)" fill="white"/>
<g clip-path="url(#clip0_0_1690)">
<path d="M12.912 8.18796C14.0523 8.06827 15.1361 9.00406 15.2749 10.3247C15.3362 10.9087 15.1559 11.5382 14.8257 12.1693C14.4965 12.7985 14.029 13.4091 13.546 13.9467C13.0638 14.4834 12.5717 14.9406 12.2001 15.2644C12.0146 15.426 11.8596 15.5544 11.7513 15.6415C11.7347 15.6548 11.7189 15.6667 11.7046 15.6781C11.6883 15.6699 11.6701 15.6606 11.6512 15.651C11.527 15.5878 11.3486 15.4947 11.1336 15.3745C10.7025 15.1333 10.1261 14.7857 9.54262 14.3596C8.95801 13.9326 8.37304 13.4314 7.92017 12.8852C7.46596 12.3374 7.16009 11.762 7.09926 11.184C6.96046 9.86335 7.82599 8.72269 8.96628 8.60267C9.6975 8.52582 10.3906 8.85934 10.8318 9.46684L11.089 9.8213L11.2669 9.42111C11.5721 8.73516 12.1808 8.26482 12.912 8.18796Z" fill="white" stroke="black" stroke-width="0.501119"/>
</g>
<defs>
<clipPath id="clip0_0_1690">
<rect width="11.8634" height="11.8634" fill="white" transform="translate(4.94698 5.95855) scale(1.0091) rotate(-6)"/>
</clipPath>
</defs>
</svg>
