<svg width="61" height="65" viewBox="0 0 61 65" fill="none" xmlns="http://www.w3.org/2000/svg">
<path d="M37.4699 4.25066C39.2477 5.70364 40.3443 7.71751 40.7226 9.97979C40.9323 13.1261 40.3234 15.9809 39.2323 18.8713C39.1663 19.0462 39.3826 19.1965 39.5215 19.0714C42.6621 16.3258 45.705 14.3508 49.9897 14.6044C52.5364 14.8292 54.4401 15.8486 56.1906 17.7314C57.8827 19.9541 58.286 22.3523 58.0212 25.0635C57.5761 27.4638 56.2204 29.4953 54.2636 30.9293C51.7123 32.5547 48.8926 33.4143 45.9201 33.7714C45.7905 33.787 45.7722 33.9723 45.8967 34.0112C49.6813 35.2471 53.1729 36.9711 55.2669 40.4988C56.3947 42.8702 56.5885 45.1169 55.7752 47.6596C54.63 50.2814 52.8654 52.149 50.2037 53.2341C47.7107 53.9858 44.8863 53.6164 42.6001 52.4166C40.3361 50.9674 38.4466 49.1859 36.8149 47.0492C36.7087 46.9224 36.505 47.0324 36.5527 47.1907C36.5747 47.2636 36.5967 47.3369 36.619 47.4107C37.5341 50.8054 37.625 54.8776 35.8545 58.0271C34.7337 59.9403 33.099 61.4533 30.9894 62.1819C27.9737 62.9073 25.6477 62.7093 22.9641 61.1135C21.0307 59.7773 19.8832 57.9292 19.2664 55.6705C18.696 52.2513 19.5537 48.9125 20.7234 45.7247C20.7717 45.5931 20.6041 45.4874 20.5069 45.5885C17.8836 48.1896 14.6462 50.3533 10.842 50.4056C7.98335 50.2507 6.11889 49.5954 4.084 47.5766C2.67485 45.9799 1.68615 43.9815 1.71563 41.8127C1.91077 38.9463 2.42856 37.0304 4.49815 34.9542C7.05983 32.7194 9.94053 31.7704 13.1838 31.2267C13.4079 31.1892 13.4417 30.875 13.2295 30.7941C9.67502 29.4078 6.0812 27.675 4.40345 24.0156C4.247 23.6281 4.10033 23.2364 3.96391 22.8413C3.84739 22.5286 3.84739 22.5286 3.72852 22.2096C3.22842 20.1153 3.65836 17.475 4.73904 15.625C7.82541 11.4926 14.076 10.5541 18.3973 13.37C19.3263 13.9753 20.2306 14.7304 21.1569 15.654C21.571 16.1135 21.9728 16.5795 22.3642 17.0553C22.6281 17.3761 23.0908 17.229 22.9851 16.8273C22.247 13.3022 22.4451 9.17869 24.4264 6.09413C27.6134 1.73254 33.1489 1.25002 37.4699 4.25066Z" fill="#6D4500"/>
<g clip-path="url(#clip0_2158_10239)">
<path fill-rule="evenodd" clip-rule="evenodd" d="M32.0131 21.7981C33.305 21.8246 34.3323 22.9477 34.2169 24.2677L32.7266 41.3013C32.6111 42.6215 31.4044 43.549 30.1275 43.3507L29.8708 43.2957L21.9757 41.1286C20.918 40.8381 20.2232 39.8306 20.3186 38.7394L21.5524 24.6361C21.648 23.545 22.5072 22.6734 23.5993 22.571L31.7507 21.8077L32.0131 21.7981ZM29.7986 31.4526C29.2447 31.4041 28.7564 31.8138 28.708 32.3677L28.7071 32.3775L28.703 32.4808C28.7101 32.991 29.103 33.4228 29.6223 33.4682C30.1416 33.5136 30.6034 33.1567 30.699 32.6554L30.7129 32.553L30.7138 32.5432C30.7622 31.9893 30.3525 31.501 29.7986 31.4526Z" fill="white"/>
<path d="M35.8883 39.8172L37.0728 26.278L36.0699 26.1902C35.516 26.1418 35.1063 25.6535 35.1548 25.0996C35.2032 24.5457 35.6915 24.136 36.2454 24.1844L37.2483 24.2722C38.3561 24.3691 39.1756 25.3457 39.0786 26.4535L37.8941 39.9927C37.7972 41.1004 36.8206 41.9199 35.7128 41.823L34.7099 41.7352C34.156 41.6868 33.7463 41.1985 33.7948 40.6446C33.8432 40.0907 34.3315 39.681 34.8854 39.7294L35.8883 39.8172Z" fill="white"/>
</g>
<defs>
<clipPath id="clip0_2158_10239">
<rect width="24" height="24" fill="white" transform="translate(18.7288 19.3677) scale(1.00673) rotate(5)"/>
</clipPath>
</defs>
</svg>
