<svg width="7" height="7" viewBox="0 0 7 7" fill="none" xmlns="http://www.w3.org/2000/svg">
<g clip-path="url(#clip0_0_778)">
<path fill-rule="evenodd" clip-rule="evenodd" d="M4.0484 2.30868C3.93618 1.83983 3.29918 1.79528 3.1228 2.24396C3.10811 2.28131 3.07505 2.29879 3.04596 2.29676C2.56202 2.26292 2.34852 2.87051 2.69522 3.17071C2.72144 3.19341 2.73326 3.23485 2.7182 3.27317C2.63213 3.49211 2.70804 3.70875 2.85432 3.83541C3.00151 3.96286 3.22938 4.00594 3.43075 3.87572C3.4581 3.85804 3.49173 3.86039 3.51635 3.88171C3.69764 4.03868 3.92928 4.02774 4.09278 3.92202C4.25527 3.81694 4.36059 3.61298 4.30583 3.38419C4.29624 3.34414 4.31372 3.30475 4.34283 3.28593C4.72795 3.03689 4.60108 2.40551 4.11714 2.37166C4.08805 2.36963 4.05774 2.34771 4.0484 2.30868ZM3.50423 2.3939C3.53391 2.31841 3.63093 2.32519 3.64981 2.40408C3.6991 2.61001 3.87367 2.76549 4.08855 2.78052C4.10949 2.78198 4.12247 2.78913 4.13191 2.79782C4.14268 2.80773 4.15247 2.82337 4.15729 2.8435C4.16702 2.88416 4.15367 2.92017 4.12028 2.94176C3.94166 3.05727 3.85819 3.27468 3.90723 3.47959C3.91802 3.52467 3.89987 3.55868 3.87022 3.57785C3.85505 3.58767 3.83968 3.59132 3.82711 3.59083C3.81627 3.59041 3.80197 3.58688 3.78463 3.57187C3.62223 3.43125 3.38859 3.41491 3.2082 3.53156C3.18894 3.54401 3.17428 3.54552 3.16349 3.54443C3.15098 3.54316 3.13627 3.5374 3.12261 3.52557C3.09592 3.50246 3.08268 3.46626 3.09963 3.42312C3.17672 3.22703 3.12432 3.00011 2.96351 2.86087C2.93345 2.83484 2.92524 2.79733 2.94054 2.75842C2.94811 2.73915 2.95998 2.72503 2.97202 2.71672C2.98258 2.70942 2.99643 2.70415 3.01737 2.70561C3.23226 2.72064 3.42677 2.59097 3.50423 2.3939Z" fill="#FFBE5A"/>
<path fill-rule="evenodd" clip-rule="evenodd" d="M3.66088 0.566318C3.1958 0.533723 2.91201 0.513833 2.67017 0.574129C2.1822 0.695795 1.78196 1.04372 1.59356 1.51001L1.5907 1.51717L1.5111 1.5116C0.501089 1.44097 -0.0224063 2.69227 0.737002 3.3619L0.73975 3.36433L1.37879 3.88844C1.40195 3.90744 1.42612 3.92512 1.4512 3.94141C1.4515 3.94241 1.45181 3.94342 1.45211 3.94442C1.45425 3.95144 1.45646 3.95846 1.45873 3.96547C1.51627 4.14331 1.63769 4.36037 1.75912 4.50247C1.95701 4.73406 2.17077 4.84556 2.5121 5.02362L2.53479 5.03545C2.68181 5.11217 2.83095 5.18287 2.97027 5.23658C3.03625 5.26201 3.10305 5.28485 3.16858 5.30264L3.11937 6.00648L2.23352 5.94453C2.12062 5.93664 2.02269 6.02176 2.0148 6.13467C2.0069 6.24757 2.09203 6.34549 2.20493 6.35339L4.38547 6.50587C4.49838 6.51376 4.5963 6.42864 4.6042 6.31573C4.61209 6.20283 4.52697 6.10491 4.41406 6.09701L3.52822 6.03507L3.57743 5.33123C3.6448 5.32273 3.71414 5.30942 3.78302 5.29341C3.92845 5.25961 4.08598 5.21036 4.24225 5.15485L4.26636 5.14629C4.62915 5.01747 4.85635 4.9368 5.08454 4.73501C5.22457 4.61119 5.37501 4.41314 5.45675 4.24504C5.46033 4.23767 5.46383 4.23028 5.46726 4.22288C5.49496 4.20959 5.522 4.19492 5.54827 4.17891L6.25243 3.74981L6.25549 3.74779C7.1007 3.19037 6.75645 1.87839 5.74643 1.80776L5.66679 1.80219L5.66496 1.79471C5.54329 1.30674 5.19537 0.906496 4.72907 0.718101C4.49799 0.624736 4.21418 0.604935 3.7491 0.572487L3.66088 0.566318ZM1.0055 3.05222C0.54382 2.64124 0.864626 1.87725 1.48251 1.92045L1.49677 1.92145C1.47659 2.0803 1.46322 2.27157 1.44647 2.51122L1.41788 2.92005C1.40595 3.09042 1.39565 3.23734 1.39195 3.36917L1.0055 3.05222ZM6.03271 3.40375L5.60586 3.66386C5.62054 3.53286 5.63079 3.386 5.64267 3.21573L5.67128 2.80663C5.68804 2.56701 5.70143 2.37572 5.70355 2.21562L5.71784 2.21662C6.33573 2.25982 6.54708 3.06103 6.03271 3.40375ZM2.76933 0.971805C2.93985 0.929289 3.15316 0.941671 3.6764 0.97826C4.19964 1.01485 4.4126 1.03227 4.57554 1.09811C4.92019 1.23736 5.17735 1.53319 5.26728 1.89386C5.27633 1.93015 5.28304 1.96965 5.28748 2.01522C5.30353 2.18003 5.28888 2.39976 5.26083 2.80094L5.23604 3.15538C5.20465 3.60432 5.18795 3.81403 5.11953 3.99337C5.11019 4.01786 5.0998 4.04186 5.08815 4.06583C5.03004 4.18534 4.9126 4.33995 4.81305 4.42798C4.64971 4.57242 4.49729 4.62931 4.10506 4.76864C3.95726 4.82114 3.81544 4.8651 3.69024 4.8942C3.56198 4.924 3.46437 4.935 3.40003 4.9305C3.33569 4.926 3.24056 4.90153 3.1177 4.85416C2.99776 4.80792 2.86345 4.74466 2.72439 4.6721C2.35537 4.47953 2.21235 4.40198 2.0707 4.23622C1.98437 4.13519 1.88959 3.96574 1.84868 3.8393C1.84023 3.8132 1.83312 3.78724 1.82717 3.76089C1.78499 3.57423 1.79768 3.36416 1.82894 2.91713L1.85372 2.56269C1.88178 2.16151 1.89785 1.94188 1.93668 1.78091C1.94742 1.7364 1.95956 1.69822 1.97357 1.66355C2.11282 1.31889 2.40865 1.06173 2.76933 0.971805Z" fill="#FFBE5A"/>
</g>
<defs>
<clipPath id="clip0_0_778">
<rect width="6.20906" height="6.20906" fill="white" transform="translate(0.457934) scale(1.05614) rotate(4)"/>
</clipPath>
</defs>
</svg>
