<svg width="16" height="16" viewBox="0 0 16 16" fill="none" xmlns="http://www.w3.org/2000/svg">
<path fill-rule="evenodd" clip-rule="evenodd" d="M8.00032 0.83329C6.98779 0.83329 6.16697 1.65411 6.16697 2.66664C6.16697 3.67918 6.98779 4.5 8.00032 4.5C9.01286 4.5 9.83368 3.67918 9.83368 2.66664C9.83368 1.65411 9.01286 0.83329 8.00032 0.83329ZM7.16698 2.66664C7.16698 2.2064 7.54008 1.8333 8.00032 1.8333C8.46057 1.8333 8.83367 2.2064 8.83367 2.66664C8.83367 3.12689 8.46057 3.49999 8.00032 3.49999C7.54008 3.49999 7.16698 3.12689 7.16698 2.66664Z" fill="white"/>
<path fill-rule="evenodd" clip-rule="evenodd" d="M8.00032 6.16669C6.98779 6.16669 6.16697 6.98751 6.16697 8.00004C6.16697 9.01257 6.98779 9.83339 8.00032 9.83339C9.01286 9.83339 9.83368 9.01257 9.83368 8.00004C9.83368 6.98751 9.01286 6.16669 8.00032 6.16669ZM7.16698 8.00004C7.16698 7.5398 7.54008 7.1667 8.00032 7.1667C8.46057 7.1667 8.83367 7.5398 8.83367 8.00004C8.83367 8.46028 8.46057 8.83338 8.00032 8.83338C7.54008 8.83338 7.16698 8.46028 7.16698 8.00004Z" fill="white"/>
<path fill-rule="evenodd" clip-rule="evenodd" d="M8.00032 11.5001C6.98779 11.5001 6.16697 12.3209 6.16697 13.3334C6.16697 14.346 6.98779 15.1668 8.00032 15.1668C9.01286 15.1668 9.83368 14.346 9.83368 13.3334C9.83368 12.3209 9.01286 11.5001 8.00032 11.5001ZM7.16698 13.3334C7.16698 12.8732 7.54008 12.5001 8.00032 12.5001C8.46057 12.5001 8.83367 12.8732 8.83367 13.3334C8.83367 13.7937 8.46057 14.1668 8.00032 14.1668C7.54008 14.1668 7.16698 13.7937 7.16698 13.3334Z" fill="white"/>
</svg>
