<svg width="14" height="14" viewBox="0 0 14 14" fill="none" xmlns="http://www.w3.org/2000/svg">
<path d="M8.54859 4.66103C8.72011 4.51327 8.73937 4.25445 8.59161 4.08293C8.44385 3.91141 8.18503 3.89215 8.01351 4.03991L6.96717 4.94131C6.57308 5.2808 6.25099 5.55827 6.01877 5.80933C5.77729 6.0704 5.59685 6.33991 5.53033 6.67391C5.50116 6.82036 5.49071 6.9699 5.49921 7.11898C5.5186 7.45899 5.65977 7.75099 5.86256 8.04313C6.05758 8.32406 6.33792 8.64365 6.68093 9.03469L7.59164 10.0729C7.74092 10.2431 7.99991 10.2601 8.1701 10.1108C8.34029 9.96152 8.35724 9.70253 8.20796 9.53234L7.31338 8.51246C6.95031 8.09855 6.70133 7.81375 6.53602 7.57562C6.37545 7.34431 6.32495 7.19942 6.3177 7.07231C6.31315 6.99249 6.31875 6.91245 6.33436 6.83404C6.35923 6.70918 6.42941 6.57272 6.62061 6.36601C6.81744 6.15321 7.10364 5.90584 7.52078 5.54648L8.54859 4.66103Z" fill="#FAFAFA"/>
</svg>
