<svg width="10" height="10" viewBox="0 0 10 10" fill="none" xmlns="http://www.w3.org/2000/svg">
<g clip-path="url(#clip0_0_1801)">
<path d="M6.27058 2.57894L6.04437 2.60272C6.11878 3.31069 5.60517 3.94494 4.8972 4.01935L4.92098 4.24557L4.94475 4.47178C5.9026 4.37111 6.59747 3.51301 6.4968 2.55517L6.27058 2.57894ZM4.92098 4.24557L4.8972 4.01935C4.18923 4.09376 3.55498 3.58016 3.48057 2.87219L3.25436 2.89596L3.02814 2.91974C3.12881 3.87758 3.98691 4.57246 4.94475 4.47178L4.92098 4.24557ZM3.25436 2.89596L3.48057 2.87219C3.40616 2.16421 3.91977 1.52997 4.62774 1.45556L4.60396 1.22934L4.58018 1.00312C3.62234 1.1038 2.92747 1.96189 3.02814 2.91974L3.25436 2.89596ZM4.60396 1.22934L4.62774 1.45556C5.33571 1.38115 5.96995 1.89475 6.04437 2.60272L6.27058 2.57894L6.4968 2.55517C6.39613 1.59732 5.53803 0.90245 4.58018 1.00312L4.60396 1.22934ZM3.90878 5.49553L3.93255 5.72175L6.19472 5.48399L6.17094 5.25777L6.14717 5.03155L3.885 5.26931L3.90878 5.49553ZM6.48796 8.27399L6.46419 8.04778L4.20202 8.28554L4.22579 8.51176L4.24957 8.73797L6.51174 8.50021L6.48796 8.27399ZM4.22579 8.51176L4.20202 8.28554C3.49405 8.35995 2.8598 7.84635 2.78539 7.13838L2.55917 7.16215L2.33295 7.18593C2.43363 8.14377 3.29173 8.83865 4.24957 8.73797L4.22579 8.51176ZM7.83757 6.60737L7.61135 6.63115C7.68576 7.33912 7.17216 7.97337 6.46419 8.04778L6.48796 8.27399L6.51174 8.50021C7.46958 8.39954 8.16446 7.54144 8.06378 6.5836L7.83757 6.60737ZM6.17094 5.25777L6.19472 5.48399C6.90269 5.40957 7.53694 5.92318 7.61135 6.63115L7.83757 6.60737L8.06378 6.5836C7.96311 5.62575 7.10501 4.93088 6.14717 5.03155L6.17094 5.25777ZM3.90878 5.49553L3.885 5.26931C2.92716 5.36999 2.23228 6.22809 2.33295 7.18593L2.55917 7.16215L2.78539 7.13838C2.71098 6.43041 3.22458 5.79616 3.93255 5.72175L3.90878 5.49553Z" fill="#FAFAFA"/>
</g>
<defs>
<clipPath id="clip0_0_1801">
<rect width="8.97679" height="8.97679" fill="white" transform="translate(0 0.950955) scale(1.01356) rotate(-6)"/>
</clipPath>
</defs>
</svg>
