<svg width="15" height="15" viewBox="0 0 15 15" fill="none" xmlns="http://www.w3.org/2000/svg">
<path d="M7.91801 4.53097C8.05424 4.36428 8.02953 4.11871 7.86284 3.98249C7.69614 3.84626 7.45058 3.87097 7.31435 4.03766L6.48333 5.05458C6.17033 5.43758 5.91451 5.75061 5.7385 6.02407C5.55547 6.30843 5.431 6.59061 5.42385 6.91438C5.42072 7.05635 5.43562 7.19811 5.4682 7.33633C5.54251 7.65154 5.72292 7.90168 5.96108 8.14177C6.1901 8.37265 6.5054 8.62565 6.89119 8.93521L7.91549 9.75713C8.0834 9.89186 8.32873 9.86497 8.46346 9.69706C8.59819 9.52916 8.5713 9.28382 8.4034 9.14909L7.39723 8.34172C6.98888 8.01405 6.70868 7.78846 6.51456 7.59275C6.32599 7.40265 6.25477 7.2753 6.227 7.15746C6.20955 7.08347 6.20158 7.00758 6.20326 6.93158C6.20593 6.81054 6.24911 6.67116 6.39403 6.44601C6.54322 6.21423 6.7704 5.9353 7.1017 5.52989L7.91801 4.53097Z" fill="#FAFAFA"/>
</svg>
