<svg width="16" height="16" viewBox="0 0 16 16" fill="none" xmlns="http://www.w3.org/2000/svg">
<path fill-rule="evenodd" clip-rule="evenodd" d="M14.9795 4.90968C15.387 2.78526 13.5219 0.92016 11.3974 1.32759L5.29799 2.49737C3.97209 2.75165 2.91171 3.7553 2.57482 5.05943C1.90221 7.66318 4.31693 10.0428 6.90969 9.28036C6.98129 9.25931 7.04781 9.32583 7.02676 9.39743C6.2643 11.9902 8.64394 14.4049 11.2477 13.7323C12.5518 13.3954 13.5555 12.335 13.8098 11.0091L14.9795 4.90968ZM11.5858 2.3097C13.016 2.0354 14.2717 3.29107 13.9974 4.72133L12.8277 10.8208C12.6468 11.7641 11.9306 12.5231 10.9976 12.7641C9.13282 13.2458 7.44653 11.5145 7.98614 9.67956C8.2305 8.84863 7.45849 8.07662 6.62755 8.32098C4.7926 8.8606 3.06134 7.17431 3.54305 5.30954C3.78406 4.37658 4.54308 3.66038 5.48635 3.47948L11.5858 2.3097Z" fill="black"/>
<path d="M3.29651 10.8893C3.49178 10.694 3.49178 10.3774 3.29651 10.1822C3.10125 9.9869 2.78466 9.9869 2.5894 10.1822L1.64658 11.125C1.45131 11.3202 1.45131 11.6368 1.64658 11.8321C1.84184 12.0274 2.15843 12.0274 2.35369 11.8321L3.29651 10.8893Z" fill="black"/>
<path d="M5.65356 11.3607C5.84883 11.1654 5.84883 10.8488 5.65356 10.6536C5.4583 10.4583 5.14171 10.4583 4.94645 10.6536L4.00363 11.5964C3.80836 11.7917 3.80836 12.1082 4.00363 12.3035C4.19889 12.4988 4.51548 12.4988 4.71074 12.3035L5.65356 11.3607Z" fill="black"/>
<path d="M6.12497 13.7177C6.32024 13.5225 6.32024 13.2059 6.12497 13.0106C5.92971 12.8154 5.61312 12.8154 5.41786 13.0106L4.47504 13.9534C4.27977 14.1487 4.27977 14.4653 4.47504 14.6606C4.6703 14.8558 4.98689 14.8558 5.18215 14.6606L6.12497 13.7177Z" fill="black"/>
</svg>
