<svg width="21" height="21" viewBox="0 0 21 21" fill="none" xmlns="http://www.w3.org/2000/svg">
<path d="M12.7119 6.59086C12.9693 6.33573 12.9712 5.92022 12.7161 5.6628C12.4609 5.40538 12.0454 5.40353 11.788 5.65866L10.2176 7.21508C9.62617 7.80127 9.14276 8.28037 8.79994 8.70725C8.44344 9.15116 8.18538 9.60172 8.11644 10.1426C8.08621 10.3797 8.08621 10.6197 8.11644 10.8568C8.18538 11.3977 8.44344 11.8482 8.79994 12.2921C9.14276 12.719 9.62616 13.1981 10.2176 13.7843L11.788 15.3407C12.0454 15.5959 12.4609 15.594 12.7161 15.3366C12.9712 15.0792 12.9693 14.6637 12.7119 14.4085L11.1693 12.8797C10.5433 12.2592 10.1139 11.8322 9.82327 11.4703C9.541 11.1188 9.44416 10.8931 9.41839 10.6909C9.40221 10.5639 9.40221 10.4355 9.41839 10.3085C9.44416 10.1063 9.541 9.88056 9.82327 9.52908C10.1139 9.16725 10.5433 8.74022 11.1693 8.11973L12.7119 6.59086Z" fill="white"/>
</svg>
