<svg width="61" height="61" viewBox="0 0 61 61" fill="none" xmlns="http://www.w3.org/2000/svg">
<g clip-path="url(#clip0_2158_10191)">
<path d="M59.0182 29.1046L58.0367 30.5028L58.2586 31.4375C56.5382 29.4226 52.7776 31.4863 50.3241 30.404C49.5842 30.0769 50.1138 29.3573 50.4713 29.3327C50.5584 29.3258 51.3957 29.7921 52.1797 29.8047C52.8517 29.812 55.9917 29.9588 56.0643 29.2832C50.7207 24.9787 45.1178 21.7464 38.4351 20.0624C24.8233 16.6246 11.08 21.1207 0.601298 30.1706C14.2869 15.0421 38.8925 14.4686 54.4982 27.1115C54.9778 25.966 51.4458 24.2171 52.9085 23.0889L59.0152 29.1016L59.0182 29.1046Z" fill="#EB0B7B"/>
</g>
<defs>
<clipPath id="clip0_2158_10191">
<rect width="42.7011" height="42.7011" fill="white" transform="matrix(0.719806 0.708727 0.708727 -0.719806 0 30.7365)"/>
</clipPath>
</defs>
</svg>
