<svg width="40" height="40" viewBox="0 0 40 40" fill="none" xmlns="http://www.w3.org/2000/svg">
<g clip-path="url(#clip0_2158_10341)">
<path d="M8.8808 38.281L10.1526 38.1348L10.6887 38.6152C9.97722 36.7616 12.6813 35.0234 12.8462 33.0206C12.8954 32.4164 12.2322 32.5077 12.0881 32.7344C12.0524 32.7892 12.06 33.5074 11.7878 34.0282C11.5523 34.4733 10.5258 36.5936 10.055 36.3997C9.13167 31.3413 9.00724 26.4956 10.2886 21.4926C12.8934 11.2994 20.7698 3.85753 30.4773 0.194115C15.6199 3.79508 6.44141 19.793 9.18501 34.5917C8.25921 34.4977 8.37081 31.5463 7.10472 32.106L8.8799 38.2779L8.8808 38.281Z" fill="white"/>
</g>
<defs>
<clipPath id="clip0_2158_10341">
<rect width="32" height="32" fill="white" transform="translate(31.0646) scale(1.01014) rotate(73.9535)"/>
</clipPath>
</defs>
</svg>
