<svg width="12" height="12" viewBox="0 0 12 12" fill="none" xmlns="http://www.w3.org/2000/svg">
<g clip-path="url(#clip0_0_1080)">
<path d="M7.81009 5.80971L7.52477 3.09504C7.41934 2.09197 6.52594 1.36064 5.53327 1.46498C5.50206 1.46826 5.47036 1.47571 5.4399 1.48623C4.48593 1.63224 3.8033 2.50588 3.90521 3.47547L4.19053 6.19014C4.29544 7.18823 5.19243 7.91461 6.19053 7.8097C7.18862 7.7048 7.91499 6.8078 7.81009 5.80971ZM5.09542 6.09503L4.8101 3.38036C4.75765 2.88132 5.12083 2.43282 5.61988 2.38037C5.64476 2.37775 5.66896 2.37292 5.69291 2.36583C6.16024 2.35102 6.56923 2.70829 6.61988 3.19015L6.9052 5.90482C6.95765 6.40386 6.59446 6.85236 6.09542 6.90481C5.59637 6.95726 5.14787 6.59408 5.09542 6.09503Z" fill="#CDD5DF"/>
<path d="M3.28585 6.28549L2.38096 6.3806C2.5746 8.22296 4.1195 9.59942 5.92522 9.63606L6.02361 10.5722L6.9285 10.4771L6.83011 9.54096C8.58875 9.12968 9.81376 7.46255 9.62007 5.61974L8.71518 5.71485C8.87254 7.21199 7.78298 8.55748 6.28584 8.71484C4.7887 8.8722 3.4432 7.78263 3.28585 6.28549Z" fill="#CDD5DF"/>
</g>
<defs>
<clipPath id="clip0_0_1080">
<rect width="10.0224" height="10.0224" fill="white" transform="translate(0 1.14127) scale(1.08941) rotate(-6)"/>
</clipPath>
</defs>
</svg>
