<svg width="40" height="40" viewBox="0 0 40 40" fill="none" xmlns="http://www.w3.org/2000/svg">
<g clip-path="url(#clip0_2158_10426)">
<path d="M31.1192 38.281L29.8474 38.1348L29.3113 38.6152C30.0228 36.7616 27.3187 35.0234 27.1538 33.0206C27.1046 32.4164 27.7678 32.5077 27.9119 32.7344C27.9476 32.7892 27.94 33.5074 28.2122 34.0282C28.4477 34.4733 29.4742 36.5936 29.945 36.3997C30.8683 31.3413 30.9928 26.4956 29.7114 21.4926C27.1066 11.2994 19.2302 3.85753 9.52275 0.194115C24.3801 3.79508 33.5586 19.793 30.815 34.5917C31.7408 34.4977 31.6292 31.5463 32.8953 32.106L31.1201 38.2779L31.1192 38.281Z" fill="white"/>
</g>
<defs>
<clipPath id="clip0_2158_10426">
<rect width="32" height="32" fill="white" transform="matrix(-0.279219 0.970779 0.970779 0.279219 8.93536 0)"/>
</clipPath>
</defs>
</svg>
