<svg width="12" height="12" viewBox="0 0 12 12" fill="none" xmlns="http://www.w3.org/2000/svg">
<g clip-path="url(#clip0_0_1086)">
<path d="M5.85753 4.64266C5.12186 4.71998 4.56554 5.40698 4.64286 6.14265C4.72018 6.87833 5.40718 7.43465 6.14286 7.35733C6.87853 7.28 7.43485 6.593 7.35753 5.85733C7.28021 5.12165 6.59321 4.56533 5.85753 4.64266Z" fill="white"/>
<path d="M9.28671 2.45251L8.11669 2.57549L6.76319 1.47945C6.66965 1.40328 6.54973 1.36785 6.42938 1.3805L4.6196 1.57072C4.49925 1.58337 4.38932 1.64295 4.31366 1.73691L3.21762 3.0904L2.0476 3.21338C1.54855 3.26583 1.18536 3.71433 1.23781 4.21337L1.76091 9.19027C1.81336 9.68931 2.26186 10.0525 2.7609 10L10 9.23919C10.4991 9.18673 10.8623 8.73824 10.8098 8.23919L10.2867 3.2623C10.2343 2.76325 9.78576 2.40006 9.28671 2.45251ZM6.2378 8.26228C5.01167 8.39115 3.86668 7.46395 3.73781 6.23783C3.60894 5.0117 4.53614 3.86671 5.76226 3.73784C6.98839 3.60896 8.13338 4.53616 8.26225 5.76229C8.39112 6.98841 7.46392 8.13341 6.2378 8.26228Z" fill="white"/>
</g>
<defs>
<clipPath id="clip0_0_1086">
<rect width="10.0224" height="10.0224" fill="white" transform="translate(0 1.14127) scale(1.08941) rotate(-6)"/>
</clipPath>
</defs>
</svg>
