<svg width="12" height="12" viewBox="0 0 12 12" fill="none" xmlns="http://www.w3.org/2000/svg">
<g clip-path="url(#clip0_0_1077)">
<path d="M5.38046 8.80984C6.21568 8.72205 6.95328 8.35405 7.51581 7.81324L9.71381 9.59314L10.2863 8.88614L8.08833 7.10624C8.50077 6.44305 8.70737 5.64506 8.61959 4.80985C8.40983 2.81411 6.61534 1.36096 4.6196 1.57072C2.62387 1.78048 1.17072 3.57497 1.38048 5.57071C1.59024 7.56644 3.38473 9.0196 5.38046 8.80984ZM4.71471 2.47561C6.21185 2.31825 7.55735 3.40781 7.7147 4.90495C7.87206 6.40209 6.7825 7.74759 5.28536 7.90495C3.78822 8.0623 2.44272 6.97274 2.28536 5.4756C2.12801 3.97846 3.21757 2.63296 4.71471 2.47561Z" fill="#CDD5DF"/>
</g>
<defs>
<clipPath id="clip0_0_1077">
<rect width="10.0224" height="10.0224" fill="white" transform="translate(0 1.14154) scale(1.08941) rotate(-6)"/>
</clipPath>
</defs>
</svg>
