<svg width="186" height="48" viewBox="0 0 186 48" fill="none" xmlns="http://www.w3.org/2000/svg">
<g clip-path="url(#clip0_2158_10894)">
<path d="M32.2491 30.3545C30.8528 30.9349 29.508 31.6261 28.2818 32.3406C23.9451 34.9242 20.363 38.0569 16.4998 41.2954C14.5222 42.9534 12.6298 44.7501 10.451 46.1484C9.02248 47.0651 7.24155 47.7138 5.52607 47.4204C2.27119 46.8637 1.47891 42.8611 2.76975 40.2566C3.76828 38.2414 5.79017 36.941 7.72826 35.9442C8.86053 35.3618 10.0385 34.8706 11.2334 34.4321C22.307 30.3692 32.2491 30.3542 32.2491 30.3545Z" fill="#EB0B7B"/>
<path d="M13.5723 8.0918C14.7655 9.02092 16.0295 9.85044 17.2555 10.5654C21.6406 13.0661 26.1316 14.6397 30.8531 16.4056C33.2703 17.3097 35.7662 18.0709 38.0564 19.2779C39.558 20.0694 40.9998 21.2995 41.5898 22.9366C42.7094 26.0433 39.6167 28.7049 36.7142 28.8651C34.4686 28.9893 32.3409 27.8705 30.5185 26.6751C29.454 25.9767 28.4458 25.1938 27.4758 24.3702C18.4839 16.736 13.572 8.09208 13.5723 8.09208V8.0918Z" fill="#EF9D13"/>
<path d="M3.38007 36.6916C3.61821 35.111 3.72599 33.5146 3.74743 32.0113C3.77113 26.6635 2.87558 21.6843 2.03816 16.3935C1.60929 13.6848 1.00662 10.975 0.926489 8.23168C0.874009 6.43297 1.26168 4.46893 2.47606 3.09316C4.78038 0.482703 8.88426 2.02183 10.5591 4.64583C11.8547 6.67591 11.9315 9.22316 11.7763 11.5244C11.6857 12.8688 11.4863 14.2031 11.2292 15.5227C8.84702 27.7534 3.37979 36.6916 3.37951 36.6916H3.38007Z" fill="#201B6D"/>
<path d="M3.10037 37.8291C9.19482 30.3439 28.2843 28.8282 37.5727 28.8751C34.3911 29.2585 31.0544 30.7421 28.3114 32.3404C23.9744 34.9238 20.3925 38.0568 16.5293 41.2953C14.5517 42.9532 12.6593 44.75 10.4806 46.1483C4.05347 50.65 -0.994766 43.5827 3.10037 37.8294V37.8291Z" stroke="#1E1E1E" stroke-width="0.846451" stroke-linejoin="round"/>
<path d="M35.3349 28.8869C25.8186 27.2719 15.0935 11.4074 10.5576 3.30176C12.459 5.88146 15.394 8.05374 18.1365 9.65325C22.5214 12.1542 27.0126 13.7275 31.7341 15.4935C34.1513 16.3975 36.6472 17.1587 38.9374 18.3658C46.0217 21.7403 42.3594 29.6157 35.3349 28.8869Z" stroke="#1E1E1E" stroke-width="0.846451" stroke-linejoin="round"/>
<path d="M11.3375 4.62735C14.8966 13.5997 6.90355 31.0014 2.3296 39.0855C3.54765 36.1213 3.88115 32.4849 3.82472 29.311C3.68647 24.265 2.70007 19.6095 1.75881 14.657C1.2769 12.1218 0.632186 9.59319 0.475029 7.00926C-0.317814 -0.797563 8.3143 -1.7549 11.3375 4.62735Z" stroke="#1E1E1E" stroke-width="0.846451" stroke-linejoin="round"/>
<path d="M13.0938 18.3047L12.2256 29.0673C12.1898 29.5114 12.6483 29.8277 13.0506 29.6367L22.8054 25.0072C23.208 24.8162 23.2526 24.2609 22.8861 24.0078L13.9995 17.8747C13.6327 17.6216 13.1296 17.8603 13.0938 18.3044V18.3047Z" fill="#1E1E1E"/>
<path opacity="0.9" d="M13.0547 28.9057L22.2361 24.5439" stroke="white" stroke-width="0.338581" stroke-linecap="round" stroke-linejoin="round"/>
</g>
<path d="M58.6262 7.01522C59.032 6.94273 62.1003 6.98921 62.6545 6.99006L71.9564 6.99521L71.954 11.3666L63.0297 11.3749C61.4446 11.3734 59.7803 11.307 58.2098 11.4858C56.8349 11.6289 55.9812 12.9799 56.0201 14.3096C56.1117 17.4359 58.9685 17.2199 61.1776 17.2813C64.7004 17.3819 69.1858 16.6709 71.9576 19.3107C74.4374 21.6724 74.4405 27.3412 72.0146 29.7462C70.2667 31.479 67.9896 31.8043 65.6297 31.8114L52.1021 31.812C52.0961 30.3644 52.0981 28.9167 52.1082 27.469L61.2345 27.4733C62.9378 27.4734 64.6943 27.491 66.3921 27.4566C67.2422 27.4394 68.2113 27.0772 68.7605 26.4355C69.2489 25.8625 69.5711 24.8305 69.4637 24.0763C69.0687 21.3008 66.6754 21.3597 64.4613 21.358L60.9902 21.3618C58.4578 21.3642 55.9109 21.388 53.824 19.6494C52.5138 18.4894 51.8394 16.9331 51.7052 15.2274C51.3076 10.1756 53.5359 7.4201 58.6262 7.01522Z" fill="#1E1E1E"/>
<path d="M94.8634 6.97168C96.2329 7.01782 97.7376 6.98651 99.1168 6.98525L99.1274 11.2981L99.1302 23.0163C99.1228 25.4384 98.9449 27.9566 97.1171 29.7745C95.0799 31.8006 92.4657 31.8131 89.8004 31.8153L86.3537 31.8146C80.8568 31.7967 77.7864 29.6767 77.8275 23.8382C77.8382 22.3024 77.8264 20.6699 77.8262 19.1268L77.8365 6.98315L82.2218 7.00019C82.2395 7.78134 82.2271 8.57423 82.2277 9.35691C82.2307 13.133 82.2265 16.908 82.2238 20.6842C82.2592 21.9225 82.1362 23.2158 82.3396 24.4394C82.9201 27.9306 86.0222 27.4539 88.6703 27.4749C91.1125 27.4943 93.9963 27.7948 94.6818 24.7202C94.83 23.9054 94.8341 23.0766 94.834 22.2513C94.8334 19.0954 94.8164 15.9368 94.8273 12.7811C94.8339 10.8509 94.7968 8.89844 94.8634 6.97168Z" fill="#1E1E1E"/>
<path d="M103.164 6.96387L107.565 6.98493L107.564 18.2132C107.562 20.2277 107.447 22.458 107.671 24.4303C107.999 27.3154 110.515 27.5193 112.775 27.46C116.251 27.3689 120.082 28.257 120.13 23.3306C120.183 17.871 120.039 12.4058 120.151 6.96743L124.377 6.98709L124.374 11.3522L124.371 23.925C124.309 30.4406 120.561 32.0354 114.651 31.8009C111.401 31.6719 107.681 32.3629 105.073 29.7538C103.561 28.241 103.165 26.1397 103.15 24.0818C103.179 18.3806 103.081 12.6634 103.164 6.96387Z" fill="#1E1E1E"/>
<path d="M128.377 6.78809C129.905 6.82435 131.518 6.807 133.052 6.81182C133.588 7.73212 133.907 8.9177 134.295 9.92562C136.37 15.3284 138.376 20.7615 140.46 26.1612C140.64 26.5278 140.863 27.3236 141.284 27.4642C142.1 27.7365 142.635 27.4269 142.98 26.6985C143.516 25.5668 143.92 24.4193 144.368 23.2629L146.102 18.8944C147.653 14.8425 149.264 10.8135 150.933 6.80891C152.524 6.78951 154.146 6.8034 155.739 6.80165C155.565 7.60306 154.817 9.2739 154.475 10.0947C154.115 11.1322 153.577 12.3187 153.168 13.3652L149.609 22.3214L147.727 27.0889C146.868 29.2151 146.251 31.319 143.7 31.8062C142.073 32.1235 139.857 32.1264 138.41 31.1972C136.618 30.0461 136 27.2025 135.277 25.2849L131.913 16.375C131.356 14.8775 130.726 13.3462 130.176 11.8351C129.636 10.3522 128.718 8.29268 128.377 6.78809Z" fill="#1E1E1E"/>
<path fill-rule="evenodd" clip-rule="evenodd" d="M170.054 7.00866L170.012 7.01402C161.356 7.72596 159.334 13.6313 159.803 21.454C159.979 24.3936 161.008 27.4777 163.303 29.4544C165.869 31.5884 168.98 31.8804 172.193 31.815C172.628 31.8062 173.063 31.8071 173.498 31.8081C174.117 31.8094 174.738 31.8108 175.368 31.7838C183.809 31.1778 185.967 25.225 185.494 17.6597C185.302 14.5751 184.371 11.4277 181.845 9.27454C178.951 6.80763 174.375 6.91126 170.676 6.99503C170.465 6.9998 170.258 7.0045 170.054 7.00866ZM169.816 11.427C170.268 11.3332 171.286 11.352 171.976 11.3647C172.123 11.3674 172.256 11.3698 172.365 11.3708C172.653 11.3735 172.947 11.3716 173.243 11.3697C175.11 11.3576 177.091 11.3448 178.644 12.4673C180.114 13.529 180.747 15.1954 180.987 16.94C181.301 19.4363 181.312 23.1351 179.782 25.235C178.708 26.7097 177.263 27.176 175.527 27.4122C175.516 27.4137 175.504 27.4151 175.493 27.4165C175.464 27.4201 175.435 27.4233 175.405 27.4263C174.86 27.483 174.157 27.4804 173.509 27.4781C173.24 27.4771 172.981 27.4761 172.745 27.4795C170.81 27.5583 167.879 27.5087 166.303 26.1495C163.305 23.5626 163.415 16.3628 165.668 13.3369C166.617 12.0635 168.344 11.5735 169.816 11.427Z" fill="#1E1E1E"/>
<path d="M54.7857 41.8698C54.2185 41.8698 53.7234 41.7678 53.3005 41.5638C52.8825 41.3598 52.5567 41.0712 52.3228 40.6981C52.0939 40.3249 51.9795 39.8796 51.9795 39.3622C51.9795 38.8447 52.0939 38.3994 52.3228 38.0262C52.5567 37.6481 52.8825 37.3595 53.3005 37.1605C53.7234 36.9565 54.2185 36.8545 54.7857 36.8545C55.3579 36.8545 55.8529 36.9565 56.2709 37.1605C56.6888 37.3595 57.0122 37.6481 57.2411 38.0262C57.475 38.3994 57.5919 38.8447 57.5919 39.3622C57.5919 39.8796 57.475 40.3249 57.2411 40.6981C57.0122 41.0712 56.6888 41.3598 56.2709 41.5638C55.8529 41.7678 55.3579 41.8698 54.7857 41.8698ZM54.7857 41.1235C55.1638 41.1235 55.4972 41.0588 55.7858 40.9294C56.0743 40.8001 56.3007 40.606 56.4649 40.3473C56.6341 40.0836 56.7187 39.7552 56.7187 39.3622C56.7187 38.9741 56.6341 38.6507 56.4649 38.3919C56.3007 38.1282 56.0743 37.9317 55.7858 37.8023C55.4972 37.668 55.1638 37.6008 54.7857 37.6008C54.4125 37.6008 54.0792 37.668 53.7856 37.8023C53.4921 37.9317 53.2607 38.1282 53.0915 38.3919C52.9224 38.6507 52.8378 38.9741 52.8378 39.3622C52.8378 39.7552 52.9224 40.0836 53.0915 40.3473C53.2607 40.606 53.4921 40.8001 53.7856 40.9294C54.0792 41.0588 54.4125 41.1235 54.7857 41.1235Z" fill="#1E1E1E"/>
<path d="M63.0359 40.8996L62.7822 40.9966V36.9441H63.6255V41.7803H62.7822L59.155 37.8471L59.4162 37.7501V41.7803H58.5654V36.9441H59.4162L63.0359 40.8996Z" fill="#1E1E1E"/>
<path d="M65.6405 39.7204V41.0489H69.0363V41.7803H64.7897V36.9441H69.0288V37.6755H65.6405V39.0188H68.4168V39.7204H65.6405Z" fill="#1E1E1E"/>
<path d="M72.4582 40.6458V39.9219H75.339V40.6458H72.4582ZM71.3387 41.7803L73.4508 36.9441H74.3613L76.4884 41.7803H75.5704L73.7195 37.4142H74.0927L72.2492 41.7803H71.3387Z" fill="#1E1E1E"/>
<path d="M77.9255 40.1607V39.4517H79.8809C80.1546 39.4517 80.3735 39.3721 80.5377 39.2129C80.7068 39.0537 80.7914 38.8397 80.7914 38.571C80.7914 38.2924 80.7068 38.076 80.5377 37.9217C80.3735 37.7625 80.1546 37.6829 79.8809 37.6829H78.0449V41.7803H77.1941V36.9441H79.8212C80.0749 36.9441 80.3113 36.9789 80.5302 37.0485C80.7491 37.1132 80.9407 37.2127 81.1049 37.3471C81.274 37.4814 81.4034 37.6506 81.493 37.8546C81.5875 38.0536 81.6348 38.2924 81.6348 38.571C81.6348 38.8447 81.5875 39.0835 81.493 39.2875C81.4034 39.4865 81.274 39.6507 81.1049 39.7801C80.9407 39.9095 80.7491 40.0065 80.5302 40.0712C80.3113 40.1309 80.0749 40.1607 79.8212 40.1607H77.9255Z" fill="#1E1E1E"/>
<path d="M83.2825 40.1607V39.4517H85.2378C85.5115 39.4517 85.7304 39.3721 85.8946 39.2129C86.0638 39.0537 86.1484 38.8397 86.1484 38.571C86.1484 38.2924 86.0638 38.076 85.8946 37.9217C85.7304 37.7625 85.5115 37.6829 85.2378 37.6829H83.4019V41.7803H82.5511V36.9441H85.1781C85.4319 36.9441 85.6682 36.9789 85.8871 37.0485C86.1061 37.1132 86.2976 37.2127 86.4618 37.3471C86.631 37.4814 86.7604 37.6506 86.8499 37.8546C86.9445 38.0536 86.9917 38.2924 86.9917 38.571C86.9917 38.8447 86.9445 39.0835 86.8499 39.2875C86.7604 39.4865 86.631 39.6507 86.4618 39.7801C86.2976 39.9095 86.1061 40.0065 85.8871 40.0712C85.6682 40.1309 85.4319 40.1607 85.1781 40.1607H83.2825Z" fill="#1E1E1E"/>
<path d="M87.2219 42.8699L87.0726 42.6535C87.1522 42.534 87.2243 42.4047 87.289 42.2654C87.3587 42.131 87.396 41.9967 87.401 41.8624L87.0054 41.7803V40.9742H88.0279V41.5489C88.0279 41.8872 87.9508 42.1584 87.7965 42.3624C87.6473 42.5714 87.4557 42.7405 87.2219 42.8699Z" fill="#1E1E1E"/>
<path d="M91.485 39.7204V41.0489H94.8808V41.7803H90.6342V36.9441H94.8733V37.6755H91.485V39.0188H94.2614V39.7204H91.485Z" fill="#1E1E1E"/>
<path d="M100.381 40.8996L100.128 40.9966V36.9441H100.971V41.7803H100.128L96.5006 37.8471L96.7618 37.7501V41.7803H95.911V36.9441H96.7618L100.381 40.8996Z" fill="#1E1E1E"/>
<path d="M104.456 36.9441C104.979 36.9441 105.417 37.0087 105.77 37.1381C106.123 37.2675 106.404 37.4441 106.613 37.668C106.822 37.8869 106.971 38.1407 107.061 38.4292C107.156 38.7178 107.203 39.0213 107.203 39.3398C107.203 39.6632 107.153 39.9717 107.054 40.2652C106.954 40.5588 106.795 40.82 106.576 41.0489C106.362 41.2728 106.081 41.4519 105.733 41.5862C105.384 41.7156 104.959 41.7803 104.456 41.7803H102.135V36.9441H104.456ZM102.986 41.0339H104.449C104.817 41.0339 105.123 40.9867 105.367 40.8921C105.611 40.7976 105.805 40.6707 105.949 40.5115C106.093 40.3473 106.195 40.1657 106.255 39.9667C106.315 39.7627 106.345 39.5537 106.345 39.3398C106.345 39.1258 106.315 38.9218 106.255 38.7278C106.195 38.5288 106.093 38.3521 105.949 38.1979C105.805 38.0387 105.611 37.9143 105.367 37.8247C105.123 37.7302 104.817 37.6829 104.449 37.6829H102.986V41.0339Z" fill="#1E1E1E"/>
<path d="M109.014 36.9441V41.0489H112.029V41.7803H108.163V36.9441H109.014Z" fill="#1E1E1E"/>
<path d="M113.817 39.7204V41.0489H117.212V41.7803H112.966V36.9441H117.205V37.6755H113.817V39.0188H116.593V39.7204H113.817Z" fill="#1E1E1E"/>
<path d="M117.922 40.1757H118.75C118.77 40.3597 118.842 40.5264 118.966 40.6757C119.096 40.82 119.265 40.9344 119.474 41.019C119.688 41.0986 119.932 41.1384 120.205 41.1384C120.449 41.1384 120.651 41.1086 120.81 41.0489C120.969 40.9891 121.086 40.9071 121.161 40.8026C121.24 40.6931 121.28 40.5662 121.28 40.4219C121.28 40.2776 121.233 40.1657 121.138 40.0861C121.049 40.0015 120.909 39.9319 120.72 39.8771C120.531 39.8174 120.29 39.7602 119.996 39.7055C119.753 39.6607 119.516 39.601 119.287 39.5263C119.058 39.4517 118.852 39.3572 118.668 39.2427C118.489 39.1283 118.347 38.989 118.243 38.8248C118.138 38.6556 118.086 38.4566 118.086 38.2277C118.086 37.969 118.158 37.7352 118.302 37.5262C118.451 37.3172 118.67 37.153 118.959 37.0336C119.248 36.9142 119.598 36.8545 120.011 36.8545C120.643 36.8545 121.126 37.0013 121.459 37.2948C121.793 37.5834 121.954 37.9765 121.944 38.474H121.131C121.116 38.1606 121.001 37.9342 120.787 37.7949C120.574 37.6556 120.302 37.5859 119.974 37.5859C119.68 37.5859 119.434 37.6381 119.235 37.7426C119.036 37.8471 118.937 38.0163 118.937 38.2501C118.937 38.3496 118.959 38.4367 119.004 38.5113C119.054 38.581 119.133 38.6457 119.243 38.7054C119.352 38.7601 119.501 38.8148 119.69 38.8696C119.884 38.9193 120.121 38.9741 120.399 39.0338C120.638 39.0736 120.862 39.1283 121.071 39.198C121.28 39.2676 121.462 39.3547 121.616 39.4592C121.775 39.5637 121.9 39.698 121.989 39.8622C122.079 40.0264 122.123 40.2279 122.123 40.4667C122.123 40.7404 122.054 40.9842 121.914 41.1981C121.775 41.4071 121.561 41.5738 121.273 41.6982C120.989 41.8176 120.621 41.8773 120.168 41.8773C119.825 41.8773 119.524 41.8375 119.265 41.7579C119.011 41.6733 118.795 41.5663 118.616 41.4369C118.437 41.3026 118.292 41.1583 118.183 41.0041C118.078 40.8498 118.004 40.7006 117.959 40.5563C117.919 40.407 117.907 40.2801 117.922 40.1757Z" fill="#1E1E1E"/>
<path d="M122.681 40.1757H123.509C123.529 40.3597 123.601 40.5264 123.726 40.6757C123.855 40.82 124.024 40.9344 124.233 41.019C124.447 41.0986 124.691 41.1384 124.965 41.1384C125.208 41.1384 125.41 41.1086 125.569 41.0489C125.728 40.9891 125.845 40.9071 125.92 40.8026C126 40.6931 126.039 40.5662 126.039 40.4219C126.039 40.2776 125.992 40.1657 125.898 40.0861C125.808 40.0015 125.669 39.9319 125.48 39.8771C125.291 39.8174 125.049 39.7602 124.756 39.7055C124.512 39.6607 124.276 39.601 124.047 39.5263C123.818 39.4517 123.611 39.3572 123.427 39.2427C123.248 39.1283 123.106 38.989 123.002 38.8248C122.897 38.6556 122.845 38.4566 122.845 38.2277C122.845 37.969 122.917 37.7352 123.062 37.5262C123.211 37.3172 123.43 37.153 123.718 37.0336C124.007 36.9142 124.358 36.8545 124.771 36.8545C125.402 36.8545 125.885 37.0013 126.218 37.2948C126.552 37.5834 126.714 37.9765 126.704 38.474H125.89C125.875 38.1606 125.761 37.9342 125.547 37.7949C125.333 37.6556 125.062 37.5859 124.733 37.5859C124.44 37.5859 124.193 37.6381 123.994 37.7426C123.795 37.8471 123.696 38.0163 123.696 38.2501C123.696 38.3496 123.718 38.4367 123.763 38.5113C123.813 38.581 123.892 38.6457 124.002 38.7054C124.111 38.7601 124.261 38.8148 124.45 38.8696C124.644 38.9193 124.88 38.9741 125.159 39.0338C125.398 39.0736 125.621 39.1283 125.83 39.198C126.039 39.2676 126.221 39.3547 126.375 39.4592C126.534 39.5637 126.659 39.698 126.748 39.8622C126.838 40.0264 126.883 40.2279 126.883 40.4667C126.883 40.7404 126.813 40.9842 126.674 41.1981C126.534 41.4071 126.32 41.5738 126.032 41.6982C125.748 41.8176 125.38 41.8773 124.927 41.8773C124.584 41.8773 124.283 41.8375 124.024 41.7579C123.771 41.6733 123.554 41.5663 123.375 41.4369C123.196 41.3026 123.052 41.1583 122.942 41.0041C122.838 40.8498 122.763 40.7006 122.718 40.5563C122.678 40.407 122.666 40.2801 122.681 40.1757Z" fill="#1E1E1E"/>
<path d="M130.198 40.1607V39.4517H132.153C132.427 39.4517 132.646 39.3721 132.81 39.2129C132.979 39.0537 133.064 38.8397 133.064 38.571C133.064 38.2924 132.979 38.076 132.81 37.9217C132.646 37.7625 132.427 37.6829 132.153 37.6829H130.317V41.7803H129.466V36.9441H132.093C132.347 36.9441 132.583 36.9789 132.802 37.0485C133.021 37.1132 133.213 37.2127 133.377 37.3471C133.546 37.4814 133.676 37.6506 133.765 37.8546C133.86 38.0536 133.907 38.2924 133.907 38.571C133.907 38.8447 133.86 39.0835 133.765 39.2875C133.676 39.4865 133.546 39.6507 133.377 39.7801C133.213 39.9095 133.021 40.0065 132.802 40.0712C132.583 40.1309 132.347 40.1607 132.093 40.1607H130.198Z" fill="#1E1E1E"/>
<path d="M137.304 41.8698C136.737 41.8698 136.242 41.7678 135.819 41.5638C135.401 41.3598 135.075 41.0712 134.842 40.6981C134.613 40.3249 134.498 39.8796 134.498 39.3622C134.498 38.8447 134.613 38.3994 134.842 38.0262C135.075 37.6481 135.401 37.3595 135.819 37.1605C136.242 36.9565 136.737 36.8545 137.304 36.8545C137.877 36.8545 138.372 36.9565 138.79 37.1605C139.208 37.3595 139.531 37.6481 139.76 38.0262C139.994 38.3994 140.111 38.8447 140.111 39.3622C140.111 39.8796 139.994 40.3249 139.76 40.6981C139.531 41.0712 139.208 41.3598 138.79 41.5638C138.372 41.7678 137.877 41.8698 137.304 41.8698ZM137.304 41.1235C137.683 41.1235 138.016 41.0588 138.305 40.9294C138.593 40.8001 138.82 40.606 138.984 40.3473C139.153 40.0836 139.237 39.7552 139.237 39.3622C139.237 38.9741 139.153 38.6507 138.984 38.3919C138.82 38.1282 138.593 37.9317 138.305 37.8023C138.016 37.668 137.683 37.6008 137.304 37.6008C136.931 37.6008 136.598 37.668 136.304 37.8023C136.011 37.9317 135.779 38.1282 135.61 38.3919C135.441 38.6507 135.357 38.9741 135.357 39.3622C135.357 39.7552 135.441 40.0836 135.61 40.3473C135.779 40.606 136.011 40.8001 136.304 40.9294C136.598 41.0588 136.931 41.1235 137.304 41.1235Z" fill="#1E1E1E"/>
<path d="M140.763 40.1757H141.592C141.612 40.3597 141.684 40.5264 141.808 40.6757C141.938 40.82 142.107 40.9344 142.316 41.019C142.53 41.0986 142.773 41.1384 143.047 41.1384C143.291 41.1384 143.492 41.1086 143.652 41.0489C143.811 40.9891 143.928 40.9071 144.002 40.8026C144.082 40.6931 144.122 40.5662 144.122 40.4219C144.122 40.2776 144.075 40.1657 143.98 40.0861C143.89 40.0015 143.751 39.9319 143.562 39.8771C143.373 39.8174 143.132 39.7602 142.838 39.7055C142.594 39.6607 142.358 39.601 142.129 39.5263C141.9 39.4517 141.694 39.3572 141.51 39.2427C141.331 39.1283 141.189 38.989 141.084 38.8248C140.98 38.6556 140.927 38.4566 140.927 38.2277C140.927 37.969 141 37.7352 141.144 37.5262C141.293 37.3172 141.512 37.153 141.801 37.0336C142.089 36.9142 142.44 36.8545 142.853 36.8545C143.485 36.8545 143.968 37.0013 144.301 37.2948C144.634 37.5834 144.796 37.9765 144.786 38.474H143.973C143.958 38.1606 143.843 37.9342 143.629 37.7949C143.415 37.6556 143.144 37.5859 142.816 37.5859C142.522 37.5859 142.276 37.6381 142.077 37.7426C141.878 37.8471 141.778 38.0163 141.778 38.2501C141.778 38.3496 141.801 38.4367 141.845 38.5113C141.895 38.581 141.975 38.6457 142.084 38.7054C142.194 38.7601 142.343 38.8148 142.532 38.8696C142.726 38.9193 142.962 38.9741 143.241 39.0338C143.48 39.0736 143.704 39.1283 143.913 39.198C144.122 39.2676 144.303 39.3547 144.458 39.4592C144.617 39.5637 144.741 39.698 144.831 39.8622C144.92 40.0264 144.965 40.2279 144.965 40.4667C144.965 40.7404 144.895 40.9842 144.756 41.1981C144.617 41.4071 144.403 41.5738 144.114 41.6982C143.831 41.8176 143.463 41.8773 143.01 41.8773C142.666 41.8773 142.365 41.8375 142.107 41.7579C141.853 41.6733 141.636 41.5663 141.457 41.4369C141.278 41.3026 141.134 41.1583 141.025 41.0041C140.92 40.8498 140.845 40.7006 140.801 40.5563C140.761 40.407 140.748 40.2801 140.763 40.1757Z" fill="#1E1E1E"/>
<path d="M145.523 40.1757H146.351C146.371 40.3597 146.443 40.5264 146.567 40.6757C146.697 40.82 146.866 40.9344 147.075 41.019C147.289 41.0986 147.533 41.1384 147.806 41.1384C148.05 41.1384 148.252 41.1086 148.411 41.0489C148.57 40.9891 148.687 40.9071 148.762 40.8026C148.841 40.6931 148.881 40.5662 148.881 40.4219C148.881 40.2776 148.834 40.1657 148.739 40.0861C148.65 40.0015 148.51 39.9319 148.321 39.8771C148.132 39.8174 147.891 39.7602 147.597 39.7055C147.354 39.6607 147.117 39.601 146.888 39.5263C146.66 39.4517 146.453 39.3572 146.269 39.2427C146.09 39.1283 145.948 38.989 145.844 38.8248C145.739 38.6556 145.687 38.4566 145.687 38.2277C145.687 37.969 145.759 37.7352 145.903 37.5262C146.052 37.3172 146.271 37.153 146.56 37.0336C146.849 36.9142 147.199 36.8545 147.612 36.8545C148.244 36.8545 148.727 37.0013 149.06 37.2948C149.394 37.5834 149.555 37.9765 149.545 38.474H148.732C148.717 38.1606 148.602 37.9342 148.388 37.7949C148.175 37.6556 147.903 37.5859 147.575 37.5859C147.281 37.5859 147.035 37.6381 146.836 37.7426C146.637 37.8471 146.538 38.0163 146.538 38.2501C146.538 38.3496 146.56 38.4367 146.605 38.5113C146.655 38.581 146.734 38.6457 146.844 38.7054C146.953 38.7601 147.102 38.8148 147.291 38.8696C147.485 38.9193 147.722 38.9741 148 39.0338C148.239 39.0736 148.463 39.1283 148.672 39.198C148.881 39.2676 149.063 39.3547 149.217 39.4592C149.376 39.5637 149.501 39.698 149.59 39.8622C149.68 40.0264 149.724 40.2279 149.724 40.4667C149.724 40.7404 149.655 40.9842 149.515 41.1981C149.376 41.4071 149.162 41.5738 148.874 41.6982C148.59 41.8176 148.222 41.8773 147.769 41.8773C147.426 41.8773 147.125 41.8375 146.866 41.7579C146.612 41.6733 146.396 41.5663 146.217 41.4369C146.038 41.3026 145.893 41.1583 145.784 41.0041C145.679 40.8498 145.605 40.7006 145.56 40.5563C145.52 40.407 145.508 40.2801 145.523 40.1757Z" fill="#1E1E1E"/>
<path d="M150.745 36.9441H151.595V41.7803H150.745V36.9441Z" fill="#1E1E1E"/>
<path d="M152.899 41.7803V36.9441H155.362C155.954 36.9441 156.406 37.056 156.72 37.2799C157.038 37.4988 157.197 37.8173 157.197 38.2352C157.197 38.5039 157.135 38.7178 157.011 38.877C156.892 39.0313 156.72 39.1482 156.496 39.2278C156.272 39.3024 156.008 39.3497 155.705 39.3696L155.735 39.3248C155.954 39.3298 156.16 39.3497 156.354 39.3845C156.553 39.4144 156.727 39.4691 156.877 39.5487C157.031 39.6283 157.15 39.7403 157.235 39.8846C157.324 40.0239 157.369 40.2055 157.369 40.4294C157.369 40.7279 157.295 40.9742 157.145 41.1683C156.996 41.3623 156.789 41.5116 156.526 41.6161C156.262 41.7156 155.959 41.7703 155.615 41.7803H152.899ZM153.749 41.0563H155.488C155.812 41.0563 156.063 41.0016 156.242 40.8921C156.421 40.7777 156.511 40.6011 156.511 40.3622C156.511 40.1732 156.456 40.0363 156.347 39.9518C156.237 39.8622 156.095 39.805 155.921 39.7801C155.752 39.7552 155.571 39.7428 155.376 39.7428H153.749V41.0563ZM153.749 39.0338H155.309C155.633 39.0338 155.881 38.979 156.056 38.8696C156.235 38.7551 156.324 38.576 156.324 38.3322C156.324 38.0934 156.235 37.9242 156.056 37.8247C155.881 37.7202 155.653 37.668 155.369 37.668H153.749V39.0338Z" fill="#1E1E1E"/>
<path d="M158.405 36.9441H159.255V41.7803H158.405V36.9441Z" fill="#1E1E1E"/>
<path d="M161.41 36.9441V41.0489H164.425V41.7803H160.559V36.9441H161.41Z" fill="#1E1E1E"/>
<path d="M165.504 36.9441H166.354V41.7803H165.504V36.9441Z" fill="#1E1E1E"/>
<path d="M167.21 36.9441H171.852V37.6755H167.21V36.9441ZM169.113 37.5859H169.956V41.7803H169.113V37.5859Z" fill="#1E1E1E"/>
<path d="M172.712 36.9441H173.563V41.7803H172.712V36.9441Z" fill="#1E1E1E"/>
<path d="M175.717 39.7204V41.0489H179.112V41.7803H174.866V36.9441H179.105V37.6755H175.717V39.0188H178.493V39.7204H175.717Z" fill="#1E1E1E"/>
<path d="M179.822 40.1757H180.65C180.67 40.3597 180.742 40.5264 180.866 40.6757C180.996 40.82 181.165 40.9344 181.374 41.019C181.588 41.0986 181.832 41.1384 182.105 41.1384C182.349 41.1384 182.551 41.1086 182.71 41.0489C182.869 40.9891 182.986 40.9071 183.061 40.8026C183.14 40.6931 183.18 40.5662 183.18 40.4219C183.18 40.2776 183.133 40.1657 183.038 40.0861C182.949 40.0015 182.809 39.9319 182.62 39.8771C182.431 39.8174 182.19 39.7602 181.896 39.7055C181.653 39.6607 181.416 39.601 181.187 39.5263C180.959 39.4517 180.752 39.3572 180.568 39.2427C180.389 39.1283 180.247 38.989 180.143 38.8248C180.038 38.6556 179.986 38.4566 179.986 38.2277C179.986 37.969 180.058 37.7352 180.202 37.5262C180.352 37.3172 180.57 37.153 180.859 37.0336C181.148 36.9142 181.498 36.8545 181.911 36.8545C182.543 36.8545 183.026 37.0013 183.359 37.2948C183.693 37.5834 183.854 37.9765 183.844 38.474H183.031C183.016 38.1606 182.901 37.9342 182.688 37.7949C182.474 37.6556 182.202 37.5859 181.874 37.5859C181.58 37.5859 181.334 37.6381 181.135 37.7426C180.936 37.8471 180.837 38.0163 180.837 38.2501C180.837 38.3496 180.859 38.4367 180.904 38.5113C180.954 38.581 181.033 38.6457 181.143 38.7054C181.252 38.7601 181.401 38.8148 181.59 38.8696C181.784 38.9193 182.021 38.9741 182.299 39.0338C182.538 39.0736 182.762 39.1283 182.971 39.198C183.18 39.2676 183.362 39.3547 183.516 39.4592C183.675 39.5637 183.8 39.698 183.889 39.8622C183.979 40.0264 184.023 40.2279 184.023 40.4667C184.023 40.7404 183.954 40.9842 183.814 41.1981C183.675 41.4071 183.461 41.5738 183.173 41.6982C182.889 41.8176 182.521 41.8773 182.068 41.8773C181.725 41.8773 181.424 41.8375 181.165 41.7579C180.911 41.6733 180.695 41.5663 180.516 41.4369C180.337 41.3026 180.192 41.1583 180.083 41.0041C179.978 40.8498 179.904 40.7006 179.859 40.5563C179.819 40.407 179.807 40.2801 179.822 40.1757Z" fill="#1E1E1E"/>
<defs>
<clipPath id="clip0_2158_10894">
<rect width="43.1868" height="48" fill="white"/>
</clipPath>
</defs>
</svg>
