<svg width="18" height="18" viewBox="0 0 18 18" fill="none" xmlns="http://www.w3.org/2000/svg">
<path d="M9 4.37988C14.0029 4.37988 16.3125 8.99801 16.3125 8.99801C16.3125 8.99801 14.0029 13.6161 9 13.6161C3.99713 13.6161 1.6875 8.99801 1.6875 8.99801C1.6875 8.99801 3.99713 4.37988 9 4.37988Z" stroke="white" stroke-width="1.3935" stroke-linejoin="round"/>
<path d="M11.183 8.99902C11.1897 9.29866 11.1365 9.59661 11.0265 9.87539C10.9164 10.1542 10.7518 10.4082 10.5423 10.6224C10.3327 10.8367 10.0825 11.007 9.80624 11.1232C9.52999 11.2395 9.2333 11.2993 8.93359 11.2993C8.63389 11.2993 8.3372 11.2395 8.06095 11.1232C7.7847 11.007 7.53446 10.8367 7.32492 10.6224C7.11537 10.4082 6.95075 10.1542 6.84072 9.87539C6.73068 9.59661 6.67746 9.29866 6.68416 8.99902C6.68416 8.40229 6.92121 7.82999 7.34317 7.40803C7.76512 6.98608 8.33742 6.74902 8.93416 6.74902C9.53089 6.74902 10.1032 6.98608 10.5251 7.40803C10.9471 7.82999 11.1842 8.40229 11.1842 8.99902H11.183Z" stroke="white" stroke-width="1.3935" stroke-linejoin="round"/>
</svg>
