<svg width="12" height="12" viewBox="0 0 12 12" fill="none" xmlns="http://www.w3.org/2000/svg">
<path d="M5.99969 2.92018C9.33491 2.92018 10.8746 5.9989 10.8746 5.9989C10.8746 5.9989 9.33491 9.07761 5.99969 9.07761C2.66447 9.07761 1.12474 5.9989 1.12474 5.9989C1.12474 5.9989 2.66447 2.92018 5.99969 2.92018Z" stroke="white" stroke-width="0.875162" stroke-linejoin="round"/>
<path d="M7.45502 5.99947C7.45949 6.19922 7.424 6.39785 7.35065 6.5837C7.27729 6.76955 7.16754 6.93887 7.02785 7.08173C6.88816 7.22458 6.72133 7.33809 6.53717 7.41558C6.353 7.49307 6.15521 7.53299 5.95541 7.53299C5.75561 7.53299 5.55782 7.49307 5.37365 7.41558C5.18949 7.33809 5.02266 7.22458 4.88297 7.08173C4.74327 6.93887 4.63353 6.76955 4.56017 6.5837C4.48682 6.39785 4.45133 6.19922 4.4558 5.99947C4.4558 5.60164 4.61383 5.22012 4.89514 4.93882C5.17644 4.65752 5.55796 4.49948 5.95578 4.49948C6.35361 4.49948 6.73513 4.65752 7.01643 4.93882C7.29773 5.22012 7.45577 5.60164 7.45577 5.99947H7.45502Z" stroke="white" stroke-width="0.875162" stroke-linejoin="round"/>
</svg>
