<svg width="18" height="18" viewBox="0 0 18 18" fill="none" xmlns="http://www.w3.org/2000/svg">
<g clip-path="url(#clip0_2158_10525)">
<path d="M7.97051 5.409C11.8585 4.29415 14.6825 7.36842 14.6825 7.36842C14.6825 7.36842 13.9167 11.4721 10.0287 12.5869C6.14078 13.7018 3.31674 10.6275 3.31674 10.6275C3.31674 10.6275 4.08254 6.52386 7.97051 5.409Z" stroke="white" stroke-width="1.1148" stroke-linejoin="round"/>
<path d="M10.6962 8.51278C10.7682 8.74415 10.7932 8.98756 10.7698 9.22874C10.7464 9.46991 10.6751 9.70398 10.56 9.9172C10.4449 10.1304 10.2884 10.3185 10.0996 10.4704C9.91079 10.6223 9.69357 10.7349 9.46065 10.8017C9.22773 10.8685 8.98382 10.8881 8.74323 10.8593C8.50264 10.8306 8.27023 10.754 8.05963 10.6342C7.84903 10.5143 7.6645 10.3536 7.51686 10.1615C7.36923 9.96937 7.26146 9.74968 7.1999 9.51533C7.06692 9.05158 7.12361 8.55399 7.3575 8.13204C7.5914 7.71009 7.98333 7.39833 8.44708 7.26535C8.91083 7.13237 9.40842 7.18906 9.83037 7.42296C10.2523 7.65685 10.5641 8.04878 10.6971 8.51253L10.6962 8.51278Z" stroke="white" stroke-width="1.1148" stroke-linejoin="round"/>
</g>
<defs>
<clipPath id="clip0_2158_10525">
<rect width="14.4" height="14.4" fill="white" transform="translate(0 4.01075) scale(1.01058) rotate(-16)"/>
</clipPath>
</defs>
</svg>
