<svg width="21" height="21" viewBox="0 0 21 21" fill="none" xmlns="http://www.w3.org/2000/svg">
<g clip-path="url(#clip0_2158_10483)">
<path d="M12.1063 6.71664C16.2035 8.45583 16.4896 13.0409 16.4896 13.0409C16.4896 13.0409 12.9927 16.0202 8.89539 14.281C4.79811 12.5418 4.512 7.95671 4.512 7.95671C4.512 7.95671 8.00899 4.97745 12.1063 6.71664Z" stroke="white" stroke-width="1.2077" stroke-linejoin="round"/>
<path d="M12.2875 11.2577C12.1888 11.5054 12.0416 11.7309 11.8546 11.921C11.6676 12.1111 11.4444 12.2619 11.1983 12.3645C10.9522 12.4671 10.6881 12.5196 10.4214 12.5188C10.1548 12.5179 9.891 12.4638 9.64554 12.3596C9.40008 12.2554 9.17792 12.1033 8.99208 11.912C8.80625 11.7208 8.66049 11.4944 8.56337 11.246C8.46625 10.9977 8.41973 10.7324 8.42652 10.4659C8.43332 10.1993 8.49331 9.93679 8.60296 9.69372C8.81041 9.20501 9.2035 8.81871 9.69577 8.61982C10.188 8.42094 10.7391 8.42575 11.2279 8.6332C11.7166 8.84064 12.1029 9.23374 12.3018 9.726C12.5006 10.2183 12.4958 10.7694 12.2884 11.2581L12.2875 11.2577Z" stroke="white" stroke-width="1.2077" stroke-linejoin="round"/>
</g>
<defs>
<clipPath id="clip0_2158_10483">
<rect width="15.6" height="15.6" fill="white" transform="translate(6.25779) scale(1.02659) rotate(23)"/>
</clipPath>
</defs>
</svg>
