<svg width="9" height="9" viewBox="0 0 9 9" fill="none" xmlns="http://www.w3.org/2000/svg">
<g clip-path="url(#clip0_0_2012)">
<path d="M4.30371 7.30394C4.69064 7.33123 4.98185 7.66708 4.95478 8.05409C4.92772 8.44109 4.59261 8.73315 4.20564 8.70633C3.8185 8.67925 3.52642 8.34325 3.55348 7.9561C3.58055 7.56895 3.91656 7.27687 4.30371 7.30394ZM4.54879 3.79906C4.93573 3.82635 5.22693 4.1622 5.19987 4.54921C5.17275 4.93616 4.83766 5.22827 4.45073 5.20145C4.06361 5.17438 3.77155 4.83833 3.79857 4.45122C3.82564 4.06407 4.16164 3.77199 4.54879 3.79906ZM4.79388 0.294181C5.18081 0.321469 5.47202 0.657323 5.44495 1.04433C5.41779 1.43124 5.08272 1.72339 4.69581 1.69657C4.30873 1.6695 4.01669 1.33341 4.04365 0.946341C4.07072 0.559193 4.40673 0.267109 4.79388 0.294181Z" fill="#838589"/>
</g>
<defs>
<clipPath id="clip0_0_2012">
<rect width="7.59161" height="7.59161" fill="white" transform="translate(0.587923) scale(1.11076) rotate(4)"/>
</clipPath>
</defs>
</svg>
