<svg width="14" height="14" viewBox="0 0 14 14" fill="none" xmlns="http://www.w3.org/2000/svg">
<path d="M6.20972 7.33186C6.11466 7.22248 6.06694 7.07982 6.07705 6.93525C6.08716 6.79068 6.15427 6.65605 6.26363 6.56096L8.93819 4.23549C9.04469 4.13961 9.10927 4.00573 9.11803 3.86269C9.12678 3.71966 9.079 3.57891 8.98499 3.47076C8.89097 3.3626 8.75824 3.2957 8.61538 3.28447C8.47252 3.27323 8.33096 3.31855 8.22119 3.41067L5.54826 5.73626C5.22019 6.02153 5.01885 6.42543 4.98852 6.85913C4.9582 7.29283 5.10136 7.72082 5.38654 8.04898L7.71197 10.7241C7.80785 10.8306 7.94173 10.8952 8.08477 10.9039C8.2278 10.9127 8.36855 10.8649 8.4767 10.7709C8.58486 10.6769 8.65176 10.5441 8.66299 10.4013C8.67423 10.2584 8.62891 10.1169 8.53679 10.0071L6.20972 7.33186Z" fill="#161616"/>
</svg>
