<svg width="12" height="12" viewBox="0 0 12 12" fill="none" xmlns="http://www.w3.org/2000/svg">
<g clip-path="url(#clip0_0_2027)">
<path d="M3.40226 9.57469C3.91845 9.61078 4.30715 10.059 4.27106 10.5752C4.23494 11.0914 3.78772 11.4802 3.27154 11.4441C2.75539 11.408 2.36661 10.9607 2.40268 10.4446C2.43877 9.92839 2.88609 9.53862 3.40226 9.57469ZM8.07523 9.90146C8.59143 9.93755 8.98113 10.3859 8.94504 10.9021C8.90892 11.4182 8.46069 11.8069 7.94451 11.7708C7.42854 11.7345 7.03959 11.2874 7.07565 10.7713C7.11173 10.2553 7.55921 9.86559 8.07523 9.90146ZM1.35523 0.0399012C1.69842 0.0640603 2.02106 0.213521 2.2616 0.459502C2.50215 0.705612 2.64401 1.03164 2.66033 1.3754L2.66909 1.54042L10.2244 2.06874C10.4298 2.08285 10.6301 2.14265 10.81 2.24264C10.9898 2.34261 11.1455 2.48118 11.2658 2.64798C11.3863 2.81439 11.4692 3.00505 11.5078 3.20685C11.5464 3.40885 11.5403 3.61722 11.4895 3.81653L10.9796 5.82584C10.8447 6.358 10.5272 6.82553 10.0824 7.14739C9.63749 7.46933 9.09344 7.62528 8.5456 7.58694L2.97581 7.19746C3.05312 7.47663 3.21464 7.72503 3.43858 7.90878C3.66281 8.0926 3.93926 8.20278 4.22845 8.22382L9.10846 8.56506C9.23232 8.57377 9.34763 8.63179 9.4291 8.7255C9.51056 8.81924 9.552 8.94147 9.54336 9.06536C9.5347 9.18923 9.4766 9.3045 9.38292 9.386C9.2892 9.46747 9.16694 9.50887 9.04306 9.50026L4.16305 9.15902C3.59056 9.119 3.05227 8.86995 2.65108 8.45959C2.24991 8.04919 2.01359 7.50569 1.98657 6.93242L1.72559 1.41964C1.72014 1.30504 1.67291 1.19604 1.5927 1.11401C1.51249 1.03203 1.40431 0.982107 1.2899 0.974092L1.18689 0.966888C1.06308 0.958231 0.947669 0.901048 0.866172 0.807454C0.78472 0.713755 0.743327 0.591448 0.751914 0.4676C0.760581 0.343658 0.81859 0.228468 0.912358 0.146956C1.00613 0.0654439 1.12827 0.0240309 1.25221 0.0326978L1.35523 0.0399012ZM2.89274 6.25188L8.611 6.65174C8.94003 6.67525 9.26722 6.58273 9.5346 6.38954C9.80197 6.19634 9.99325 5.91484 10.0743 5.59508L10.5831 3.5867C10.6 3.52 10.6023 3.44971 10.5893 3.38213C10.5762 3.31475 10.5483 3.25129 10.5079 3.19579C10.4674 3.14015 10.4153 3.09343 10.355 3.06027C10.2948 3.02719 10.2276 3.00833 10.159 3.00394L2.71378 2.48332L2.89274 6.25188Z" fill="#0C1A30"/>
<rect x="6.95318" y="0.431283" width="5.05942" height="5.05942" rx="2.44016" transform="rotate(4 6.95318 0.431283)" fill="#FE3A30"/>
</g>
<defs>
<clipPath id="clip0_0_2027">
<rect width="10.8452" height="10.8452" fill="white" transform="translate(0.784611) scale(1.0367) rotate(4)"/>
</clipPath>
</defs>
</svg>
