<svg width="21" height="21" viewBox="0 0 21 21" fill="none" xmlns="http://www.w3.org/2000/svg">
<path d="M13.3351 1.75017H9.9279C8.38442 1.75017 7.16119 1.75017 6.20483 1.87967C5.21959 2.01266 4.42248 2.29266 3.79424 2.92353C3.16512 3.55439 2.886 4.35501 2.75387 5.34374C2.62525 6.30448 2.62525 7.53209 2.62525 9.08169V14.1899C2.62525 15.5094 3.43024 16.6398 4.57385 17.1141C4.51523 16.3178 4.51523 15.2022 4.51523 14.273V9.88931C4.51523 8.76845 4.51523 7.80159 4.61847 7.0281C4.7296 6.19861 4.97984 5.40412 5.62209 4.75925C6.26433 4.11439 7.05619 3.86326 7.88218 3.75127C8.65217 3.64802 9.61466 3.64802 10.732 3.64802H13.4182C14.5347 3.64802 15.4955 3.64802 16.2663 3.75127C16.0354 3.16178 15.6322 2.65555 15.1094 2.2986C14.5865 1.94164 13.9682 1.75052 13.3351 1.75017Z" fill="white"/>
<path d="M5.77495 9.97198C5.77495 7.58676 5.77495 6.39415 6.51344 5.65304C7.25105 4.91192 8.43841 4.91192 10.8149 4.91192H13.3348C15.7104 4.91192 16.8987 4.91192 17.6372 5.65304C18.3757 6.39415 18.3748 7.58676 18.3748 9.97198V14.1894C18.3748 16.5746 18.3748 17.7672 17.6372 18.5084C16.8987 19.2495 15.7104 19.2495 13.3348 19.2495H10.8149C8.43929 19.2495 7.25105 19.2495 6.51344 18.5084C5.77495 17.7672 5.77495 16.5746 5.77495 14.1894V9.97198Z" fill="white"/>
</svg>
