<svg width="1070" height="642" viewBox="0 0 1070 642" fill="none" xmlns="http://www.w3.org/2000/svg">
<path d="M1070 578C1070 608.17 1070 623.254 1060.63 632.627C1051.25 642 1036.17 642 1006 642H64C33.8301 642 18.7456 642 9.37305 632.627C0.00046408 623.254 0 608.17 0 578V100C0 69.8301 0.000463873 54.7456 9.37305 45.373C18.7456 36.0005 33.8301 36 64 36H807V16C807 8.45753 807 4.68592 809.343 2.34277C811.686 -0.000372313 815.458 0 823 0H1034C1045.18 0 1050.77 0.000257218 1055.18 1.82715C1061.07 4.263 1065.74 8.93494 1068.17 14.8154C1070 19.2259 1070 24.8174 1070 36V578Z" fill="url(#paint0_linear_2158_10389)"/>
<defs>
<linearGradient id="paint0_linear_2158_10389" x1="535" y1="0" x2="535" y2="642" gradientUnits="userSpaceOnUse">
<stop stop-color="#FF99CB"/>
<stop offset="1" stop-color="#FF3D9C"/>
</linearGradient>
</defs>
</svg>
