<svg width="1070" height="642" viewBox="0 0 1070 642" fill="none" xmlns="http://www.w3.org/2000/svg">
<path d="M1006 36C1036.17 36 1051.25 36.0005 1060.63 45.373C1070 54.7456 1070 69.8301 1070 100V578C1070 608.17 1070 623.254 1060.63 632.627C1051.25 642 1036.17 642 1006 642H64C33.8301 642 18.7456 642 9.37305 632.627C0.00046408 623.254 0 608.17 0 578V100C0 69.8301 0.000463873 54.7456 9.37305 45.373C18.7456 36.0005 33.8301 36 64 36H265V16C265 8.45753 265 4.68592 267.343 2.34277C269.686 -0.000372313 273.458 0 281 0H492C503.183 0 508.774 0.000257218 513.185 1.82715C519.065 4.263 523.737 8.93494 526.173 14.8154C528 19.2259 528 24.8174 528 36H1006Z" fill="url(#paint0_linear_2158_10303)"/>
<defs>
<linearGradient id="paint0_linear_2158_10303" x1="535" y1="0" x2="535" y2="642" gradientUnits="userSpaceOnUse">
<stop stop-color="#A6A3FF"/>
<stop offset="1" stop-color="#645FFE"/>
</linearGradient>
</defs>
</svg>
