<svg width="19" height="6" viewBox="0 0 19 6" fill="none" xmlns="http://www.w3.org/2000/svg">
<path fill-rule="evenodd" clip-rule="evenodd" d="M3.4004 0.461594C3.89848 0.192412 4.68918 -0.0393888 5.30689 0.685434C5.74155 1.19555 5.78888 1.81004 5.61002 2.42056L18.2578 3.30499C18.6971 3.3357 19.0286 3.71616 18.998 4.15537C18.9673 4.59472 18.586 4.9262 18.1466 4.89547L4.71107 3.95597C4.03015 4.72515 3.15594 5.27026 2.60915 5.23224C1.36955 5.14556 -1.12109 1.85401 0.570465 0.354231C1.28293 -0.277297 2.03281 0.0620069 2.48855 0.397831C2.74602 0.587573 3.11899 0.613575 3.4004 0.461594Z" fill="url(#paint0_linear_0_684)"/>
<defs>
<linearGradient id="paint0_linear_0_684" x1="-0.0609219" y1="2.46858" x2="19.0227" y2="3.80304" gradientUnits="userSpaceOnUse">
<stop stop-color="#F3A020"/>
<stop offset="1" stop-color="#DE127B"/>
</linearGradient>
</defs>
</svg>
