<svg width="7" height="5" viewBox="0 0 7 5" fill="none" xmlns="http://www.w3.org/2000/svg">
<path fill-rule="evenodd" clip-rule="evenodd" d="M2.71927 3.9413C3.24913 3.39145 4.10056 3.30175 4.73308 3.72964C4.76498 3.75283 4.7854 3.7885 4.79038 3.8275C4.7953 3.86656 4.78438 3.90644 4.75923 3.93684L3.94463 4.94645C3.92086 4.97589 3.8862 4.99514 3.84848 4.9992C3.81054 5.00319 3.77188 4.99174 3.74239 4.96771L2.73676 4.14941C2.70575 4.12487 2.68576 4.08835 2.68248 4.04905C2.67926 4.00982 2.69281 3.97061 2.71927 3.9413ZM1.37529 2.84802C2.50564 1.5577 4.44525 1.3541 5.8193 2.38094C5.85038 2.40511 5.87108 2.441 5.87564 2.47999C5.88015 2.51906 5.86819 2.5588 5.8434 2.58945L5.37336 3.17356C5.32481 3.23324 5.2368 3.24325 5.17567 3.19653C4.72555 2.86942 4.1687 2.7206 3.61403 2.77893C3.05997 2.83751 2.54742 3.09876 2.1755 3.51186C2.12545 3.57024 2.03725 3.57868 1.97735 3.5305L1.39614 3.05687C1.36547 3.03209 1.3456 2.99567 1.34186 2.95651C1.33818 2.91746 1.34994 2.87811 1.37529 2.84802ZM0.0342676 1.76209C1.76251 -0.270895 4.7921 -0.589367 6.90523 1.03992C6.93583 1.06419 6.95606 1.0993 6.96038 1.13801C6.96468 1.17678 6.95262 1.21596 6.92803 1.24638L6.45691 1.83061C6.40833 1.89037 6.32083 1.89989 6.26018 1.85238C5.45566 1.23717 4.44301 0.953216 3.43329 1.0593C2.42372 1.16554 1.49315 1.65377 0.834142 2.42268C0.784798 2.48186 0.697133 2.4906 0.63719 2.44228L0.0538161 1.96889C0.0235254 1.94423 0.00453998 1.90827 0.000723774 1.86949C-0.00308855 1.83068 0.00930823 1.79219 0.0342676 1.76209Z" fill="white"/>
</svg>
