<svg width="10" height="8" viewBox="0 0 10 8" fill="none" xmlns="http://www.w3.org/2000/svg">
<path fill-rule="evenodd" clip-rule="evenodd" d="M3.4644 6.12928C4.27847 5.34222 5.47023 5.3422 6.28429 6.12928C6.32515 6.17161 6.34911 6.23113 6.35024 6.29416C6.35135 6.35719 6.32962 6.41784 6.29029 6.46203L5.01524 7.93293C4.97794 7.97592 4.92732 7.99982 4.87435 7.99988C4.82119 7.99988 4.76982 7.97615 4.73245 7.93293L3.45741 6.46203C3.41823 6.41784 3.39632 6.35707 3.39745 6.29416C3.39862 6.23105 3.42342 6.17159 3.4644 6.12928ZM1.76268 4.16376C3.51658 2.29892 6.23316 2.29883 7.98701 4.16376C8.02652 4.20747 8.0484 4.26777 8.04897 4.33063C8.04952 4.39337 8.02859 4.4539 7.99001 4.4985L7.25256 5.34987C7.17662 5.43678 7.05367 5.43847 6.97577 5.35386C6.39985 4.75783 5.65025 4.4275 4.87335 4.42756C4.09704 4.42806 3.34838 4.75821 2.77292 5.35386C2.69502 5.43847 2.57207 5.43678 2.49613 5.34987L1.75968 4.4985C1.72092 4.45395 1.69921 4.39347 1.69973 4.33063C1.70026 4.2677 1.72308 4.20747 1.76268 4.16376ZM0.0619564 2.21022C2.75203 -0.736722 6.99568 -0.736758 9.68574 2.21022C9.72454 2.25398 9.74637 2.31378 9.74669 2.3761C9.74696 2.43844 9.72617 2.49873 9.68774 2.54297L8.94929 3.39333C8.87328 3.48067 8.74968 3.48232 8.6725 3.39633C7.6476 2.28256 6.28747 1.6607 4.87335 1.66063C3.45918 1.66075 2.09914 2.28251 1.0742 3.39633C0.997061 3.48239 0.873349 3.48078 0.797405 3.39333L0.0599579 2.54297C0.021557 2.49871 -0.000288368 2.43843 2.87543e-06 2.3761C0.0003622 2.31366 0.0229888 2.25397 0.0619564 2.21022Z" fill="white"/>
</svg>
