<svg width="6" height="5" viewBox="0 0 6 5" fill="none" xmlns="http://www.w3.org/2000/svg">
<path fill-rule="evenodd" clip-rule="evenodd" d="M1.99192 3.23282C2.52241 2.84643 3.25631 2.89779 3.72789 3.35421C3.75151 3.37865 3.76378 3.41215 3.76211 3.44601C3.76041 3.47977 3.74524 3.51149 3.71942 3.53345L2.87977 4.26619C2.85526 4.28764 2.82285 4.29867 2.79028 4.29651C2.75756 4.29422 2.72624 4.27872 2.70486 4.25396L1.97537 3.41149C1.95288 3.38614 1.94223 3.35262 1.94526 3.31896C1.94834 3.28521 1.96511 3.25372 1.99192 3.23282ZM1.01808 2.10708C2.16744 1.18362 3.83913 1.30073 4.84893 2.37496C4.87166 2.40009 4.88408 2.43396 4.88207 2.4677C4.87994 2.50126 4.86381 2.53292 4.83836 2.55506L4.35353 2.97937C4.30353 3.02264 4.2273 3.01812 4.18252 2.96945C3.85033 2.6253 3.40137 2.41594 2.9231 2.38253C2.44523 2.3494 1.97178 2.49421 1.59526 2.78853C1.54422 2.83015 1.46898 2.82415 1.42555 2.77463L1.00347 2.2869C0.981326 2.26146 0.970821 2.22791 0.973367 2.19437C0.976045 2.16067 0.992053 2.1288 1.01808 2.10708ZM0.0448211 0.987473C1.81111 -0.475257 4.42309 -0.292744 5.96853 1.4017C5.99082 1.42682 6.00186 1.45986 5.99972 1.49329C5.99754 1.52664 5.98235 1.55768 5.9571 1.57971L5.47126 2.00395C5.42119 2.04747 5.34461 2.0424 5.30032 1.99301C4.71118 1.35248 3.89704 0.961232 3.02674 0.900337C2.15637 0.839568 1.2958 1.11354 0.623226 1.66596C0.572557 1.70875 0.49694 1.7031 0.453441 1.65307L0.030356 1.16528C0.00854911 1.13996 -0.00231094 1.107 0.000179924 1.07376C0.0027399 1.04033 0.0191955 1.00923 0.0448211 0.987473Z" fill="white"/>
</svg>
